<?xml version="1.0" standalone="no"?>
<!DOCTYPE svg PUBLIC "-//W3C//DTD SVG 1.1//EN" "http://www.w3.org/Graphics/SVG/1.1/DTD/svg11.dtd" >
<svg>
<metadata>
Created by FontForge 20110222 at Sun Jan 10 10:07:17 2016
 By www-data
(c) 1992 Unity Progress. Portions (c) 2004 The Monotype Corporation. Portions (c) 2004 Microsoft Corporation. All Rights Reserved.
</metadata>
<defs>
<font id="FreesiaUPC" horiz-adv-x="0" >
  <font-face 
    font-family="FreesiaUPC"
    font-weight="400"
    font-stretch="normal"
    units-per-em="4096"
    panose-1="2 11 6 4 2 2 2 2 2 4"
    ascent="3276"
    descent="-820"
    x-height="1364"
    cap-height="1839"
    bbox="-1782 -1479 3240 3432"
    underline-thickness="20"
    underline-position="-123"
    unicode-range="U+0020-25CC"
  />
    <missing-glyph />
    <glyph glyph-name="000a" horiz-adv-x="3072" 
d="M512 0v2560h2048v-2560h-2048zM2496 64v2432h-1920v-2432h1920z" />
    <glyph glyph-name="glyph1" 
 />
    <glyph glyph-name="glyph2" 
 />
    <glyph glyph-name="space" unicode=" " horiz-adv-x="909" 
 />
    <glyph glyph-name="space" unicode="&#xa0;" horiz-adv-x="909" 
 />
    <glyph glyph-name="exclam" unicode="!" horiz-adv-x="909" 
d="M319 1786h287v-496l-65 -844h-156l-66 844v496zM463 -8q-74 0 -117 47.5t-43 112.5q0 66 42 112.5t118 46.5t118 -46.5t42 -112.5q0 -65 -43 -112.5t-117 -47.5z" />
    <glyph glyph-name="quotedbl" unicode="&#x22;" horiz-adv-x="1016" 
d="M598 1864l-250 -590h-123l168 590h205zM909 1864l-250 -590h-122l168 590h204z" />
    <glyph glyph-name="numbersign" unicode="#" horiz-adv-x="1802" 
d="M332 1249h311l111 500h159l-114 -500h340l110 484h164l-110 -484h348l-33 -127h-344l-86 -381h368l-32 -131h-357l-131 -610h-159l135 610h-344l-131 -610h-156l127 610h-315l28 131h316l77 381h-319zM770 1122l-78 -381h344l82 381h-348z" />
    <glyph glyph-name="dollar" unicode="$" horiz-adv-x="1597" 
d="M1380 1188h-196v8v10q1 6 0 14q-2 31 -13 71t-41 81q-68 94 -204 94v-528q34 0 176 -59.5t213 -141.5q98 -118 98 -282q0 -161 -86 -275q-79 -104 -199 -144t-202 -40v-209h-123v209q-215 0 -365 123q-123 98 -123 348h193q-1 0 -1 -3q0 -14 13 -80q15 -84 53 -118
q104 -94 230 -94v598q-20 0 -98 18.5t-170 60.5t-154 109q-74 90 -74 242q0 174 107 287q147 155 389 155v164h123v-164q56 0 156.5 -24t183.5 -102q114 -106 114 -328zM508 1212q0 -127 118.5 -186t176.5 -59v499q-113 0 -204 -63.5t-91 -190.5zM926 733v-565q100 0 189 69
t89 222q0 133 -104.5 203.5t-173.5 70.5z" />
    <glyph glyph-name="percent" unicode="%" horiz-adv-x="2413" 
d="M594 0l987 1638h180l-991 -1638h-176zM926 1110q-5 -144 -42 -260t-117.5 -190t-209.5 -74q-194 3 -273 165.5t-79 395.5q3 196 98.5 343.5t278.5 147.5q187 -5 265.5 -157.5t78.5 -370.5zM2146 520q-7 -224 -94.5 -374t-273.5 -150q-195 3 -274 166.5t-79 394.5
q5 200 100 346t277 146q128 -4 205 -81.5t108 -195.5t31 -252zM1798 922q-97 0 -136.5 -114t-39.5 -259q0 -184 32 -299t136 -115q156 0 156 406q0 168 -26.5 273t-121.5 108zM578 1511q-98 0 -137.5 -113.5t-39.5 -258.5q0 -186 32.5 -300t135.5 -114q156 0 156 405
q0 168 -26.5 273t-120.5 108z" />
    <glyph glyph-name="ampersand" unicode="&#x26;" horiz-adv-x="1688" 
d="M1597 0h-282l-103 123q-26 -35 -131 -87t-319 -52q-165 6 -294.5 92t-168.5 239q-16 67 -16 136q0 142 63 252t137 176.5t86 66.5q-27 30 -73.5 100.5t-65.5 161.5q-12 49 -12 95q0 118 66 211t171 120q47 13 103 13q87 -3 163.5 -33.5t128.5 -101.5t56 -189
q0 -169 -99.5 -275t-166.5 -143q2 -3 54.5 -71.5t113.5 -149.5q68 -86 121 -147t67 -74q0 1 7.5 16.5t12.5 36t9 66.5v114h213l4 -22.5t4 -50.5q0 -76 -25 -168q-13 -62 -38.5 -107.5t-34.5 -60.5zM688 766q-42 -24 -106.5 -100.5t-69.5 -206.5q0 -120 72 -196t178 -79
q152 0 229.5 47t77.5 68q-25 25 -84.5 89t-132.5 157q-145 182 -164 221zM889 1278q0 184 -127 184q-127 -6 -127 -176q2 -76 40 -134.5t62 -82.5q30 18 81 70t71 139z" />
    <glyph glyph-name="quotesingle" unicode="'" horiz-adv-x="778" 
d="M553 1864l-250 -590h-123l168 590h205z" />
    <glyph glyph-name="parenleft" unicode="(" horiz-adv-x="1303" 
d="M487 819q0 -227 35 -422t109 -368.5t187.5 -328.5t283.5 -314l-107 -115q-252 204 -412 438t-234.5 505.5t-74.5 604.5q3 325 79.5 587t234.5 485t407 427l115 -98q-220 -202 -355 -411t-200 -449.5t-68 -540.5z" />
    <glyph glyph-name="parenright" unicode=")" horiz-adv-x="1303" 
d="M229 2220l131 98q246 -207 400 -430.5t229 -487t76 -581.5q0 -328 -73 -597t-229.5 -499.5t-402.5 -435.5l-122 99q219 202 354 418t197.5 463.5t62.5 551.5q-1 292 -66.5 536.5t-201.5 454t-355 410.5z" />
    <glyph glyph-name="asterisk" unicode="*" horiz-adv-x="1339" 
d="M319 1135l-77 131l393 180l-397 176l77 135l353 -250l-41 430h155l-37 -430l353 250l78 -135l-398 -176l393 -180l-77 -131l-353 245l41 -430h-155l41 426z" />
    <glyph glyph-name="plus" unicode="+" horiz-adv-x="1642" 
d="M913 1425v-507h508v-193h-508v-508h-192v508h-508v193h508v507h192z" />
    <glyph glyph-name="comma" unicode="," horiz-adv-x="827" 
d="M467 12q-3 -3 -23 -7.5t-75 -4.5q-50 9 -80.5 50.5t-30.5 92.5q0 62 45 107q49 49 131 49q103 0 139 -57q62 -88 62 -181q0 -67 -41 -200q-38 -112 -133 -160t-150 -57v114q82 0 135 86q29 48 29 111q0 57 -8 57z" />
    <glyph glyph-name="hyphen" unicode="-" horiz-adv-x="1642" 
d="M324 918h1052v-193h-1052v193z" />
    <glyph glyph-name="period" unicode="." horiz-adv-x="709" 
d="M360 0q-75 0 -119 48.5t-44 115.5q0 66 43 115t120 49q80 0 122 -48.5t42 -115.5t-43 -115.5t-121 -48.5z" />
    <glyph glyph-name="slash" unicode="/" horiz-adv-x="1434" 
d="M184 0l987 1638h181l-992 -1638h-176z" />
    <glyph glyph-name="zero" unicode="0" horiz-adv-x="1802" 
d="M1622 926q0 -256 -62.5 -463.5t-222.5 -339t-428 -131.5q-716 0 -716 926q0 253 63 458.5t222 336t431 130.5q273 0 431.5 -128.5t220 -332.5t61.5 -456zM909 1659q-270 0 -364 -207.5t-94 -525.5q0 -324 95.5 -537t362.5 -213q459 0 459 750q0 316 -95.5 524.5
t-363.5 208.5z" />
    <glyph glyph-name="one" unicode="1" horiz-adv-x="1802" 
d="M1069 0h-217v1602l-401 -328v246l405 315h213v-1835z" />
    <glyph glyph-name="two" unicode="2" horiz-adv-x="1802" 
d="M500 1176h-217l-2 32q-2 34 -2 66q0 213 131 389.5t512 179.5q633 0 643 -467q0 -147 -51.5 -245.5t-137.5 -163t-293 -167t-211 -104.5q-198 -99 -285 -179t-87 -226v-98h1061v-193h-1278v246q0 142 31 238.5t137 179.5q109 89 191 133t265 131.5t285 152.5
q156 103 156 267q0 151 -111 241q-87 74 -307 74q-261 0 -361 -127q-77 -97 -77 -254q0 -38 4 -75q3 -32 4 -32v1z" />
    <glyph glyph-name="three" unicode="3" horiz-adv-x="1802" 
d="M528 1294h-213q0 131 41.5 251t177.5 208.5t392 89.5q315 0 473.5 -104t161.5 -334q0 -366 -373 -418q47 -3 142 -32t189.5 -126.5t94.5 -279.5q0 -277 -156.5 -416t-539.5 -145q-644 0 -644 585h213q0 -413 431 -413q248 0 365.5 95.5t117.5 322.5q-11 166 -146 244.5
t-321 78.5h-217v180h209q403 0 413 299q0 299 -376 299q-257 0 -350 -97.5t-93 -217.5q0 -26 3 -44.5t5 -25.5z" />
    <glyph glyph-name="four" unicode="4" horiz-adv-x="1802" 
d="M1118 0v504h-1003v188l946 1143h274v-1143h336v-188h-336v-504h-217zM1118 692v930l-749 -930h749z" />
    <glyph glyph-name="five" unicode="5" horiz-adv-x="1802" 
d="M1462 1651h-897l-45 -496q30 36 133 89.5t297 53.5q70 0 156 -12q154 -21 256 -104t152.5 -214.5t50.5 -295.5q0 -323 -149.5 -501.5t-502.5 -178.5q-274 0 -415.5 98.5t-180 208t-38.5 188.5h221q0 -327 413 -331q435 0 435 516q-8 458 -443 458q-210 0 -302 -90.5
t-111 -150.5h-213l81 946h1102v-184z" />
    <glyph glyph-name="six" unicode="6" horiz-adv-x="1802" 
d="M1004 1249q279 -3 428 -170t149 -481q-4 -218 -93 -353.5t-233.5 -196t-324.5 -60.5q-290 0 -444 134.5t-203.5 341t-49.5 482.5q5 240 69 439t217 325.5t407 132.5q273 0 413.5 -92.5t178.5 -194.5t38 -172h-221q-1 7 -10 57t-47 105t-122.5 94t-225.5 39
q-264 -5 -359.5 -211.5t-95.5 -463.5q25 61 141.5 153t387.5 92zM520 614q0 -458 422 -458q410 0 410 458q0 226 -104.5 348.5t-305.5 122.5q-422 0 -422 -471z" />
    <glyph glyph-name="seven" unicode="7" horiz-adv-x="1802" 
d="M295 1835h1221v-188q-67 -67 -194.5 -250.5t-264.5 -507.5q-105 -249 -148.5 -448t-56.5 -441h-266q0 84 36 298.5t156 508.5q93 215 213 406.5t218 316.5q96 121 98 121h-1012v184z" />
    <glyph glyph-name="eight" unicode="8" horiz-adv-x="1802" 
d="M1561 1380q0 -225 -123.5 -309t-200.5 -84q28 0 118 -43.5t168.5 -145.5t78.5 -270q-6 -290 -202 -415t-487 -125q-293 0 -492.5 127.5t-199.5 412.5q0 170 80.5 273t170 144.5t114.5 41.5q-26 0 -103.5 31t-147 118.5t-69.5 243.5q6 227 176.5 345.5t470.5 121.5
q308 0 478 -117t170 -350zM1323 1380q-6 143 -114 221t-296 78q-192 0 -299 -78t-110 -221q0 -299 409 -299q182 0 296 78t114 221zM913 905q-442 -5 -442 -377q0 -171 109.5 -270t332.5 -102q216 0 327.5 100.5t111.5 271.5q0 377 -439 377z" />
    <glyph glyph-name="nine" unicode="9" horiz-adv-x="1802" 
d="M811 586q-188 1 -318.5 79t-195 223t-64.5 349q4 216 93.5 352.5t234 197t324.5 60.5q279 0 432.5 -126t208.5 -335.5t55 -496.5q-7 -381 -163.5 -635t-528.5 -262q-386 0 -506.5 159t-120.5 300h221q1 -8 12 -60t48 -104.5t121.5 -91.5t220.5 -39q259 5 361 199t102 399
q0 59 -9 77q-23 -61 -140 -153t-388 -92zM1298 1221q0 458 -421 458q-414 0 -414 -458q0 -225 106.5 -348t307.5 -123q205 0 313 122t108 349z" />
    <glyph glyph-name="colon" unicode=":" horiz-adv-x="922" 
d="M475 1311q-74 0 -119 49.5t-45 114.5q0 64 44 113.5t120 49.5q80 0 122 -48.5t42 -114.5q0 -67 -43 -115.5t-121 -48.5zM475 0q-74 0 -119 49.5t-45 114.5t44 114.5t120 49.5q80 0 122 -48.5t42 -115.5t-43 -115.5t-121 -48.5z" />
    <glyph glyph-name="semicolon" unicode=";" horiz-adv-x="827" 
d="M471 12q-3 -3 -23 -7.5t-75 -4.5q-50 9 -78.5 48t-28.5 91q0 69 41 111q48 53 131 53q92 0 140 -61q61 -82 61 -181q0 -80 -41 -200q-37 -112 -132 -160t-151 -57v114q82 0 136 86q28 48 28 111q0 57 -8 57zM438 1311q-74 0 -119 49.5t-45 114.5q0 64 44 113.5t120 49.5
q80 0 122 -48.5t42 -114.5q0 -67 -43 -115.5t-121 -48.5z" />
    <glyph glyph-name="less" unicode="&#x3c;" horiz-adv-x="1311" 
d="M1090 254l-922 553l917 561v-184l-651 -377l656 -369v-184z" />
    <glyph glyph-name="equal" unicode="=" horiz-adv-x="1642" 
d="M307 1155h1053v-192h-1053v192zM307 688h1053v-192h-1053v192z" />
    <glyph glyph-name="greater" unicode="&#x3e;" horiz-adv-x="1282" 
d="M266 455l656 368l-652 377v184l918 -561l-922 -553v185z" />
    <glyph glyph-name="question" unicode="?" horiz-adv-x="1638" 
d="M336 1118q0 -1 -1 -1q-4 0 -47 86q-48 96 -50 194q0 171 139 319q62 73 186 112.5t268 39.5q308 0 463 -156q131 -130 131 -274q0 -214 -278 -439q-92 -76 -136.5 -140t-56.5 -121.5t-12 -143.5v-168h-197v217q0 139 52.5 234.5t181.5 199.5q109 90 167 172.5t58 188.5
q-3 129 -97 200t-263 74q-167 0 -274.5 -63t-118.5 -195q0 -82 18 -133t41 -75q19 -22 22 -22v1zM848 -8q-74 0 -117 47.5t-43 112.5q0 62 41.5 108.5t114.5 46.5q76 0 118 -47.5t42 -112.5q0 -63 -42 -109t-114 -46z" />
    <glyph glyph-name="at" unicode="@" horiz-adv-x="2146" 
d="M1622 1356l-213 -639q-8 -42 -8 -58q0 -106 131 -106q104 21 186 96t128 179t46 212q0 26 -8 74q-32 178 -144 311.5t-276.5 207t-341.5 79.5q-209 0 -405 -123.5t-317 -330.5t-121 -439q23 -217 139 -372t294 -233.5t382 -78.5q201 0 393 74l65 -143q-246 -91 -503 -91
q-223 0 -434.5 93t-352.5 267t-164 398q-8 82 -8 119q0 272 145 506t398.5 372t562.5 138q204 -11 399 -106.5t321 -260.5t136 -371q0 -231 -114 -435t-304 -269q-77 -25 -151 -25q-30 0 -111 13q-116 20 -139 147q-23 -23 -45.5 -45t-59.5 -46.5t-92 -43.5
q-55 -16 -110 -16q-69 0 -119 24q-96 43 -130.5 90.5t-70.5 126.5q-28 72 -28 144q0 56 20 131q52 243 242 381q152 102 286 102q46 0 82 -12q67 -20 121.5 -77.5t67.5 -107.5l49 144h176zM1188 1241q-34 8 -62 8q-84 0 -151 -45q-123 -79 -168 -241q-33 -93 -33 -160
q0 -91 57 -172q59 -78 209 -78q98 32 164 143q45 61 78 176t33 222q-3 60 -29.5 92t-97.5 55z" />
    <glyph glyph-name="A" unicode="A" horiz-adv-x="1503" 
d="M1253 0l-184 537h-680l-168 -537h-192l598 1839h262l602 -1839h-238zM737 1593l-286 -880h569z" />
    <glyph glyph-name="B" unicode="B" horiz-adv-x="1667" 
d="M897 197q198 0 295 77q115 76 115 246q0 180 -131 287q-91 65 -312 65h-418v-675h451zM807 1053q242 0 336 69q51 39 82.5 106t31.5 136q0 161 -135 242q-82 49 -258 49h-418v-602h361zM217 0v1839h696q131 0 212 -14.5t165 -71.5q193 -129 193 -360q0 -157 -86 -266.5
t-238 -147.5v-4q172 -36 276.5 -163.5t104.5 -303.5q0 -254 -176 -389q-97 -75 -199 -97t-252 -22h-696z" />
    <glyph glyph-name="C" unicode="C" horiz-adv-x="1667" 
d="M1540 573q-65 -277 -232.5 -437.5t-447.5 -160.5q-252 0 -420.5 140.5t-248.5 362t-80 460.5q0 247 83.5 459.5t257 341.5t429.5 129q179 0 315.5 -74.5t222.5 -207.5t121 -304l-217 -41q-113 434 -451 434q-271 0 -389 -229t-118 -524q0 -270 86 -463
q60 -129 166.5 -210t242.5 -81q360 0 475 455z" />
    <glyph glyph-name="D" unicode="D" horiz-adv-x="1774" 
d="M229 1839h582q142 0 249.5 -21.5t204 -78.5t181.5 -158q221 -261 221 -655q0 -367 -192 -631q-209 -295 -590 -295h-656v1839zM795 197q177 0 298.5 50.5t204.5 182.5q132 202 132 496q0 321 -164 536q-87 108 -198 146.5t-273 38.5h-336v-1450h336z" />
    <glyph glyph-name="E" unicode="E" horiz-adv-x="1503" 
d="M1417 0h-1188v1839h1164v-197h-934v-585h741v-185h-741v-671h958v-201z" />
    <glyph glyph-name="F" unicode="F" horiz-adv-x="1286" 
d="M221 0v1839h1127v-197h-897v-585h741v-185h-741v-872h-230z" />
    <glyph glyph-name="G" unicode="G" horiz-adv-x="1774" 
d="M1610 -12h-140l-65 225q-163 -238 -512 -238q-362 0 -569 279q-197 270 -197 647q0 251 89 473t269.5 358t440.5 136t429.5 -138.5t237.5 -390.5l-217 -53q-36 173 -161 281t-302 108q-194 0 -313.5 -112.5t-169 -286t-49.5 -363.5q0 -293 102 -487q62 -117 178 -189.5
t252 -72.5q139 0 244 58t162 166t57 247v102h-458v193h692v-942z" />
    <glyph glyph-name="H" unicode="H" horiz-adv-x="1774" 
d="M1303 0v872h-857v-872h-229v1839h229v-762h857v762h229v-1839h-229z" />
    <glyph glyph-name="I" unicode="I" horiz-adv-x="700" 
d="M229 0v1839h230v-1839h-230z" />
    <glyph glyph-name="J" unicode="J" horiz-adv-x="1073" 
d="M864 602q0 -153 -18 -256t-88 -190q-138 -181 -443 -181q-137 0 -270 37v189q133 -29 238 -29q218 0 290 107q62 74 62 237v86v1237h229v-1237z" />
    <glyph glyph-name="K" unicode="K" horiz-adv-x="1667" 
d="M1430 0l-549 1016l-422 -524v-492h-230v1839h230v-1069l831 1069h250l-496 -643l644 -1196h-258z" />
    <glyph glyph-name="L" unicode="L" horiz-adv-x="1343" 
d="M1311 0h-1086v1839h230v-1634h856v-205z" />
    <glyph glyph-name="M" unicode="M" horiz-adv-x="2204" 
d="M410 0h-197v1839h344l553 -1474l549 1474h336v-1839h-230v1606h-16l-578 -1606h-155l-598 1606h-8v-1606z" />
    <glyph glyph-name="N" unicode="N" horiz-adv-x="1774" 
d="M1352 0l-938 1606v-1606h-193v1839h291l868 -1499v1499h197v-1839h-225z" />
    <glyph glyph-name="O" unicode="O" horiz-adv-x="1774" 
d="M119 909q0 241 81.5 461.5t252 359t419.5 138.5q247 0 418.5 -131.5t255.5 -344t84 -450.5q0 -239 -83 -461.5t-253.5 -364t-416.5 -141.5q-250 0 -422 132t-254 345.5t-82 456.5zM1389 930q0 307 -107 500q-146 249 -401 249q-191 0 -308.5 -117.5t-167 -295
t-49.5 -365.5q0 -171 53.5 -341t171 -283t296.5 -113q184 0 299.5 118.5t164 294t48.5 353.5z" />
    <glyph glyph-name="P" unicode="P" horiz-adv-x="1503" 
d="M172 0v1839h614q301 0 447 -123q91 -75 137.5 -189.5t46.5 -240.5q0 -237 -160 -389q-151 -147 -438 -147h-418v-750h-229zM791 938q191 0 294 98q99 93 99 250q0 192 -127 291q-90 70 -246 70h-410v-709h390z" />
    <glyph glyph-name="Q" unicode="Q" horiz-adv-x="1774" 
d="M1389 918q0 192 -45.5 361t-161 278.5t-310.5 109.5q-312 0 -430 -287q-86 -210 -86 -479q0 -294 116 -515.5t384 -221.5q198 0 317 109t167.5 278t48.5 367zM1520 -221v-180q-98 -37 -201 -37q-205 0 -322 104.5t-120 308.5q-379 10 -572.5 275.5t-193.5 658.5
q0 396 172 643q216 316 589 316q254 0 427 -134t256 -350t83 -462q0 -206 -60 -397t-188.5 -331.5t-324.5 -189.5v-41q0 -201 238 -201z" />
    <glyph glyph-name="R" unicode="R" horiz-adv-x="1667" 
d="M1298 0l-340 795h-512v-795h-229v1839h692q270 0 414 -110q197 -147 197 -406q0 -165 -91 -295t-249 -176l360 -852h-242zM881 983q111 0 182.5 19.5t132.5 82.5q94 94 94 242q0 172 -127 258q-88 57 -254 57h-463v-659h435z" />
    <glyph glyph-name="S" unicode="S" horiz-adv-x="1667" 
d="M319 541q38 -124 116 -206t188.5 -122.5t240.5 -40.5q214 0 328 86q115 89 115 242q0 224 -316 295l-307 77q-222 52 -332 148q-147 129 -147 340q0 250 182 379t444 129q235 0 407.5 -116t244.5 -335l-209 -57q-26 147 -160.5 237.5t-290.5 90.5q-148 0 -270.5 -77.5
t-122.5 -217.5q0 -139 80.5 -193.5t251.5 -101.5l278 -62q242 -65 336 -147q172 -141 172 -365q0 -260 -209 -418q-173 -131 -479 -131q-572 0 -749 525z" />
    <glyph glyph-name="T" unicode="T" horiz-adv-x="1343" 
d="M553 0v1638h-524v201h1278v-201h-525v-1638h-229z" />
    <glyph glyph-name="U" unicode="U" horiz-adv-x="1716" 
d="M1487 1839v-1163q0 -164 -25.5 -282t-105.5 -214q-167 -205 -500 -205q-334 0 -496 172q-88 106 -115.5 230.5t-27.5 298.5v1163h229v-1163q0 -251 74 -357q94 -139 352 -139q232 0 332 127q61 73 75.5 156.5t14.5 212.5v1163h193z" />
    <glyph glyph-name="V" unicode="V" horiz-adv-x="1503" 
d="M868 0h-221l-622 1839h245l508 -1515l512 1515h201z" />
    <glyph glyph-name="W" unicode="W" horiz-adv-x="2204" 
d="M1737 0h-234l-397 1425l-377 -1425h-229l-471 1839h233l373 -1491h4l389 1491h184l418 -1491h4l344 1491h201z" />
    <glyph glyph-name="X" unicode="X" horiz-adv-x="1450" 
d="M860 995l590 -995h-266l-463 782l-483 -782h-213l589 954l-524 885h254l406 -680l413 680h213z" />
    <glyph glyph-name="Y" unicode="Y" horiz-adv-x="1503" 
d="M872 774v-774h-229v774l-614 1065h270l487 -848l496 848h209z" />
    <glyph glyph-name="Z" unicode="Z" horiz-adv-x="1450" 
d="M1348 0h-1303v201l1004 1446h-959v192h1225v-151l-1012 -1487h1045v-201z" />
    <glyph glyph-name="bracketleft" unicode="[" horiz-adv-x="807" 
d="M176 -459v2298h475v-135h-295v-2019h295v-144h-475z" />
    <glyph glyph-name="backslash" unicode="\" horiz-adv-x="1397" 
d="M1163 0l-1114 1839h184l1110 -1839h-180z" />
    <glyph glyph-name="bracketright" unicode="]" horiz-adv-x="807" 
d="M176 -459v144h291v2019h-291v135h475v-2298h-475z" />
    <glyph glyph-name="asciicircum" unicode="^" horiz-adv-x="1610" 
d="M745 1839h119l471 -1143h-164l-364 889l-369 -889h-155z" />
    <glyph glyph-name="underscore" unicode="_" horiz-adv-x="1343" 
d="M1266 -340h-1204v164h1204v-164z" />
    <glyph glyph-name="grave" unicode="`" horiz-adv-x="1020" 
d="M184 1745l95 176l540 -319l-57 -107z" />
    <glyph glyph-name="a" unicode="a" horiz-adv-x="1450" 
d="M1098 684h-172q-549 0 -549 -307q0 -117 85 -179.5t206 -62.5q126 0 223.5 64t152 171t54.5 228v86zM1098 844v57q0 180 -80 258t-264 78q-325 0 -373 -246l-197 37q26 192 197 280.5t389 88.5q305 0 422 -131q73 -80 92 -185t19 -262v-532q0 -184 32 -287h-209l-28 254
q-136 -279 -475 -279q-204 0 -340 109.5t-136 304.5q0 119 70 223t184 154q160 78 525 78h172z" />
    <glyph glyph-name="b" unicode="b" horiz-adv-x="1450" 
d="M377 569q7 -161 74 -270q54 -72 135 -116t164 -44q189 0 272.5 158.5t83.5 366.5q0 223 -81 396t-275 173q-103 0 -188 -60.5t-134.5 -159t-50.5 -198.5v-246zM270 0h-102v1839h209v-700h12q133 258 397 258q124 0 235 -60t183 -161q131 -198 131 -476q0 -182 -61 -349
t-190 -271.5t-318 -104.5q-133 0 -244 70.5t-178 187.5z" />
    <glyph glyph-name="c" unicode="c" horiz-adv-x="1286" 
d="M1196 451q-23 -137 -92.5 -246t-180.5 -169.5t-255 -60.5q-285 0 -431.5 205.5t-146.5 499.5q0 293 150 505t432 212q216 0 353 -129t171 -342l-192 -37q-16 143 -102 237.5t-226 94.5q-190 0 -275.5 -159t-85.5 -366q0 -210 79.5 -377t269.5 -167q273 0 340 335z" />
    <glyph glyph-name="d" unicode="d" horiz-adv-x="1450" 
d="M1061 811q0 168 -74 266q-44 74 -127 115t-176 41q-174 0 -274 -172q-82 -133 -82 -352q0 -220 78.5 -391t269.5 -171q193 0 303 164q82 114 82 283v217zM1061 1839h209v-1839h-193v242h-4q-133 -267 -426 -267q-260 0 -418 230q-127 188 -127 475t144.5 502t417.5 215
q239 0 397 -217v659z" />
    <glyph glyph-name="e" unicode="e" horiz-adv-x="1450" 
d="M1303 377q-60 -186 -220 -294t-358 -108q-297 0 -462 202.5t-165 502.5q0 145 42.5 273.5t124 228.5t199 157.5t265.5 57.5q150 0 264 -56t185.5 -154t108 -230.5t36.5 -292.5h-987q0 -197 57 -308q47 -96 144 -152.5t204 -56.5q131 0 226.5 71t138.5 196zM1094 823
q0 179 -95.5 296.5t-269.5 117.5q-163 0 -271 -123.5t-114 -290.5h750z" />
    <glyph glyph-name="f" unicode="f" horiz-adv-x="807" 
d="M791 1196h-316v-1196h-205v1196h-245v168h245q0 159 38.5 270t130.5 172.5t245 61.5l188 -21v-168q-86 21 -167 21q-153 0 -191.5 -84t-38.5 -252h316v-168z" />
    <glyph glyph-name="g" unicode="g" horiz-adv-x="1343" 
d="M1233 1577l53 -4v-172h-20q-110 0 -166.5 -28t-71.5 -124q131 -151 131 -336q0 -203 -176 -344q-151 -102 -348 -102q-66 0 -94 8q-10 0 -42.5 8.5t-47.5 8.5q-50 0 -97 -41t-47 -91q0 -87 103 -114q38 -9 93.5 -13t125.5 -5q69 -2 100 -3q301 -10 401 -45
q96 -39 152.5 -120t56.5 -183q0 -393 -675 -393q-259 0 -402 57q-229 86 -229 295q0 206 205 279q-132 95 -132 213q0 94 48 149t141 96q-176 139 -176 361q0 214 152 338.5t372 124.5q152 0 275 -58q26 139 97.5 188.5t217.5 49.5zM946 934q0 128 -88 213.5t-215 85.5
q-134 0 -220.5 -84.5t-86.5 -214.5q0 -141 83 -222t224 -81q135 0 219 83t84 220zM717 33l-328 24q-151 -75 -151 -188q0 -123 137.5 -172t292.5 -49q227 0 352 57q119 59 119 164q0 149 -291 160z" />
    <glyph glyph-name="h" unicode="h" horiz-adv-x="1450" 
d="M1053 0v791q0 192 -29 274q-30 76 -95.5 120t-150.5 44q-157 0 -274 -148q-107 -130 -107 -381v-700h-209v1839h209v-729h9q134 287 425 287q111 0 205 -50.5t152 -142.5q74 -116 74 -315v-98v-791h-209z" />
    <glyph glyph-name="i" unicode="i" horiz-adv-x="643" 
d="M426 0h-209v1364h209v-1364zM438 1606h-229v233h229v-233z" />
    <glyph glyph-name="j" unicode="j" horiz-adv-x="594" 
d="M385 -25q0 -220 -70 -315q-102 -143 -319 -143q-85 0 -201 28v168q66 -20 156 -20q139 0 182 67.5t43 214.5v1389h209v-1389zM397 1606h-229v233h229v-233z" />
    <glyph glyph-name="k" unicode="k" horiz-adv-x="1343" 
d="M1098 0l-398 758l-290 -336v-422h-209v1839h209v-1175l630 696h226l-426 -479l479 -881h-221z" />
    <glyph glyph-name="l" unicode="l" horiz-adv-x="643" 
d="M217 0v1839h209v-1839h-209z" />
    <glyph glyph-name="m" unicode="m" horiz-adv-x="2204" 
d="M377 1364v-266h4q52 132 160.5 215.5t244.5 83.5q147 0 251 -88.5t134 -235.5q57 147 172 235.5t267 88.5q105 0 198 -53.5t146 -143.5q65 -110 65 -385v-815h-209v815q0 184 -36 270q-84 144 -234 144q-152 0 -258 -156q-52 -73 -65 -144.5t-13 -191.5v-737h-209v864
q0 150 -45 230q-81 135 -229 135q-137 0 -246 -139q-82 -102 -82 -312v-778h-209v1364h193z" />
    <glyph glyph-name="n" unicode="n" horiz-adv-x="1450" 
d="M385 1110h4q60 131 172.5 209t253.5 78q251 0 385 -213q66 -115 66 -430v-754h-209v844q0 184 -37 250q-34 56 -100.5 89.5t-137.5 33.5q-169 0 -278 -136q-107 -126 -107 -364v-717h-213v1364h201v-254z" />
    <glyph glyph-name="o" unicode="o" horiz-adv-x="1450" 
d="M106 696q0 190 73 350.5t214.5 255.5t339.5 95q193 0 327 -99t200.5 -261t66.5 -349q0 -303 -166 -508t-461 -205q-195 0 -329 101t-199.5 264.5t-65.5 355.5zM1032 344q66 133 66 352q0 229 -82 369q-117 164 -299 164q-100 0 -181.5 -52.5t-125.5 -140.5
q-70 -132 -70 -340q0 -242 78 -377q43 -79 125 -125.5t174 -46.5q211 0 315 197z" />
    <glyph glyph-name="p" unicode="p" horiz-adv-x="1450" 
d="M418 532q0 -145 108 -265t252 -120q83 0 158.5 47t120.5 121q73 120 73 369q0 212 -80 370t-272 158q-132 0 -230.5 -98t-129.5 -233v-349zM418 -446h-209v1810h192v-266h5q54 142 162.5 220.5t258.5 78.5q177 0 300 -103.5t182 -264.5t59 -333q0 -283 -111 -467
q-158 -254 -430 -254q-262 0 -409 238v-659z" />
    <glyph glyph-name="q" unicode="q" horiz-adv-x="1450" 
d="M1057 758q0 232 -115 352q-107 123 -246 123q-128 0 -209.5 -87t-116 -212.5t-34.5 -249.5q0 -206 84.5 -369t275.5 -163q193 0 295 204q66 121 66 287v115zM1159 1364h107v-1810h-209v700h-8q-116 -279 -406 -279q-272 0 -404.5 211.5t-132.5 493.5q0 177 60 342.5
t186 270t307 104.5q151 0 243.5 -60.5t174.5 -193.5z" />
    <glyph glyph-name="r" unicode="r" horiz-adv-x="860" 
d="M381 1364v-320h8q117 357 397 357l78 -4v-205h-41q-227 0 -356 -213q-66 -122 -66 -295v-684h-208v1364h188z" />
    <glyph glyph-name="s" unicode="s" horiz-adv-x="1397" 
d="M311 401q21 -126 145 -190t265 -64q129 0 230.5 55.5t101.5 174.5q0 96 -76 138.5t-191 62.5l-225 45q-397 68 -397 372q0 199 150.5 300.5t357.5 101.5q128 0 239 -34t190 -110t111 -196l-192 -41q-37 106 -132 161.5t-220 55.5q-108 0 -197.5 -50.5t-89.5 -150.5
t62.5 -139.5t183.5 -61.5l196 -36q199 -33 283 -90q168 -117 168 -308q0 -214 -169.5 -318t-395.5 -104q-220 0 -385.5 95.5t-217.5 289.5z" />
    <glyph glyph-name="t" unicode="t" horiz-adv-x="860" 
d="M840 -12l-205 -13q-213 0 -299 113t-86 330v786h-242v172h242v336l209 21v-357h303v-172h-303v-819q0 -127 47.5 -186.5t169.5 -59.5l164 17v-168z" />
    <glyph glyph-name="u" unicode="u" horiz-adv-x="1450" 
d="M1065 0v274h-4q-54 -134 -167 -216.5t-251 -82.5q-226 0 -348 152q-111 131 -111 405v832h213v-832q0 -173 41 -245q76 -131 221 -131q163 0 283 139q107 127 107 344v725h208v-1364h-192z" />
    <glyph glyph-name="v" unicode="v" horiz-adv-x="1180" 
d="M717 0h-217l-488 1364h230l385 -1110l368 1110h189z" />
    <glyph glyph-name="w" unicode="w" horiz-adv-x="1774" 
d="M1348 0h-172l-304 1016l-278 -1016h-176l-406 1364h209l299 -1020l283 1020h151l308 -1020l307 1020h168z" />
    <glyph glyph-name="x" unicode="x" horiz-adv-x="1180" 
d="M930 0l-348 553l-353 -553h-209l463 709l-413 655h241l291 -471l295 471h205l-393 -614l467 -750h-246z" />
    <glyph glyph-name="y" unicode="y" horiz-adv-x="1130" 
d="M606 -127q-63 -174 -139 -254q-58 -61 -119.5 -83.5t-154.5 -22.5q-67 0 -160 28v164q98 -16 143 -16q139 0 191.5 77.5t115.5 258.5l-475 1339h217l369 -1028l369 1028h180z" />
    <glyph glyph-name="z" unicode="z" horiz-adv-x="1130" 
d="M1077 1249l-749 -1085h749v-164h-1003v164l721 1032h-668v168h950v-115z" />
    <glyph glyph-name="braceleft" unicode="{" horiz-adv-x="807" 
d="M90 786q129 27 171 109t42 248l-4 422q0 120 77.5 205.5t143.5 89.5l197 8v-164l-119 -8q-56 -6 -77 -44.5t-21 -119.5l4 -434q0 -166 -71.5 -263t-125.5 -126q15 -14 66.5 -65t91 -133.5t39.5 -203.5l-4 -434q0 -78 21.5 -116t76.5 -44l119 -16v-156l-197 8
q-69 6 -145 91t-76 208l4 414q0 169 -42.5 254t-170.5 107v163z" />
    <glyph glyph-name="bar" unicode="|" horiz-adv-x="700" 
d="M430 0h-160v1839h160v-1839z" />
    <glyph glyph-name="braceright" unicode="}" horiz-adv-x="807" 
d="M717 623q-130 -23 -171.5 -107.5t-41.5 -253.5v-414q0 -123 -75 -208t-142 -91l-197 -8v156l119 16q56 6 75 43.5t19 116.5v434q0 117 38.5 202.5t76.5 125t82 74.5q-53 23 -125 122.5t-72 266.5v434q0 82 -18.5 120t-75.5 44l-119 8v164l197 -8q64 -4 140.5 -89.5
t76.5 -205.5v-422q0 -166 41.5 -248t171.5 -109v-163z" />
    <glyph glyph-name="asciitilde" unicode="~" horiz-adv-x="1610" 
d="M147 565q13 191 103 312q94 114 221 114q83 0 160 -45l397 -213q54 -33 102 -33q60 0 103 41q41 58 41 189h180q0 -175 -90 -291q-84 -115 -221 -115q-106 0 -242 74l-323 176q-58 33 -103 33q-68 0 -105.5 -69t-37.5 -173h-185z" />
    <glyph glyph-name="DEL" 
d="M-1229 2040h1229v-2040h-1229v2040z" />
    <glyph glyph-name="glyph99" horiz-adv-x="1561" 
d="M1303 950v-725q0 -113 -86 -184q-61 -49 -185 -49t-188 53q-69 56 -86 188l-45 271q-15 -6 -53 -15.5t-87 -9.5q-97 0 -163 41q-115 64 -115 221q0 77 37 144q82 127 246 127q50 0 98 -13q167 -43 196 -266l66 -463q12 -114 98 -114q46 0 60 20.5t14 77.5v659
q0 124 -92 178t-334 72q-53 4 -143 4q-49 0 -123 -2t-99 -2q-116 0 -131 54q-8 40 -8 57q0 113 93 216.5t235 135.5q107 21 164 21q98 0 238.5 -37.5t207.5 -40.5q63 0 107 27.5t61 45.5l86 -155q-17 -18 -74 -46t-155 -28q-88 2 -245 36t-271 34q-104 0 -173 -44.5
t-69 -115.5q0 -12 33 -12q12 0 76 4t116 4q178 0 389 -49q169 -43 236.5 -114.5t67.5 -205.5zM573 877q-62 0 -94.5 -39t-32.5 -93q0 -53 33.5 -92t93.5 -39t96 39t36 92q0 54 -35 93t-97 39z" />
    <glyph glyph-name="glyph100" 
d="M-627 1929h-1114v185q0 181 141 283t367 102q205 0 341 -56.5t200.5 -154t64.5 -220.5v-139zM-819 2130q0 70 -96 142t-297 75q-151 0 -243.5 -51t-92.5 -158v-57h729v49z" />
    <glyph glyph-name="glyph101" 
d="M-819 2419v268h192v-758h-1114v185q0 166 130.5 275.5t377.5 109.5q186 -3 302 -40q105 -33 112 -40zM-819 2081q0 75 -14 107.5t-82 83.5q-96 72 -297 75q-151 0 -243 -51q-57 -31 -75 -74t-18 -141h729z" />
    <glyph glyph-name="glyph102" 
d="M-664 1929h-1118v185q0 160 124 267t331 113q62 0 114.5 -3.5t80.5 -7.5q23 -4 23 -5h-1q1 22 19.5 67.5t70.5 88.5q77 65 193 65q117 0 188 -65q90 -80 90 -201q0 -69 -33 -127q-41 -75 -114 -106l9.5 -40t14.5 -75q8 -78 8 -156zM-1290 2347q-299 -6 -299 -209v-57h729
q-28 67 -129 166.5t-301 99.5zM-831 2548q-57 0 -88 -35t-31 -84q0 -51 32 -87t91 -36q55 0 86.5 34.5t31.5 84.5t-31.5 86.5t-90.5 36.5z" />
    <glyph glyph-name="glyph103" 
d="M-1094 2490v197h172v-229q31 -16 62 -32.5t61 -33.5v295h172v-758h-1114v185q0 124 76.5 222.5t210.5 133.5q112 33 219 33q75 0 141 -13zM-819 2081q0 75 -14 107.5t-82 83.5q-96 72 -297 75q-151 0 -243 -51q-57 -31 -75 -74t-18 -141h729z" />
    <glyph glyph-name="uni2026" unicode="&#x2026;" horiz-adv-x="1585" 
d="M836 0q-74 0 -119 48.5t-45 115.5q0 66 44 115t120 49q79 0 121 -48.5t42 -115.5t-43 -115.5t-120 -48.5zM315 0q-75 0 -119 48.5t-44 115.5q0 66 43 115t120 49q80 0 122 -48.5t42 -115.5t-43 -115.5t-121 -48.5zM1356 0q-74 0 -119 48.5t-45 115.5q0 66 44 115t120 49
q79 0 121.5 -48t42.5 -116t-43.5 -116t-120.5 -48z" />
    <glyph glyph-name="glyph105" 
d="M-885 1958v704h193v-704h-193z" />
    <glyph glyph-name="glyph106" 
d="M-1217 2171q-147 0 -221 74q-57 57 -57 163q0 105 65 177q73 77 189 77q152 0 217 -98q49 -70 49 -164q0 -100 -50 -197t-77 -110q209 0 332 70q197 121 197 385h155q0 -217 -119 -381q-135 -181 -426 -205q-77 -8 -217 -8q-82 0 -143 3t-86 5v111q65 0 111 20
q55 24 81 78zM-1237 2527q-56 0 -85.5 -33.5t-29.5 -80.5q0 -48 29.5 -81.5t85.5 -33.5q54 0 84.5 33.5t30.5 81.5q0 46 -30.5 80t-84.5 34z" />
    <glyph glyph-name="glyph107" 
d="M-1442 2339q11 5 51 12.5t113 7.5q71 -12 118 -71t50 -138q0 -63 -37 -122q-58 -99 -180 -99q-117 0 -197 86q-65 71 -65 238q0 243 155 315q49 25 111 25q48 0 87.5 -17t67.5 -39q25 -20 25 -22q11 22 52 52t112 30q106 -5 151.5 -87.5t45.5 -191.5q0 -81 -16 -155
q-15 -64 -17 -64v2q84 56 102 111q33 123 33 323q3 93 26 154q19 50 22 50q1 0 1 -3h152q-10 -7 -28.5 -36.5t-29.5 -94.5q-11 -58 -12 -172q-2 -115 -9.5 -179.5t-43.5 -131.5q-93 -176 -418 -176q57 114 74 184q24 98 24 172q0 147 -73 164q-57 0 -100.5 -35.5
t-43.5 -46.5q-20 22 -68 54t-108 32q-17 0 -49 -8q-43 -12 -59.5 -54.5t-18.5 -68.5zM-1335 2253q-50 0 -78.5 -30.5t-28.5 -72.5q0 -43 28.5 -74.5t78.5 -31.5q49 0 75.5 31t26.5 75q0 42 -26.5 72.5t-75.5 30.5z" />
    <glyph glyph-name="glyph108" 
d="M-885 2273v-315h-192v315h-344v148h344v315h192v-315h340v-148h-340z" />
    <glyph glyph-name="glyph109" 
d="M-745 2421q19 -13 48 -61.5t29 -147.5q-26 -250 -311 -250q-125 9 -195.5 88t-70.5 186q0 55 16 99q39 114 123 153t244.5 57.5t238.5 43.5q88 29 120 78.5t32 72.5l131 -155q-8 -24 -44.5 -65.5t-115.5 -61.5q-166 -37 -245 -37zM-950 2367q-65 0 -100 -40t-35 -95
q0 -52 35.5 -91.5t95.5 -39.5q63 0 99 40.5t36 94.5t-34.5 92.5t-96.5 38.5z" />
    <glyph glyph-name="uni0E48" unicode="&#xe48;" 
d="M-438 1958v704h192v-704h-192z" />
    <glyph glyph-name="uni0E49" unicode="&#xe49;" 
d="M-578 2163q-147 0 -221 73q-57 59 -57 164q0 106 65 176q72 78 189 78q151 0 217 -98q49 -70 49 -164q0 -100 -50 -197t-77 -110q209 0 332 69q197 122 197 386h155q0 -218 -119 -381q-135 -181 -426 -205q-77 -8 -217 -8q-82 0 -143 3t-86 5v110q65 0 111 21
q55 24 81 78zM-598 2519q-56 0 -85.5 -33.5t-29.5 -81.5q0 -47 29.5 -80.5t85.5 -33.5q54 0 84.5 33.5t30.5 80.5t-30.5 81t-84.5 34z" />
    <glyph glyph-name="uni0E4A" unicode="&#xe4a;" 
d="M-901 2347q11 5 51 12.5t113 7.5q71 -12 118 -71t50 -137q0 -60 -37 -123q-58 -99 -180 -99q-117 0 -197 86q-66 72 -66 238q0 243 156 315q49 25 111 25q47 0 86 -16.5t68 -38.5q26 -21 26 -23q11 22 52 52t112 30q106 -5 151 -87t45 -191q0 -77 -16 -154
q-14 -66 -16 -66v2q9 5 29.5 18.5t41.5 36.5t31 56q33 123 33 324q3 93 26 153q19 49 22 49q1 0 1 -2h151q-10 -7 -28.5 -37t-28.5 -94q-12 -64 -13 -177q-2 -114 -9.5 -178t-42.5 -128q-93 -176 -418 -176q57 114 73 184q25 94 25 172q0 148 -74 164q-58 0 -100.5 -34.5
t-42.5 -47.5q-20 22 -68 54t-108 32q-17 0 -49 -8q-43 -12 -59.5 -54.5t-18.5 -68.5zM-795 2261q-49 0 -77.5 -30.5t-28.5 -71.5q0 -44 28.5 -75.5t77.5 -31.5q50 0 76.5 31t26.5 76q0 41 -26.5 71.5t-76.5 30.5z" />
    <glyph glyph-name="uni0E4B" unicode="&#xe4b;" 
d="M-209 2273v-315h-192v315h-344v148h344v315h192v-315h340v-148h-340z" />
    <glyph glyph-name="uni0E4C" unicode="&#xe4c;" 
d="M-336 2421q20 -13 49 -61.5t29 -147.5q-26 -250 -311 -250q-126 9 -196.5 88t-70.5 186q0 52 17 99q39 114 123 153t243.5 57.5t239.5 43.5q90 29 121 78.5t31 72.5l131 -155q-8 -24 -44.5 -65.5t-115.5 -61.5q-166 -37 -246 -37zM-541 2367q-65 0 -100 -40t-35 -95
q0 -52 35.5 -91.5t95.5 -39.5q63 0 99 40.5t36 94.5t-34.5 92.5t-96.5 38.5z" />
    <glyph glyph-name="glyph115" horiz-adv-x="2249" 
d="M1192 319v938q0 123 -85.5 176.5t-279.5 53.5q-393 0 -393 -197v-57h242v-139q-76 0 -152 -95q-45 -61 -45 -163v-316l32 6q34 6 67 6q55 0 110 -16q77 -27 122.5 -96.5t45.5 -157.5q0 -54 -16 -98q-31 -91 -103 -133.5t-159 -42.5q-63 0 -107 16q-184 68 -184 287v524
q0 98 45 172q40 60 80 83.5t59 27.5h-229v180q0 187 163 278t414 91q565 0 565 -353v-975q0 -73 17 -110q23 -57 106 -57h205q71 0 98 45q25 45 25 122v1319h193v-1323q0 -155 -50 -229q-62 -86 -184 -86h-360q-132 0 -197 94q-45 70 -45 225zM578 131q60 0 95.5 39t35.5 92
q0 54 -34.5 92.5t-96.5 38.5t-94.5 -38t-32.5 -93q0 -53 33.5 -92t93.5 -39z" />
    <glyph glyph-name="uni2018" unicode="&#x2018;" horiz-adv-x="745" 
d="M356 1634q34 8 54 8q69 0 135 -53q57 -51 57 -143q0 -61 -28.5 -112.5t-77.5 -71.5q-51 -21 -107 -21q-122 0 -180 98q-33 59 -33 156q0 210 123 352q106 118 258 148v-111q-74 -16 -147 -106q-54 -65 -54 -144z" />
    <glyph glyph-name="uni2019" unicode="&#x2019;" horiz-adv-x="774" 
d="M410 1626q-34 -8 -54 -8q-69 0 -135 53q-57 51 -57 144q0 139 106 184q51 20 111 20q128 0 184 -98q33 -64 33 -147q0 -210 -131 -361q-106 -118 -258 -147v110q74 16 147 107q54 64 54 143z" />
    <glyph glyph-name="uni201C" unicode="&#x201c;" horiz-adv-x="1438" 
d="M1028 1626q32 8 53 8q70 0 136 -53q57 -52 57 -143q0 -141 -107 -185q-51 -20 -110 -20q-127 0 -185 98q-32 66 -32 148q0 209 131 360q104 118 258 148v-111q-73 -16 -148 -107q-53 -62 -53 -143zM389 1634q34 8 53 8q70 0 136 -53q57 -52 57 -143q0 -141 -107 -184
q-51 -21 -106 -21q-124 0 -180 98q-33 59 -33 156q0 210 123 352q104 118 258 148v-111q-73 -16 -148 -106q-53 -64 -53 -144z" />
    <glyph glyph-name="uni201D" unicode="&#x201d;" horiz-adv-x="1438" 
d="M479 1626q-32 -8 -53 -8q-69 0 -135 53q-58 52 -58 144q0 140 107 184q51 20 111 20q126 0 184 -98q33 -68 33 -147q0 -208 -131 -361q-106 -118 -258 -147v110q74 17 147 107q53 62 53 143zM1118 1618q-32 -8 -53 -8q-69 0 -135 53q-58 52 -58 143q0 141 107 185
q51 20 106 20q123 0 181 -98q32 -60 32 -156q0 -209 -122 -352q-106 -118 -258 -148v111q74 17 147 107q53 62 53 143z" />
    <glyph glyph-name="uni2022" unicode="&#x2022;" horiz-adv-x="1614" 
d="M815 332q-232 0 -361.5 146.5t-129.5 344.5q0 126 56 239.5t167 183t268 69.5t268 -69t167.5 -182.5t56.5 -240.5t-56.5 -240t-167.5 -182t-268 -69z" />
    <glyph glyph-name="uni2013" unicode="&#x2013;" horiz-adv-x="1868" 
d="M270 725v193h1336v-193h-1336z" />
    <glyph glyph-name="uni2014" unicode="&#x2014;" horiz-adv-x="2294" 
d="M270 725v193h1737v-193h-1737z" />
    <glyph glyph-name="glyph123" 
d="M-512 2273q92 64 120.5 129.5t35.5 177.5h213q0 -102 -92.5 -277.5t-399.5 -250.5q-174 -37 -319 -37q-287 0 -414 111q-82 70 -82 192q0 83 43 152.5t121 97.5q46 21 115 21q91 0 163 -51.5t95 -141.5q8 -48 8 -69q0 -60 -18.5 -96t-30.5 -48q153 0 258.5 18t183.5 72z
M-1176 2454q-58 0 -90 -36.5t-32 -86.5q0 -55 32.5 -93t94.5 -38q58 0 90 36t32 86q0 54 -32.5 93t-94.5 39z" />
    <glyph glyph-name="glyph124" 
d="M-913 1917q-141 0 -222.5 90t-81.5 213t81 213t223 90t220.5 -89.5t78.5 -213.5q0 -123 -78.5 -213t-220.5 -90zM-913 2359q-67 0 -105.5 -41t-38.5 -98q0 -60 38.5 -101.5t105.5 -41.5q68 0 103.5 41t35.5 102q0 58 -36 98.5t-103 40.5z" />
    <glyph glyph-name="glyph125" 
d="M-1044 2114q-29 50 -29 114q0 58 20 99q64 135 222 135q75 0 147 -45q98 -67 98 -201q0 -143 -106 -213q-84 -57 -217 -57q-125 0 -230 41q-51 21 -111.5 66t-76.5 65l-172 -164h-225v246q0 215 82 323q89 115 219 145.5t350 30.5q131 0 220 22t135 52t61.5 54.5
t17.5 27.5l123 -123q0 -1 -26.5 -32.5t-73.5 -64.5t-117 -55q-100 -28 -258 -28h-160q-205 0 -303 -66q-90 -58 -90 -254q0 -46 8 -110l221 200q20 -39 127 -135q57 -49 144 -73zM-831 2339q-56 0 -85.5 -34t-29.5 -81t30.5 -81t84.5 -34q51 0 82.5 34.5t31.5 80.5
t-30.5 80.5t-83.5 34.5z" />
    <glyph glyph-name="glyph126" 
d="M-836 2826v484h193v-484h-193z" />
    <glyph glyph-name="glyph127" 
d="M-856 2929q-131 0 -193 61q-49 51 -49 139t58 152q59 65 163 65q130 0 185 -81q41 -67 41 -140q0 -87 -43.5 -170t-63.5 -92q176 0 283 57q164 99 164 332h135q0 -184 -103 -327q-111 -157 -360 -177q-132 -8 -188 -8q-72 0 -124 3t-73 5v95q58 0 98 20q48 20 70 66z
M-877 3236q-47 0 -72.5 -28.5t-25.5 -69.5q0 -103 98 -103q99 0 99 103q0 41 -25.5 69.5t-73.5 28.5z" />
    <glyph glyph-name="glyph128" 
d="M-1130 3092q10 4 42 10.5t101 6.5q62 -9 102.5 -61.5t40.5 -118.5q0 -57 -28 -103q-47 -86 -160 -86q-105 0 -172 74q-58 65 -58 205q0 208 136 270q42 21 94 21q63 0 104 -24.5t56 -41.5q0 12 38 39t101 27q90 -3 129 -73.5t39 -160.5q0 -69 -14 -132q-13 -57 -15 -57v1
q76 38 90 94q29 123 29 278q0 80 14 120.5t23 51.5h127q-9 -5 -25 -28.5t-24 -81.5q-8 -52 -9 -148q-1 -97 -7.5 -153.5t-37.5 -112.5q-82 -151 -352 -151l26.5 58t34.5 97q17 59 17 148q0 129 -62 139q-47 0 -78.5 -26t-43.5 -44q-16 20 -56 49t-92 29q-17 0 -41 -8
q-36 -10 -51 -47t-18 -60zM-1040 3019q-90 0 -90 -90t90 -90q41 0 65.5 26.5t24.5 63.5q0 36 -24.5 63t-65.5 27z" />
    <glyph glyph-name="glyph129" 
d="M-647 2970v-213h-193v213h-286v147h286v213h193v-213h287v-147h-287z" />
    <glyph glyph-name="glyph130" 
d="M-569 3002q19 -12 48 -56.5t29 -139.5q-9 -113 -86 -175.5t-213 -62.5q-119 6 -184 83.5t-65 182.5q0 44 12 86q35 108 116.5 146.5t237.5 57t223 38.5q81 24 110.5 72t29.5 71l127 -147q-8 -22 -42.5 -61t-113.5 -58q-190 -37 -229 -37zM-762 2953q-62 0 -94.5 -38
t-32.5 -93q0 -50 32.5 -86.5t90.5 -36.5q60 0 93.5 39t33.5 92q0 51 -32 87t-91 36z" />
    <glyph glyph-name="glyph131" horiz-adv-x="422" 
 />
    <glyph glyph-name="uni0E01" unicode="&#xe01;" horiz-adv-x="1688" 
d="M504 0h-193v815q0 98 45 172q39 59 80 83t60 28h-230v180q0 187 167 278t419 91q598 0 598 -353v-1294h-193v1257q0 128 -96.5 179t-300.5 51q-401 0 -401 -197v-57h241v-139q-77 0 -151 -95q-45 -61 -45 -163v-836z" />
    <glyph glyph-name="uni0E02" unicode="&#xe02;" horiz-adv-x="1487" 
d="M295 1032q-168 70 -168 258q0 102 45 176q84 119 192 150t242 31q162 -9 261.5 -114t99.5 -284q-5 -133 -59 -215t-203 -231q-80 -80 -114 -133.5t-34 -132.5v-234q0 -99 25 -119q49 -32 127 -32h241q74 0 103 32q20 25 20 123v1331h193v-1388q0 -115 -49 -180
q-53 -70 -164 -70h-475q-106 0 -168 74q-45 49 -45 192v271q0 84 18 140.5t72 121.5q44 53 140 142t141 160.5t46 172.5q0 92 -55.5 148.5t-116.5 56.5q21 -14 51.5 -60t30.5 -129q0 -36 -12 -86q-23 -89 -99 -140.5t-171 -51.5q-69 0 -115 20zM410 1421q-62 0 -94.5 -38
t-32.5 -93q0 -53 33.5 -92t93.5 -39t95.5 39t35.5 92q0 54 -34.5 92.5t-96.5 38.5z" />
    <glyph glyph-name="uni0E03" unicode="&#xe03;" horiz-adv-x="1516" 
d="M1311 1638v-1388q0 -115 -49 -180q-53 -70 -164 -70h-475q-106 0 -168 74q-45 49 -45 192v271q0 88 17.5 146t72.5 116q35 36 131.5 128t138.5 149t66 141q16 48 16 114q0 103 -37 103q-22 0 -62 -53.5t-40 -65.5q0 12 -34 60t-73 75q-59 41 -164 41q33 0 97.5 -48
t74.5 -165q0 -289 -237 -303q-115 0 -186.5 84.5t-71.5 247.5q12 137 107 237t229 103q84 0 137.5 -22t79.5 -46.5t37 -34.5q2 0 29 28.5t62 49t77 20.5q76 -6 115.5 -88t39.5 -202q0 -41 -8 -107q-16 -101 -45 -165.5t-79 -123t-150 -153.5q-78 -71 -113 -128.5t-35 -137.5
v-234q0 -99 25 -119q49 -32 127 -32h241q74 0 103 32q20 25 20 123v1331h193zM369 1364q-50 0 -78.5 -38.5t-28.5 -88.5q0 -53 28 -90t79 -37q53 0 81.5 36.5t28.5 90.5q0 51 -29 89t-81 38z" />
    <glyph glyph-name="uni0E04" unicode="&#xe04;" horiz-adv-x="1757" 
d="M479 0h-209v1294q0 186 174.5 269.5t448.5 83.5q627 0 627 -353v-1294h-193v1257q0 133 -105.5 181.5t-324.5 48.5q-430 0 -430 -230v-548l-12 -123l94 245q34 88 64 148t101.5 121.5t178.5 66.5q127 0 208.5 -63t90.5 -174q0 -164 -80 -246t-194 -82q-136 0 -222 90
q-6 -13 -46 -101t-81 -226q-45 -159 -64.5 -244.5t-25.5 -120.5zM909 1008q-59 0 -91 -36.5t-32 -86.5q0 -51 32 -87t91 -36t91 36t32 87q0 50 -31.5 86.5t-91.5 36.5z" />
    <glyph glyph-name="uni0E05" unicode="&#xe05;" horiz-adv-x="1774" 
d="M467 586l94 245q34 88 63.5 147.5t101.5 121.5t179 67q127 0 208.5 -63t90.5 -174q0 -164 -80 -246t-194 -82q-137 0 -221 90q-6 -13 -44 -94t-83 -233q-35 -119 -59.5 -224.5t-30.5 -140.5h-209v1270q0 157 123 270q122 107 282 107l213 -172l225 172q41 -2 125 -24.5
t158 -86.5q123 -105 123 -270v-1266h-193v1257q0 94 -45 144q-64 69 -127 69l-266 -200l-258 192q-65 0 -123 -57q-45 -49 -45 -152v-565zM922 1008q-59 0 -91 -36.5t-32 -86.5q0 -51 32 -87t91 -36t90.5 36t31.5 87q0 49 -31 86t-91 37z" />
    <glyph glyph-name="uni0E06" unicode="&#xe06;" horiz-adv-x="1913" 
d="M905 795h1q11 0 98 -25q98 -30 192 -86q149 -89 218 -170t85 -117v1241h193v-1638h-193q-16 93 -88.5 231t-222.5 261q-160 126 -283 126v-364q0 -111 -57.5 -186.5t-175.5 -83.5q-151 0 -241.5 95.5t-90.5 280.5q8 271 136.5 355t236.5 84v98q0 48 21 85.5t72.5 104.5
t90.5 134q37 57 37 131q0 79 -37 86q-52 0 -104 -57.5t-52 -73.5q0 12 -38.5 64.5t-75.5 78.5q-60 41 -164 41q33 0 97.5 -47.5t74.5 -165.5q0 -296 -238 -303q-115 0 -186.5 84.5t-71.5 247.5q14 137 108 237t228 103q85 0 138.5 -22t80 -47t35.5 -34q3 0 30 29t61.5 49
t80.5 20q92 0 152.5 -82t60.5 -204q0 -58 -8 -90q-12 -57 -40 -107.5t-74 -114t-66.5 -102t-20.5 -78.5v-69zM389 1364q-49 0 -77.5 -38.5t-28.5 -88.5q0 -53 28 -90t78 -37q54 0 82.5 36.5t28.5 90.5q0 51 -29 89t-82 38zM520 426q0 -283 123 -283q70 4 70 107v364
q-161 0 -193 -188z" />
    <glyph glyph-name="uni0E07" unicode="&#xe07;" horiz-adv-x="1274" 
d="M967 49q-73 -61 -205 -61q-136 0 -201 65q-55 60 -78 119l-368 803l143 119l397 -869q38 -82 115 -82q51 0 64.5 21.5t13.5 81.5v860l-29 -8q-31 -8 -61 -8q-58 0 -119 20q-79 25 -125.5 94t-46.5 156q0 49 20 102q77 180 271 180q50 0 94 -12q109 -31 148.5 -116
t39.5 -162v-1102q0 -143 -73 -201zM754 1495q-62 0 -94.5 -38t-32.5 -93t32.5 -93t94.5 -38t96.5 38.5t34.5 92.5t-34.5 92.5t-96.5 38.5z" />
    <glyph glyph-name="uni0E08" unicode="&#xe08;" horiz-adv-x="1499" 
d="M135 1204v74q0 188 155.5 278.5t409.5 90.5q578 0 578 -353v-1069q0 -126 -86 -184q-69 -49 -209 -49q-128 0 -188 49q-80 59 -99 180l-57 377q-15 -6 -52.5 -15.5t-86.5 -9.5q-96 0 -164 41q-115 64 -115 222q0 76 37 143q82 127 246 127q48 0 98 -12q166 -45 197 -267
l82 -569q13 -119 106 -119q98 5 98 115v1003q0 124 -88.5 175.5t-287.5 54.5q-381 0 -381 -205v-78h-193zM500 971q-62 0 -94.5 -39t-32.5 -92q0 -55 32.5 -93t94.5 -38t96.5 38.5t34.5 92.5q0 52 -34.5 91.5t-96.5 39.5z" />
    <glyph glyph-name="uni0E09" unicode="&#xe09;" horiz-adv-x="1757" 
d="M1454 651q-44 -59 -86 -73q147 -38 209 -172q25 -58 25 -132q0 -168 -111 -249q-66 -54 -160 -54q-155 0 -237 115q-54 74 -54 172q0 57 25 115q-133 -53 -246 -189q-76 -94 -106 -184h-197v508l-29 -8q-31 -8 -61 -8q-58 0 -119 20q-79 25 -125.5 95.5t-46.5 154.5
q0 49 21 102q75 180 270 180q52 0 94 -12q109 -31 149 -115.5t40 -162.5v-443q91 100 168 148q77 51 245 135q112 59 146.5 109t34.5 124v430q0 92 -54 142.5t-150 69t-243 18.5q-426 0 -426 -197v-94h-192v82q0 189 168.5 279t449.5 90q639 0 639 -353v-499q0 -90 -41 -144
zM418 897q-62 0 -94.5 -39t-32.5 -92q0 -55 32.5 -93t94.5 -38t96.5 38.5t34.5 92.5q0 52 -34.5 91.5t-96.5 39.5zM1323 127q60 0 93.5 42t33.5 101q0 58 -32.5 101t-94.5 43q-59 0 -91 -43t-32 -101q0 -59 32.5 -101t90.5 -42z" />
    <glyph glyph-name="uni0E0A" unicode="&#xe0a;" horiz-adv-x="1593" 
d="M1352 1081v-831q0 -115 -49 -180q-53 -70 -164 -70h-541q-106 0 -168 74q-45 49 -45 192v271q0 84 18 140.5t72 121.5q44 53 139.5 141t141.5 159.5t47 174.5q0 90 -55.5 147.5t-116.5 57.5q21 -14 51.5 -60t30.5 -129q0 -38 -13 -86q-23 -89 -98.5 -140.5t-171.5 -51.5
q-69 0 -115 20q-168 70 -168 258q0 101 46 176q82 119 191 150t243 31q163 -9 261.5 -114t98.5 -284q-4 -97 -31.5 -161.5t-77 -122.5t-153.5 -162q-80 -80 -113.5 -133.5t-33.5 -132.5v-234q0 -99 24 -119q49 -32 127 -32h307q74 0 103 32q20 25 20 123v774q0 70 -16 127
q-30 70 -115 70l-16 139q84 7 159 82q78 77 78 221v123h189v-143q0 -147 -86 -242q-42 -47 -88 -71.5t-68 -30.5q21 -5 59.5 -26.5t63.5 -67.5q33 -74 33 -181zM430 1421q-62 0 -94.5 -38t-32.5 -93q0 -53 33.5 -92t93.5 -39t95.5 39t35.5 92q0 54 -34.5 92.5t-96.5 38.5z
" />
    <glyph glyph-name="uni0E0B" unicode="&#xe0b;" horiz-adv-x="1626" 
d="M463 1491q33 0 97.5 -47.5t74.5 -165.5q0 -296 -238 -303q-115 0 -186.5 84.5t-71.5 247.5q14 137 108 237t228 103q85 0 138.5 -22t80 -47t35.5 -34q0 4 51 49q56 49 117 49q74 -5 110.5 -92t36.5 -211q0 -61 -4 -94q-17 -142 -68 -220t-202 -222q-78 -72 -112.5 -129
t-34.5 -137v-234q0 -99 24 -119q49 -32 127 -32h307q74 0 103 32q20 25 20 123v774q0 70 -16 127q-30 70 -115 70l-8 139q75 7 152 82q77 77 77 221v123h189v-143q0 -147 -86 -242q-42 -47 -88 -71.5t-68 -30.5q21 -5 59.5 -26.5t63.5 -67.5q33 -74 33 -181v-831
q0 -115 -49 -180q-53 -70 -164 -70h-541q-106 0 -168 74q-45 49 -45 192v271q0 88 17.5 146t72.5 116q35 36 133 129.5t139.5 149.5t63.5 139q16 48 16 114q0 103 -36 103q-21 0 -62 -54.5t-41 -64.5q0 12 -34.5 60.5t-71.5 74.5q-60 41 -164 41zM389 1364
q-49 0 -77.5 -38.5t-28.5 -88.5q0 -53 28 -90t78 -37q54 0 82.5 36.5t28.5 90.5q0 51 -29 89t-82 38z" />
    <glyph glyph-name="uni0E0C" unicode="&#xe0c;" horiz-adv-x="2236" 
d="M1995 1638v-1638h-193q-1 21 -13.5 69.5t-51.5 110.5q-82 131 -205 189q20 -46 20 -111q0 -101 -49 -168q-82 -115 -237 -115q-94 0 -160 54q-111 81 -111 250q0 73 25 131q62 135 209 172q-28 21 -49 65q-21 62 -21 131v479q0 122 -81.5 176t-274.5 54q-369 0 -369 -197
v-57h242v-139q-76 0 -152 -95q-45 -61 -45 -163v-316l32 6q34 6 67 6q55 0 110 -16q77 -27 122.5 -96.5t45.5 -157.5q0 -54 -16 -98q-31 -91 -103 -133.5t-159 -42.5q-63 0 -107 16q-184 68 -184 287v524q0 98 45 172q40 60 80 83.5t59 27.5h-229v180q0 189 152.5 279
t400.5 90q557 0 557 -361v-520q0 -62 22 -99.5t84 -76.5q42 -24 72 -41.5t78 -47t67 -42.5q49 -32 81.5 -60.5t45.5 -42.5v1282h193zM1274 418q-59 0 -93 -43t-34 -101t34.5 -100.5t92.5 -42.5t90.5 42t32.5 101q0 58 -32 101t-91 43zM578 131q60 0 95.5 39t35.5 92
q0 54 -34.5 92.5t-96.5 38.5t-94.5 -38t-32.5 -93q0 -53 33.5 -92t93.5 -39z" />
    <glyph glyph-name="uni0E0D" unicode="&#xe0d;" horiz-adv-x="2269" 
d="M1192 319v938q0 123 -85.5 176.5t-279.5 53.5q-393 0 -393 -197v-57h242v-139q-76 0 -152 -95q-45 -61 -45 -163v-316l32 6q34 6 67 6q55 0 110 -16q77 -27 122.5 -96.5t45.5 -157.5q0 -54 -16 -98q-31 -91 -103 -133.5t-159 -42.5q-63 0 -107 16q-184 68 -184 287v524
q0 98 45 172q40 60 80 83.5t59 27.5h-229v180q0 187 163 278t414 91q565 0 565 -353v-975q0 -73 17 -110q23 -57 106 -57h205q71 0 98 45q25 45 25 122v1319h193v-1323q0 -155 -50 -229q-62 -86 -184 -86h-360q-132 0 -197 94q-45 70 -45 225zM1757 -487q94 67 94 262v69
h177v-86q0 -110 -21 -186.5t-90 -140.5q-76 -70 -157.5 -94.5t-215.5 -24.5q-350 0 -426 209q-12 36 -12 90q0 86 44.5 156.5t139.5 89.5q50 8 70 8q104 0 170.5 -66.5t66.5 -175.5q0 -53 -14.5 -86.5t-33 -50t-21.5 -18.5q162 0 229 45zM1356 -266q-54 0 -82.5 -33.5
t-28.5 -77.5q0 -43 28.5 -74.5t78.5 -31.5q52 0 81 33t29 77t-28.5 75.5t-77.5 31.5zM578 131q60 0 95.5 39t35.5 92q0 54 -34.5 92.5t-96.5 38.5t-94.5 -38t-32.5 -93q0 -53 33.5 -92t93.5 -39z" />
    <glyph glyph-name="uni0E0E" unicode="&#xe0e;" horiz-adv-x="1901" 
d="M1479 -393v1650q0 128 -96.5 179t-301.5 51q-401 0 -401 -197v-57h242v-139q-78 0 -152 -95q-45 -61 -45 -163v-541q0 -219 -184 -287q-44 -16 -107 -16q-202 0 -262 176q-16 44 -16 98q0 88 46.5 157.5t121.5 96.5q58 17 110 17q72 0 98 -13v291q0 96 46 172
q40 60 80 83.5t59 27.5h-230v180q0 187 167 278t419 91q598 0 598 -353v-1732q0 -135 -57 -205q-66 -66 -144 -66q-82 0 -180 74q-86 67 -150.5 113t-90.5 63q0 -8 -43 -65.5t-88 -93.5q-125 -95 -259 -95q-60 0 -139 21q-83 25 -129.5 91.5t-46.5 145.5q0 136 119 213
q100 66 250 66q146 0 196 -33q5 0 13 70q0 17 1.5 33.5t2.5 23.5h200q0 -49 -4 -111q-2 -28 -9 -57.5t-7 -32.5q23 0 139 -82q33 -21 84.5 -60t83.5 -54q66 0 66 86zM434 135q60 0 95.5 39t35.5 92q0 54 -34.5 92.5t-96.5 38.5t-94.5 -38t-32.5 -93q0 -53 33.5 -92t93.5 -39
zM582 -373q-37 -36 -37 -73q0 -42 38 -68.5t105 -26.5q96 16 136 81t40 100q-19 6 -64 15t-95 9q-87 0 -123 -37z" />
    <glyph glyph-name="uni0E0F" unicode="&#xe0f;" horiz-adv-x="1905" 
d="M1479 -406v1663q0 128 -96.5 179t-301.5 51q-401 0 -401 -197v-57h242v-139q-78 0 -152 -95q-45 -61 -45 -163v-541q0 -219 -184 -287q-44 -16 -107 -16q-202 0 -262 176q-16 44 -16 98q0 88 46.5 157.5t121.5 96.5q58 17 110 17q72 0 98 -13v291q0 96 46 172
q40 60 80 83.5t59 27.5h-230v180q0 187 167 278t419 91q598 0 598 -353v-1822q0 -111 -74 -148q-27 -16 -61 -16q-64 0 -119 78l-151 208l-185 -286q-10 21 -33 61.5t-49 69.5q-45 60 -94 98q-28 -145 -168 -209q-82 -37 -172 -37q-108 0 -190.5 56.5t-91.5 160.5
q0 219 200 275q55 16 123 16q51 0 108 -10q49 -9 49 -10h-1q12 0 12 82v78h197q0 -58 -4 -119q-3 -37 -8.5 -63.5t-8.5 -39.5q14 0 70 -49q22 -17 37.5 -36t23.5 -29l176 258zM434 135q60 0 95.5 39t35.5 92q0 54 -34.5 92.5t-96.5 38.5t-94.5 -38t-32.5 -93q0 -53 33.5 -92
t93.5 -39zM508 -385q-41 -30 -41 -74q0 -36 27.5 -63t74.5 -27q13 0 45 8q65 16 89 72.5t26 91.5q-14 5 -45 13t-74 8q-60 0 -102 -29z" />
    <glyph glyph-name="uni0E10" unicode="&#xe10;" horiz-adv-x="1561" 
d="M1303 950v-725q0 -113 -86 -184q-61 -49 -185 -49t-188 53q-69 56 -86 188l-45 271q-15 -6 -53 -15.5t-87 -9.5q-97 0 -163 41q-115 64 -115 221q0 77 37 144q82 127 246 127q50 0 98 -13q167 -43 196 -266l66 -463q12 -114 98 -114q46 0 60 20.5t14 77.5v659
q0 124 -92 178t-334 72q-53 4 -143 4q-49 0 -123 -2t-99 -2q-116 0 -131 54q-8 40 -8 57q0 113 93 216.5t235 135.5q107 21 164 21q98 0 238.5 -37.5t207.5 -40.5q63 0 107 27.5t61 45.5l86 -155q-17 -18 -74 -46t-155 -28q-88 2 -245 36t-271 34q-104 0 -173 -44.5
t-69 -115.5q0 -12 33 -12q12 0 76 4t116 4q178 0 389 -49q169 -43 236.5 -114.5t67.5 -205.5zM1122 -561q0 -1 -20 -6q-23 -6 -49 -6q-56 0 -127 32q-115 57 -115 201q0 90 53 147q73 87 197 87q96 0 151 -50q107 -90 107 -282q0 -33 -8 -107q-30 -283 -271 -315
q-283 0 -368 184l-94 -188h-62l-106 184q-23 -84 -94 -130t-169 -46q-94 0 -163.5 62t-69.5 163q0 34 12 78q48 180 238 180q108 0 160 -45q0 2 4 44t4 71q0 40 -1 72q-2 31 -3 43h172q0 -74 -4 -148q0 -36 -3 -58t-9 -60t-9 -58l70 -111l123 226q0 -17 56.5 -119.5
t123.5 -155.5q72 -53 135 -53q37 0 70 16q69 37 69 148zM1057 -238q-50 0 -76.5 -31t-26.5 -75q0 -41 26.5 -71.5t76.5 -30.5q49 0 77.5 30.5t28.5 71.5q0 43 -28.5 74.5t-77.5 31.5zM573 877q-62 0 -94.5 -39t-32.5 -93q0 -53 33.5 -92t93.5 -39t96 39t36 92q0 54 -35 93
t-97 39zM90 -557q-16 -28 -16 -66q0 -94 114 -94q99 17 99 164q0 2 -37 20q-42 19 -78 21q-53 0 -82 -45z" />
    <glyph glyph-name="uni0E11" unicode="&#xe11;" horiz-adv-x="1933" 
d="M807 0h-193v815q0 66 19 106t67 110.5t78 135.5q49 104 49 197q0 70 -28 70q-21 0 -62 -54.5t-41 -64.5q0 12 -34.5 60.5t-71.5 74.5q-59 41 -164 41q33 0 97.5 -48t74.5 -165q0 -296 -238 -303q-115 0 -186.5 84.5t-71.5 247.5q14 137 108 237t228 103q85 0 138.5 -22
t80 -47t35.5 -34q2 0 29.5 28.5t62 49t80.5 20.5q69 -3 106.5 -71.5t37.5 -173.5q0 -79 -17 -144q-16 -75 -39.5 -122.5t-64.5 -113.5t-60.5 -115.5t-19.5 -110.5v-275q0 7 34.5 106t91.5 237.5t132 283.5q131 246 234 371t212 128q98 0 145.5 -67.5t47.5 -165.5v-1409h-193
v1372q0 70 -49 70q-100 -5 -381 -647q-217 -507 -274 -795zM352 1364q-49 0 -77.5 -38.5t-28.5 -88.5q0 -53 28 -90t78 -37q54 0 82.5 36.5t28.5 90.5q0 51 -29 89t-82 38z" />
    <glyph glyph-name="uni0E12" unicode="&#xe12;" horiz-adv-x="2396" 
d="M1724 520q108 -53 163 -98t71 -66v1282h192v-1638h-192q-1 22 -13 70t-53 110q-49 76 -120 127.5t-121 65.5q16 -58 16 -103q0 -102 -53 -172q-78 -110 -230 -110q-88 0 -167 49q-124 96 -132 258q0 61 25 131q37 93 107.5 134.5t97.5 41.5v655q0 94 -45 144
q-64 69 -127 69l-266 -200l-259 192q-65 0 -122 -57q-45 -49 -45 -152v-1048q8 0 213 205q188 188 192 196q-74 0 -162.5 54.5t-91.5 191.5q0 108 67 183.5t191 86.5q131 0 213.5 -70t85.5 -184q0 -131 -74.5 -230t-269.5 -294q-132 -132 -223 -221.5t-125 -122.5h-209v1270
q0 157 123 270q123 107 283 107l213 -172l225 172q41 -2 124 -24.5t158 -86.5q123 -105 123 -270v-590q0 -39 27.5 -62.5t102.5 -55.5t87 -38zM1380 438q-59 0 -93 -42.5t-34 -100.5q0 -60 33.5 -101.5t93.5 -41.5q59 0 91 41t32 102q0 58 -32 100.5t-91 42.5zM881 983
q-59 0 -91 -36t-32 -87q0 -50 32.5 -86.5t90.5 -36.5t90.5 36.5t32.5 86.5q0 51 -32 87t-91 36z" />
    <glyph glyph-name="uni0E13" unicode="&#xe13;" horiz-adv-x="2343" 
d="M1208 0v1257q0 126 -85.5 178t-282.5 52q-389 0 -389 -197v-57h241v-139q-77 0 -151 -95q-45 -61 -45 -163v-316l32 6q34 6 66 6q56 0 111 -16q76 -27 121.5 -96.5t45.5 -157.5q0 -54 -16 -98q-31 -91 -103 -133.5t-159 -42.5q-63 0 -107 16q-184 68 -184 287v524
q0 98 45 172q39 59 79.5 83t59.5 28h-229v180q0 187 161 278t412 91q570 0 570 -353v-938q15 18 54.5 55.5t100.5 80.5q81 53 112 72.5t106 66.5q102 65 102 213v794h192v-798q0 -82 -20 -148q-27 -65 -102 -102q146 -37 208 -172q25 -54 25 -131q0 -169 -111 -250
q-64 -53 -159 -53q-155 0 -238 114q-53 79 -53 168q0 20 8 70q-94 -56 -160 -156q-52 -83 -65 -180h-193zM594 131q60 0 95.5 39t35.5 92q0 54 -34.5 92.5t-96.5 38.5t-94.5 -38t-32.5 -93q0 -53 33.5 -92t93.5 -39zM1901 139q60 0 93.5 42t33.5 102q0 57 -32.5 100
t-94.5 43q-59 0 -91 -43t-32 -100q0 -60 32.5 -102t90.5 -42z" />
    <glyph glyph-name="uni0E14" unicode="&#xe14;" horiz-adv-x="1761" 
d="M676 422q169 185 201 242q-74 0 -162.5 53.5t-91.5 191.5q0 109 67 184.5t191 86.5q86 0 153 -32t106 -90.5t40 -131.5q0 -71 -25 -136t-70.5 -131t-117 -148t-127.5 -146q-116 -135 -212 -229.5t-141 -135.5h-217v1294q0 186 174.5 269.5t448.5 83.5q627 0 627 -353
v-1294h-193v1257q0 133 -105.5 181.5t-324.5 48.5q-430 0 -430 -230v-1040q25 21 84 76.5t125 128.5zM901 1040q-59 0 -91 -36t-32 -86q0 -51 32 -87t91 -36t91 36t32 87q0 50 -32 86t-91 36z" />
    <glyph glyph-name="uni0E15" unicode="&#xe15;" horiz-adv-x="1761" 
d="M270 1270q0 156 123 270q123 107 283 107l213 -172l225 172q41 -2 125 -24.5t158 -86.5q123 -105 123 -270v-1266h-193v1257q0 94 -45 144q-64 69 -127 69l-266 -200l-258 192q-66 0 -123 -57q-45 -49 -45 -152v-1048q8 0 213 205q186 185 192 196q-74 0 -162.5 54.5
t-91.5 191.5q0 108 67 183.5t191 86.5q131 0 213.5 -70t85.5 -184q0 -131 -74.5 -230t-269.5 -294q-132 -132 -223 -221.5t-125 -122.5h-209v1270zM893 983q-59 0 -91 -36t-32 -87q0 -50 32.5 -86.5t90.5 -36.5t90.5 36.5t32.5 86.5q0 51 -32 87t-91 36z" />
    <glyph glyph-name="uni0E16" unicode="&#xe16;" horiz-adv-x="1663" 
d="M291 815q0 98 45 172q40 60 80 83.5t59 27.5h-229v180q0 186 166.5 277.5t418.5 91.5q599 0 599 -353v-1294h-193v1257q0 128 -96.5 179t-300.5 51q-402 0 -402 -197v-57h242v-139q-76 0 -152 -95q-45 -61 -45 -163v-316l33 6q34 6 66 6q55 0 110 -16q77 -27 122.5 -96.5
t45.5 -157.5q0 -54 -16 -98q-31 -91 -103 -133.5t-159 -42.5q-63 0 -107 16q-184 68 -184 287v524zM582 131q60 0 95.5 39t35.5 92q0 54 -34.5 92.5t-96.5 38.5t-94.5 -38t-32.5 -93q0 -53 33.5 -92t93.5 -39z" />
    <glyph glyph-name="uni0E17" unicode="&#xe17;" horiz-adv-x="1864" 
d="M1630 1286v-1286h-192v1282q0 184 -123 184q-61 0 -167.5 -158t-225.5 -456q-188 -469 -209 -852h-197v1106l-29 -8q-31 -8 -61 -8q-58 0 -119 20q-79 25 -125.5 95.5t-46.5 154.5q0 50 21 102q75 180 270 180q52 0 94 -12q109 -31 149 -115.5t40 -162.5v-537l-13 -139
q18 68 74.5 226t151.5 335q96 188 191 296.5t210 108.5q160 -3 233.5 -103.5t73.5 -252.5zM422 1495q-62 0 -94.5 -38t-32.5 -93t32.5 -93t94.5 -38t96.5 38.5t34.5 92.5t-34.5 92.5t-96.5 38.5z" />
    <glyph glyph-name="uni0E18" unicode="&#xe18;" horiz-adv-x="1663" 
d="M618 1630q115 21 177 21q92 0 237.5 -30t196.5 -36q71 0 108 26.5t47 43.5l99 -156q0 -2 -26 -20q-30 -21 -83 -37.5t-137 -16.5q-48 5 -197.5 35.5t-265.5 30.5q-149 0 -234 -64t-85 -145v-29q35 7 117 18t202 11q243 0 418 -70q137 -57 181 -140t44 -220v-500
q0 -174 -57 -254q-70 -98 -193 -98h-585q-122 0 -197 98q-57 74 -57 254v574h192v-570q0 -82 17 -135q26 -69 135 -69h413q79 0 111 53q29 53 29 151v500q0 139 -107 205q-122 74 -373 74q-135 0 -204 -17q-24 -5 -49.5 -14.5t-28.5 -9.5h-205v123q0 146 91.5 261t268.5 152
z" />
    <glyph glyph-name="uni0E19" unicode="&#xe19;" horiz-adv-x="1892" 
d="M1712 766q92 -61 128 -148.5t36 -240.5q0 -185 -84 -291t-244 -106q-111 6 -178 74t-67 188v397q-38 -4 -129 -49t-203 -176q-212 -240 -266 -414h-193v1106l-29 -8q-31 -8 -61 -8q-58 0 -119 20q-79 25 -125.5 95.5t-46.5 154.5q0 50 21 102q75 180 270 180q50 0 94 -12
q109 -31 149 -115.5t40 -162.5v-996q20 34 76.5 107.5t140.5 146.5q133 121 236 161.5t145 43.5v823h192v-811q0 1 3 1q12 0 76 -11q78 -13 138 -51zM414 1495q-62 0 -94.5 -38t-32.5 -93t32.5 -93t94.5 -38t96.5 38.5t34.5 92.5t-34.5 92.5t-96.5 38.5zM1495 659v-409
q0 -107 78 -107q127 5 127 246q0 188 -86 242q-49 28 -119 28z" />
    <glyph glyph-name="uni0E1A" unicode="&#xe1a;" horiz-adv-x="1847" 
d="M684 1352v-996q0 -82 16 -135q27 -69 136 -69h438q78 0 110 53q29 53 29 151v1282h193v-1286q0 -175 -58 -254q-70 -98 -192 -98h-611q-130 0 -196 98q-57 86 -57 254v754l-30 -8t-61 -8q-57 0 -118 20q-79 25 -125.5 94t-46.5 156q0 49 20 102q75 180 270 180
q51 0 95 -12q109 -31 148.5 -116t39.5 -162zM393 1495q-62 0 -94.5 -38t-32.5 -93t32.5 -93t94.5 -38t96.5 38.5t34.5 92.5t-34.5 92.5t-96.5 38.5z" />
    <glyph glyph-name="uni0E1B" unicode="&#xe1b;" horiz-adv-x="1847" 
d="M688 1352v-996q0 -82 17 -135q26 -69 135 -69h438q77 0 111 53q28 53 28 151v2028h193v-2032q0 -175 -58 -254q-70 -98 -192 -98h-610q-131 0 -197 98q-57 86 -57 254v754l-30 -8t-60 -8q-58 0 -119 20q-79 25 -125.5 94t-46.5 156q0 49 20 102q75 180 271 180
q50 0 94 -12q109 -31 148.5 -116t39.5 -162zM397 1495q-62 0 -94.5 -38t-32.5 -93t32.5 -93t94.5 -38t96.5 38.5t34.5 92.5t-34.5 92.5t-96.5 38.5z" />
    <glyph glyph-name="uni0E1C" unicode="&#xe1c;" horiz-adv-x="1655" 
d="M831 528l-348 -528h-229v1352q0 206 180 270q55 20 115 20q89 0 163.5 -43.5t102.5 -136.5q12 -48 12 -94q0 -92 -46 -164t-126 -94q-60 -16 -118 -16q-32 0 -63 6q-28 5 -28 6v-864l312 475h147l312 -475v1396h192v-1638h-229zM545 1499q-62 0 -94.5 -38t-32.5 -93
q0 -53 33.5 -92t93.5 -39t95.5 39t35.5 92q0 54 -34.5 92.5t-96.5 38.5z" />
    <glyph glyph-name="uni0E1D" unicode="&#xe1d;" horiz-adv-x="1659" 
d="M848 528l-348 -528h-230v1352q0 206 181 270q53 20 114 20q90 0 164 -44t102 -136q13 -46 13 -94q0 -92 -46.5 -164t-125.5 -94q-60 -16 -119 -16q-33 0 -64 6q-27 5 -27 6h1v-864l311 475h148l311 -475v2142h192v-2384h-229zM561 1499q-62 0 -94.5 -38t-32.5 -93
q0 -53 33.5 -92t93.5 -39t95.5 39t35.5 92q0 54 -34.5 92.5t-96.5 38.5z" />
    <glyph glyph-name="uni0E1E" unicode="&#xe1e;" horiz-adv-x="1925" 
d="M1466 0l-381 1290l-356 -1290h-237v1106l-30 -8t-61 -8q-57 0 -118 20q-79 25 -125.5 94t-46.5 156q0 49 20 102q75 180 270 180q51 0 95 -12q109 -31 148.5 -116t39.5 -162v-750l-8 -164l328 1200h155l352 -1200l-4 164v1036h193v-1638h-234zM393 1495q-62 0 -94.5 -38
t-32.5 -93t32.5 -93t94.5 -38t96.5 38.5t34.5 92.5t-34.5 92.5t-96.5 38.5z" />
    <glyph glyph-name="uni0E1F" unicode="&#xe1f;" horiz-adv-x="1929" 
d="M1466 0l-385 1294l-352 -1294h-237v1106l-30 -8t-61 -8q-57 0 -118 20q-79 25 -125.5 94t-46.5 156q0 49 20 102q75 180 270 180q51 0 95 -12q109 -31 148.5 -116t39.5 -162v-717l-8 -197l328 1200h155l352 -1200l-8 197l4 1749h193v-2384h-234zM393 1495
q-62 0 -94.5 -38t-32.5 -93t32.5 -93t94.5 -38t96.5 38.5t34.5 92.5t-34.5 92.5t-96.5 38.5z" />
    <glyph glyph-name="uni0E20" unicode="&#xe20;" horiz-adv-x="1864" 
d="M692 295q0 -219 -184 -287q-44 -16 -107 -16q-202 0 -262 176q-16 44 -16 98q0 88 46.5 157.5t121.5 96.5q58 17 110 17q73 0 99 -13v291q0 98 45 172q40 60 80 83.5t59 27.5h-229v180q0 186 166.5 277.5t418.5 91.5q598 0 598 -353v-1294h-192v1257q0 128 -96.5 179
t-300.5 51q-402 0 -402 -197v-57h242v-139q-76 0 -152 -95q-45 -61 -45 -163v-541zM401 135q60 0 95.5 39t35.5 92q0 54 -34.5 92.5t-96.5 38.5t-94.5 -38t-32.5 -93q0 -53 33.5 -92t93.5 -39z" />
    <glyph glyph-name="uni0E21" unicode="&#xe21;" horiz-adv-x="1827" 
d="M1597 0h-192q-6 49 -38 135.5t-100.5 189.5t-172.5 187q-156 127 -283 127v-385q0 -111 -57.5 -186.5t-175.5 -83.5q-151 0 -241.5 95.5t-90.5 280.5q5 202 88 304.5t163.5 128.5t120.5 26v287l-29.5 -8t-60.5 -8q-57 0 -118 20q-79 25 -125.5 94t-46.5 156q0 49 20 102
q75 180 270 180q51 0 95 -12q109 -31 148.5 -116t39.5 -162v-537q0 1 2 1q11 0 93 -23q95 -26 192 -84q147 -89 218.5 -179.5t88.5 -132.5v1241h192v-1638zM520 1495q-62 0 -94.5 -38t-32.5 -93t32.5 -93t94.5 -38t96.5 38.5t34.5 92.5t-34.5 92.5t-96.5 38.5zM426 438
q0 -295 123 -295q69 4 69 107v385q-160 0 -192 -197z" />
    <glyph glyph-name="uni0E22" unicode="&#xe22;" horiz-adv-x="1622" 
d="M487 557v-201q0 -82 17 -135q26 -69 135 -69h438q77 0 111 53q29 53 29 151v1282h192v-1286q0 -174 -57 -254q-70 -98 -193 -98h-610q-125 0 -197 98q-57 80 -57 254v189q0 124 57 204q34 49 76.5 70t58.5 21q-64 5 -161 75t-97 277q0 74 9 115q20 140 110.5 230
t216.5 105q152 0 237.5 -36t123.5 -140q16 -43 16 -98q0 -90 -46 -161t-126 -93q-55 -16 -106 -16q-116 0 -170.5 61t-71.5 111q-8 0 -8 -86q0 -89 37 -152q62 -106 245 -106h267v-148h-267q-109 0 -164 -78q-45 -61 -45 -139zM664 1499q-62 0 -94.5 -38t-32.5 -93
q0 -53 33.5 -92t93.5 -39t95.5 39t35.5 92q0 54 -34.5 92.5t-96.5 38.5z" />
    <glyph glyph-name="uni0E23" unicode="&#xe23;" horiz-adv-x="1421" 
d="M1192 856v-561q0 -219 -184 -287q-44 -16 -107 -16q-202 0 -262 176q-16 44 -16 98q0 88 46.5 157.5t121.5 96.5q57 17 110 17q72 0 98 -13v312q0 134 -76.5 193t-275.5 93q-142 25 -303 25h-188q-9 9 -9 45q0 114 70.5 249t228.5 181q101 29 181 29q76 0 211 -33
t223 -33q44 0 77 13.5t55 31.5q19 16 19 17l74 -177q-12 -12 -49.5 -31t-106.5 -22q-87 0 -260 37t-284 37q-90 -13 -140 -56.5t-69.5 -92.5t-20.5 -52q73 0 229 -15t324 -67q160 -51 221.5 -126t61.5 -226zM901 135q60 0 95.5 39t35.5 92q0 54 -34.5 92.5t-96.5 38.5
t-94.5 -38t-32.5 -93q0 -53 33.5 -92t93.5 -39z" />
    <glyph glyph-name="uni0E24" unicode="&#xe24;" horiz-adv-x="1663" 
d="M287 815q0 98 45 172q40 60 80 83.5t59 27.5h-229v180q0 186 166.5 277.5t418.5 91.5q598 0 598 -353v-1966h-192v1929q0 128 -96.5 179t-300.5 51q-402 0 -402 -197v-57h242v-139q-76 0 -152 -95q-45 -61 -45 -163v-316l32 6q34 6 67 6q55 0 110 -16q77 -27 122.5 -96.5
t45.5 -157.5q0 -54 -16 -98q-31 -91 -103 -133.5t-159 -42.5q-63 0 -107 16q-184 68 -184 287v524zM578 131q60 0 95.5 39t35.5 92q0 54 -34.5 92.5t-96.5 38.5t-94.5 -38t-32.5 -93q0 -53 33.5 -92t93.5 -39z" />
    <glyph glyph-name="uni0E25" unicode="&#xe25;" horiz-adv-x="1675" 
d="M1245 811v446q0 128 -97 181t-300 53q-402 0 -402 -201v-86h-192v74q0 187 167 278t419 91q598 0 598 -353v-1294h-193v197q0 300 -188 594q-136 225 -303 225q-20 0 -54 -8q-90 -22 -149 -93t-59 -174v-221l32 6q34 6 66 6q55 0 110 -16q77 -27 122.5 -96.5t45.5 -157.5
q0 -54 -16 -98q-31 -91 -103 -133.5t-159 -42.5q-63 0 -107 16q-184 68 -184 287v430q0 164 104 288t269 154q56 8 86 8q201 0 323.5 -135t163.5 -225zM590 131q60 0 95.5 39t35.5 92q0 54 -34.5 92.5t-96.5 38.5t-94.5 -38t-32.5 -93q0 -53 33.5 -92t93.5 -39z" />
    <glyph glyph-name="uni0E26" unicode="&#xe26;" horiz-adv-x="1860" 
d="M684 295q0 -219 -184 -287q-44 -16 -107 -16q-202 0 -262 176q-16 44 -16 98q0 88 46.5 157.5t121.5 96.5q58 17 110 17q70 0 99 -13v291q0 98 45 172q40 60 80 83.5t59 27.5h-230v180q0 187 167 278t419 91q598 0 598 -353v-1966h-192v1929q0 128 -96.5 179t-301.5 51
q-401 0 -401 -197v-57h242v-139q-76 0 -152 -95q-45 -61 -45 -163v-541zM393 135q60 0 95.5 39t35.5 92q0 54 -34.5 92.5t-96.5 38.5t-94.5 -38t-32.5 -93q0 -53 33.5 -92t93.5 -39z" />
    <glyph glyph-name="uni0E27" unicode="&#xe27;" horiz-adv-x="1384" 
d="M983 1257q0 123 -74.5 178.5t-265.5 55.5q-180 0 -258 -53t-78 -160v-57h-184v57q0 369 520 369q253 0 393 -93t140 -260v-999q0 -219 -185 -287q-44 -16 -106 -16q-202 0 -262 176q-17 43 -17 98q0 86 46 156.5t122 97.5q58 17 111 17q72 0 98 -13v733zM885 135
q60 0 95.5 39t35.5 92q0 54 -34.5 92.5t-96.5 38.5t-94.5 -38t-32.5 -93q0 -53 33.5 -92t93.5 -39z" />
    <glyph glyph-name="uni0E28" unicode="&#xe28;" horiz-adv-x="1757" 
d="M1307 1589q13 7 40 31.5t46 67.5q37 81 37 151h204q0 -112 -61 -229q-22 -48 -58.5 -81.5t-56.5 -45.5q8 -8 22.5 -29t22.5 -53q17 -54 17 -107v-1294h-193v1257q0 133 -105.5 181.5t-324.5 48.5q-430 0 -430 -230v-548l-12 -123l94 245q34 88 64 148t101.5 121.5
t178.5 66.5q127 0 208.5 -63t90.5 -174q0 -164 -80 -246t-194 -82q-136 0 -222 90q-6 -13 -46 -101t-81 -226q-45 -159 -64.5 -244.5t-25.5 -120.5h-209v1294q0 186 174.5 269.5t448.5 83.5q217 0 306.5 -21.5t107.5 -36.5zM909 1008q-59 0 -91 -36.5t-32 -86.5
q0 -51 32 -87t91 -36t91 36t32 87q0 50 -31.5 86.5t-91.5 36.5z" />
    <glyph glyph-name="uni0E29" unicode="&#xe29;" horiz-adv-x="1958" 
d="M1626 549v-197q0 -174 -57 -254q-70 -98 -193 -98h-610q-131 0 -197 98q-57 86 -57 254v754l-29 -8q-31 -8 -61 -8q-58 0 -119 20q-79 25 -125.5 95.5t-46.5 154.5q0 50 21 102q75 180 270 180q50 0 94 -12q109 -31 149 -115.5t40 -162.5v-996q0 -82 16 -135
q26 -69 135 -69h438q77 0 111 53q29 53 29 151v168q-10 -1 -37.5 -2.5t-69.5 -1.5q-192 0 -332 53q-164 59 -164 226q0 68 36 129.5t96 87.5q61 24 118 24q87 -3 150 -46.5t80 -121.5q8 -48 8 -69q0 -56 -18.5 -85t-30.5 -38l30 -4q32 -4 52 -4q28 0 50.5 3t31.5 5v958h192
v-929q74 33 119 114q33 66 33 176h180q0 -200 -94 -311q-66 -79 -135.5 -107.5t-102.5 -31.5zM1073 909q-47 0 -74.5 -29.5t-27.5 -72.5q0 -40 27.5 -71t74.5 -31q50 0 76.5 30.5t26.5 71.5q0 43 -26.5 72.5t-76.5 29.5zM414 1495q-62 0 -94.5 -38t-32.5 -93t32.5 -93
t94.5 -38t96.5 38.5t34.5 92.5t-34.5 92.5t-96.5 38.5z" />
    <glyph glyph-name="uni0E2A" unicode="&#xe2a;" horiz-adv-x="1663" 
d="M434 1278v-74h-192v74q0 183 164 276t421 93q194 0 278 -21.5t103 -36.5q15 8 42 32.5t48 70.5q37 78 37 151h205q0 -112 -61 -229q-22 -48 -58.5 -81.5t-56.5 -45.5q8 -8 22.5 -29t22.5 -53q16 -55 16 -111v-1294h-192v197q0 299 -189 594q-135 225 -303 225
q-19 0 -53 -8q-91 -22 -150 -93t-59 -174v-221l32 6q34 6 67 6q55 0 110 -16q77 -27 122.5 -96.5t45.5 -157.5q0 -54 -16 -98q-31 -91 -103 -133.5t-159 -42.5q-63 0 -107 16q-184 68 -184 287v430q0 163 104.5 287.5t267.5 154.5q58 8 91 8q143 0 250 -79.5t170 -173
t63 -111.5v455q0 229 -402 229q-397 0 -397 -213zM578 131q60 0 95.5 39t35.5 92q0 54 -34.5 92.5t-96.5 38.5t-94.5 -38t-32.5 -93q0 -53 33.5 -92t93.5 -39z" />
    <glyph glyph-name="uni0E2B" unicode="&#xe2b;" horiz-adv-x="1864" 
d="M1286 1081q-82 0 -202 -109.5t-203 -254.5q-193 -337 -193 -578v-139h-192v1106l-30 -8t-60 -8q-58 0 -119 20q-79 25 -125.5 94t-46.5 156q0 49 20 102q75 180 271 180q50 0 94 -12q109 -31 148.5 -116t39.5 -162v-631q20 42 78.5 134t151.5 181q117 114 221 160
q-18 0 -54 52.5t-36 164.5q9 105 94 171.5t200 66.5q130 -3 202.5 -81.5t72.5 -213.5q-7 -107 -59 -158t-76 -51q78 -39 119 -119q40 -87 40 -176v-852h-192v848q0 95 -42 158t-122 75zM397 1495q-62 0 -94.5 -38t-32.5 -93t32.5 -93t94.5 -38t96.5 38.5t34.5 92.5
t-34.5 92.5t-96.5 38.5zM1335 1503q-62 0 -94.5 -38t-32.5 -93q0 -53 33.5 -92t93.5 -39t95.5 39t35.5 92q0 54 -34.5 92.5t-96.5 38.5z" />
    <glyph glyph-name="uni0E2C" unicode="&#xe2c;" horiz-adv-x="1892" 
d="M1700 1413v-1413h-225l-390 831l-372 -831h-221v1106l-30 -8t-61 -8q-57 0 -118 20q-79 25 -125.5 94t-46.5 156q0 49 20 102q75 180 270 180q51 0 95 -12q109 -31 148.5 -116t39.5 -162v-824l-8 -196l328 708h155l352 -708l-8 196v775q-88 -41 -217 -46
q-146 0 -258.5 50.5t-122.5 162.5q0 117 92.5 184t243.5 70q137 0 223 -28t126 -60t44 -43q9 10 28.5 46.5t33.5 93.5q12 77 12 209h201q0 -229 -49 -340q-36 -84 -85 -130t-75 -59zM393 1495q-62 0 -94.5 -38t-32.5 -93t32.5 -93t94.5 -38t96.5 38.5t34.5 92.5t-34.5 92.5
t-96.5 38.5zM1245 1585q-65 0 -104 -27t-39 -63q0 -80 151 -86q111 0 163 28t63 46q0 22 -57.5 62t-176.5 40z" />
    <glyph glyph-name="uni0E2D" unicode="&#xe2d;" horiz-adv-x="1642" 
d="M451 356q0 -82 16 -135q26 -69 135 -69h438q102 0 136 53q28 53 28 151v901q0 128 -97 181t-300 53q-401 0 -401 -201v-57h-193v45q0 187 167 278t419 91q598 0 598 -353v-942q0 -175 -58 -254q-70 -98 -192 -98h-635q-130 0 -197 98q-57 86 -57 254v475q0 80 40 165
t140 122q58 21 119 21q202 0 262 -181q17 -45 17 -98q0 -91 -48.5 -161.5t-128.5 -92.5q-60 -16 -118 -16q-32 0 -63 6q-27 5 -27 6v-242zM553 991q-62 0 -94.5 -38t-32.5 -93q0 -53 33.5 -92t93.5 -39t95.5 39t35.5 92q0 54 -34.5 92.5t-96.5 38.5z" />
    <glyph glyph-name="uni0E2E" unicode="&#xe2e;" horiz-adv-x="1642" 
d="M1397 1262v-910q0 -175 -58 -254q-70 -98 -192 -98h-635q-130 0 -197 98q-57 86 -57 254v369q0 79 39.5 164t140.5 123q55 20 119 20q202 0 262 -180q17 -47 17 -98q0 -91 -49 -162.5t-128 -91.5q-59 -17 -118 -17q-32 0 -61 6.5l-29 6.5v-136q0 -82 16 -135
q26 -69 135 -69h438q102 0 136 53q28 53 28 151v901q-26 -24 -134 -63.5t-329 -46.5q-524 0 -524 229q0 130 160 200.5t356 70.5q195 0 303.5 -20.5t150 -46t46.5 -28.5l12.5 33t16.5 70q8 78 8 147h192q0 -94 -24 -217q-14 -66 -40 -115q-24 -45 -26 -45q5 -10 13 -28.5
t8 -32.5q4 -61 4 -102zM553 885q-62 0 -94.5 -39t-32.5 -92q0 -55 32.5 -93t94.5 -38t96.5 38.5t34.5 92.5q0 52 -34.5 91.5t-96.5 39.5zM1130 1413q1 0 1 1q0 3 -34 23q-40 23 -124 40.5t-228 17.5q-315 -7 -315 -106q0 -86 324 -86q142 1 224 25t114 52t38 33z" />
    <glyph glyph-name="uni0E2F" unicode="&#xe2f;" horiz-adv-x="1593" 
d="M963 1298q86 81 122.5 191t36.5 149q90 0 144 -28q73 -44 73 -168q0 -16 -2 -54t-2 -57v-979q0 -199 -114 -286q-53 -39 -107 -55.5t-78 -18.5l-114 147q93 0 163 62q58 48 58 147v901q-30 -41 -126 -110.5t-263 -98.5q-67 -12 -136 -12q-152 0 -272 60.5t-153 173.5
q-17 47 -17 102q0 107 65 184t181 94q158 0 240.5 -70t82.5 -196q0 -64 -15 -102.5t-32 -54.5t-30 -27q184 0 295 106zM459 1503q-60 0 -93.5 -36.5t-33.5 -90.5q0 -50 34.5 -88.5t92.5 -38.5q60 0 93.5 38t33.5 89q0 54 -32.5 90.5t-94.5 36.5z" />
    <glyph glyph-name="uni0E30" unicode="&#xe30;" horiz-adv-x="1384" 
d="M897 1225q102 78 102 311h213q0 -383 -266 -483q-171 -66 -364 -66q-254 0 -353 127q-61 73 -61 176q0 86 47 157t125 97q47 17 106 17q104 0 181 -60t86 -174q0 -61 -13.5 -99.5t-30.5 -60.5q-16 -20 -18 -20q137 0 246 78zM897 291q102 78 102 311h213
q0 -382 -266 -483q-171 -66 -364 -66q-254 0 -353 127q-61 73 -61 176q0 86 47 157t125 97q43 17 106 17q104 0 181 -60t86 -174q0 -61 -13.5 -99.5t-30.5 -60.5q-16 -20 -18 -20q137 0 246 78zM442 500q-62 0 -94.5 -39t-32.5 -92q0 -55 32.5 -93t94.5 -38t96.5 38.5
t34.5 92.5q0 52 -34.5 91.5t-96.5 39.5zM442 1434q-62 0 -94.5 -39t-32.5 -92q0 -54 33.5 -93t93.5 -39t95.5 39t35.5 93q0 52 -34.5 91.5t-96.5 39.5z" />
    <glyph glyph-name="uni0E31" unicode="&#xe31;" 
d="M-4 2273q92 64 120.5 129.5t35.5 177.5h213q0 -102 -92.5 -277.5t-399.5 -250.5q-174 -37 -319 -37q-287 0 -414 111q-82 70 -82 192q0 83 43 152.5t121 97.5q46 21 114 21q92 0 163.5 -51.5t94.5 -141.5q9 -43 9 -69q0 -60 -18.5 -96t-30.5 -48q151 0 257.5 18t184.5 72
zM-668 2454q-59 0 -91 -36.5t-32 -86.5q0 -55 32.5 -93t94.5 -38q59 0 91 36t32 86q0 54 -32.5 93t-94.5 39z" />
    <glyph glyph-name="uni0E32" unicode="&#xe32;" horiz-adv-x="1421" 
d="M991 0v1257q0 123 -74.5 178.5t-265.5 55.5q-336 0 -336 -213v-57h-184v57q0 369 520 369q253 0 393 -93t140 -260v-1294h-193z" />
    <glyph glyph-name="uni0E33" unicode="&#xe33;" horiz-adv-x="1348" 
d="M-344 1917q-141 0 -222 90.5t-81 212.5q0 123 80.5 213t222.5 90t220.5 -89t78.5 -214t-79 -214t-220 -89zM950 0v1257q0 123 -74.5 178.5t-265.5 55.5q-336 0 -336 -213v-57h-184v57q0 369 520 369q253 0 393 -93t140 -260v-1294h-193zM-344 2359q-67 0 -105 -41
t-38 -98q0 -60 37.5 -101.5t105.5 -41.5t103.5 41t35.5 102q0 58 -36 98.5t-103 40.5z" />
    <glyph glyph-name="uni0E34" unicode="&#xe34;" 
d="M-246 1929h-1114v185q0 181 141 283t367 102q205 0 341 -56.5t200.5 -154t64.5 -220.5v-139zM-438 2130q0 70 -96 142t-297 75q-151 0 -243.5 -51t-92.5 -158v-57h729v49z" />
    <glyph glyph-name="uni0E35" unicode="&#xe35;" 
d="M-550 2459q76 -23 112 -46v274h192v-758h-1114v185q0 181 141 283t367 102q176 -3 302 -40zM-1167 2138v-57h729q0 75 -14 107.5t-82 83.5q-96 72 -297 75q-151 0 -243.5 -51t-92.5 -158z" />
    <glyph glyph-name="uni0E36" unicode="&#xe36;" 
d="M-250 1929h-1118v185q0 160 124 267t331 113q62 0 115 -3.5t81 -7.5q22 -4 22 -5h-1q1 22 19.5 67.5t70.5 88.5q77 65 192 65q118 0 189 -65q90 -80 90 -201q0 -69 -33 -127q-41 -74 -115 -106l10 -36.5t15 -78.5q8 -78 8 -156zM-877 2347q-299 -6 -299 -209v-57h730
q-12 29 -55 88.5t-138 118.5t-238 59zM-418 2548q-57 0 -88 -35t-31 -84q0 -51 32 -87t91 -36q56 0 87.5 34.5t31.5 84.5t-31.5 86.5t-91.5 36.5z" />
    <glyph glyph-name="uni0E37" unicode="&#xe37;" 
d="M-713 2490v197h172v-229l123 -66v295h172v-758h-1114v185q0 124 76.5 222.5t210.5 133.5q112 33 219 33q75 0 141 -13zM-438 2081q0 75 -14 107.5t-82 83.5q-96 72 -297 75q-151 0 -243 -51q-57 -31 -75 -74t-18 -141h729z" />
    <glyph glyph-name="uni0E38" unicode="&#xe38;" 
d="M-389 -1004v349q-4 0 -28 -5t-54 -8q-62 0 -123 21q-70 23 -117 88.5t-47 144.5q0 43 21 103q57 164 258 164q43 0 90 -13q192 -51 192 -274v-570h-192zM-483 -287q-59 0 -89 -35.5t-30 -87.5q0 -48 30 -83t89 -35q55 0 86.5 35.5t31.5 82.5q0 50 -31.5 86.5t-86.5 36.5z
" />
    <glyph glyph-name="uni0E39" unicode="&#xe39;" 
d="M-445 -615v451h192v-619h-579v119q0 -11 -84 -11q-61 0 -121 19q-74 25 -119 92.5t-45 141.5q0 93 58.5 179.5t219.5 86.5q151 0 217 -83t66 -204v-172h195zM-927 -295q-118 0 -118 -123q0 -119 118 -119q49 0 84 31t35 88q0 48 -29.5 85.5t-89.5 37.5z" />
    <glyph glyph-name="uni0E3A" unicode="&#xe3a;" 
d="M-348 -516q-71 0 -113.5 45.5t-42.5 105.5q0 63 41.5 109.5t114.5 46.5t112 -46t39 -110q0 -60 -40 -105.5t-111 -45.5z" />
    <glyph glyph-name="glyph190" horiz-adv-x="909" 
d="M0 0v8l6 -8h-6z" />
    <glyph glyph-name="glyph191" horiz-adv-x="909" 
d="M848 -293h-144v126h-512v-126h-135v294h791v-294z" />
    <glyph glyph-name="uni0E3F" unicode="&#xe3f;" horiz-adv-x="1524" 
d="M852 1638q48 0 146 -22.5t199 -110t106 -260.5q0 -207 -74 -293.5t-238 -124.5q154 -31 236 -107.5t88 -244.5q0 -162 -65.5 -261.5t-150 -141.5t-152.5 -54.5t-95 -17.5v-221h-164v221h-397v1638h397v230h164v-230zM688 205v524h-205v-524h205zM688 1450h-205v-532h205
v532zM852 926q65 1 161.5 54t96.5 224q-3 141 -87 191.5t-171 50.5v-520zM852 201q64 0 159 53t95 229q-8 140 -100.5 187t-153.5 51v-520z" />
    <glyph glyph-name="uni0E40" unicode="&#xe40;" horiz-adv-x="926" 
d="M455 1638v-1118l32 6q34 6 66 6q56 0 111 -16q76 -27 121.5 -96.5t45.5 -157.5q0 -54 -16 -98q-31 -91 -103 -133.5t-159 -42.5q-63 0 -107 16q-184 68 -184 287v1347h193zM553 131q60 0 95.5 39t35.5 92q0 54 -34.5 92.5t-96.5 38.5t-94.5 -38t-32.5 -93q0 -53 33.5 -92
t93.5 -39z" />
    <glyph glyph-name="uni0E41" unicode="&#xe41;" horiz-adv-x="1589" 
d="M1163 1638v-1118l32 6q34 6 67 6q55 0 110 -16q77 -27 122.5 -96.5t45.5 -157.5q0 -54 -16 -98q-31 -91 -103 -133.5t-159 -42.5q-63 0 -107 16q-184 68 -184 287v1347h192zM459 1638v-1118l32 6q34 6 66 6q56 0 111 -16q76 -27 122 -96t46 -158q0 -51 -17 -98
q-31 -91 -103 -133.5t-159 -42.5q-63 0 -106 16q-185 68 -185 287v1347h193zM557 131q60 0 95.5 39t35.5 92q0 54 -34.5 92.5t-96.5 38.5t-94.5 -38t-32.5 -93q0 -53 33.5 -92t93.5 -39zM1262 131q60 0 95.5 39t35.5 92q0 54 -34.5 92.5t-96.5 38.5t-94.5 -38t-32.5 -93
q0 -53 33.5 -92t93.5 -39z" />
    <glyph glyph-name="uni0E42" unicode="&#xe42;" horiz-adv-x="1040" 
d="M573 2269v-1749l33 6q34 6 66 6q55 0 110 -16q77 -27 122.5 -96.5t45.5 -157.5q0 -54 -16 -98q-31 -91 -103 -133.5t-159 -42.5q-63 0 -107 16q-184 68 -184 287v1937q0 154 -98 193q-70 24 -149 30.5t-118 6.5q0 37 14 113t71.5 164.5t172.5 123.5q97 25 160 25
q93 0 236 -47t239 -56q61 0 95.5 17.5t52.5 41.5q16 21 16 23l62 -172q-18 -18 -67.5 -46t-117.5 -28q-69 6 -119.5 19.5t-122.5 38t-138 39t-132 14.5q-71 -4 -114.5 -25t-62.5 -46t-24.5 -47l-7.5 -30q30 0 112 -18.5t134 -62.5q58 -51 78 -89t20 -141zM672 131
q60 0 95.5 39t35.5 92q0 54 -34.5 92.5t-96.5 38.5t-94.5 -38t-32.5 -93q0 -53 33.5 -92t93.5 -39z" />
    <glyph glyph-name="uni0E43" unicode="&#xe43;" horiz-adv-x="1114" 
d="M602 2503q-14 97 -85.5 150.5t-168.5 53.5q-42 0 -86 -12q-105 -27 -136.5 -102.5t-31.5 -122.5q9 19 44.5 46.5t107.5 27.5q95 0 152 -64t57 -178q0 -116 -66.5 -185t-167.5 -69q-147 3 -223 117t-76 289q6 174 115.5 288t298.5 117q213 0 329.5 -110t129.5 -291
q0 -74 -19 -145t-55.5 -162t-51 -136.5t-14.5 -97.5v-1393l31 7q32 6 68 6q52 0 110 -17q77 -27 122.5 -96.5t45.5 -157.5q0 -54 -16 -98q-31 -91 -103 -133.5t-159 -42.5q-63 0 -107 16q-184 68 -184 287v1618q0 74 18.5 124t54 114.5t55 120.5t19.5 136q0 21 -8 95z
M754 135q60 0 95.5 39t35.5 92q0 54 -34.5 92.5t-96.5 38.5t-94.5 -38t-32.5 -93q0 -53 33.5 -92t93.5 -39zM229 2404q-47 0 -74.5 -35.5t-27.5 -82.5q0 -103 98 -103q94 0 94 111q0 44 -22.5 77t-67.5 33z" />
    <glyph glyph-name="uni0E44" unicode="&#xe44;" horiz-adv-x="1135" 
d="M676 1917v-1393l30 7q32 6 68 6q53 0 111 -17q76 -27 122 -96t46 -158q0 -55 -17 -98q-60 -176 -262 -176q-63 0 -106 16q-185 68 -185 287v1618q0 199 45 356q15 51 36 114.5t35.5 119.5t14.5 98q0 90 -82 90q-25 0 -40 -29t-34.5 -104t-27.5 -100q-15 -55 -28.5 -103.5
t-33.5 -87.5t-56.5 -63.5t-94.5 -24.5q-80 1 -116.5 42t-48 106.5t-27.5 244.5q-6 99 -95 99l33 204q123 0 160 -69q32 -59 39.5 -169t13.5 -189.5t37 -84.5q27 0 41.5 34.5t32.5 120.5t36.5 148.5t57.5 122.5q45 70 160 70q100 0 175.5 -63t78.5 -183q0 -101 -46 -240
t-57 -202q-16 -98 -16 -254zM774 135q60 0 95.5 39t35.5 92q0 54 -34.5 92.5t-96.5 38.5t-94.5 -38t-32.5 -93q0 -53 33.5 -92t93.5 -39z" />
    <glyph glyph-name="uni0E45" unicode="&#xe45;" horiz-adv-x="1335" 
d="M930 -672v1929q0 123 -74.5 178.5t-265.5 55.5q-180 0 -258 -53t-78 -160v-57h-184v57q0 369 520 369q253 0 392.5 -93.5t139.5 -259.5v-1966h-192z" />
    <glyph glyph-name="uni0E46" unicode="&#xe46;" horiz-adv-x="1851" 
d="M893 1458q90 -45 90 -246q-14 -89 -85 -142.5t-157 -53.5q-111 0 -172 74q-65 82 -65 196q0 111 64 208.5t169 127.5q60 16 123 16q123 0 199 -60t88 -95q23 39 86 97t160 58q113 -3 173 -81t60 -189v-1319q0 -88 -16.5 -146.5t-77.5 -127.5q-46 -54 -133.5 -90.5
t-112.5 -36.5l-102 151q120 0 192 78q58 70 58 197v1286q0 98 -66 98q-59 0 -132 -122t-73 -144q0 14 -23.5 65.5t-66.5 102.5q-81 98 -180 98zM745 1372q-49 0 -75.5 -31t-26.5 -75q0 -45 26.5 -76t75.5 -31q50 0 78.5 31.5t28.5 75.5q0 43 -28.5 74.5t-78.5 31.5z" />
    <glyph glyph-name="uni0E47" unicode="&#xe47;" 
d="M-675 2114q-29 50 -29 114q0 58 20 99q64 135 222 135q75 0 147 -45q98 -67 98 -201q0 -143 -106 -213q-84 -57 -217 -57q-125 0 -230 41q-51 21 -111.5 66t-76.5 65l-172 -164h-225v246q0 216 82 323q89 115 219 145.5t350 30.5q131 0 220 22t135 52t61.5 54.5
t17.5 27.5l123 -123q0 -1 -26.5 -32.5t-73.5 -64.5t-117 -55q-100 -28 -258 -28h-160q-205 0 -303 -66q-90 -58 -90 -254q0 -46 8 -110l221 200q20 -39 127 -135q57 -49 144 -73zM-462 2339q-56 0 -85.5 -34t-29.5 -81t30.5 -81t84.5 -34q51 0 82.5 34.5t31.5 80.5
t-30.5 80.5t-83.5 34.5z" />
    <glyph glyph-name="glyph201" 
d="M-455 2826v484h193v-484h-193z" />
    <glyph glyph-name="glyph202" 
d="M-471 2929q-131 0 -193 61q-49 51 -49 139t58 152q59 65 163 65q130 0 185 -81q41 -67 41 -140q0 -87 -43.5 -170t-63.5 -92q176 0 283 57q164 99 164 332h135q0 -184 -103 -327q-111 -157 -360 -177q-130 -8 -188 -8q-72 0 -124 3t-73 5v95q58 0 98 20q48 20 70 66z
M-492 3236q-47 0 -72.5 -28.5t-25.5 -69.5q0 -103 98 -103q99 0 99 103q0 41 -25.5 69.5t-73.5 28.5z" />
    <glyph glyph-name="glyph203" 
d="M-770 3092q10 4 42 10.5t101 6.5q61 -9 102.5 -61.5t41.5 -118.5q0 -55 -29 -103q-47 -86 -160 -86q-105 0 -172 74q-57 64 -57 205q0 208 135 270q43 21 94 21q65 0 105 -24.5t55 -41.5q0 12 38 39t101 27q90 -3 129 -73.5t39 -160.5q0 -65 -14 -130q-13 -59 -14 -59v1
q76 38 90 94q28 124 28 278q0 80 14 120.5t23 51.5h127q-9 -5 -25 -28.5t-24 -81.5q-8 -52 -9 -151t-7 -153t-37 -110q-83 -151 -353 -151q1 0 27 57q27 59 35 98q16 60 16 148q0 129 -61 139q-48 0 -79.5 -26t-43.5 -44q-16 20 -56 49t-91 29q-17 0 -41 -8q-35 -10 -51 -47
t-19 -60zM-680 3019q-43 0 -66.5 -26.5t-23.5 -63.5q0 -90 90 -90q41 0 65.5 26.5t24.5 63.5q0 36 -24.5 63t-65.5 27z" />
    <glyph glyph-name="glyph204" 
d="M-250 2970v-213h-192v213h-287v147h287v213h192v-213h287v-147h-287z" />
    <glyph glyph-name="glyph205" 
d="M-209 3002q20 -12 49 -56.5t29 -139.5q-9 -112 -86 -175t-213 -63q-118 6 -184 83.5t-66 182.5q0 44 12 86q35 108 116.5 146.5t238 57t223.5 38.5q80 24 109.5 72t29.5 71l127 -147q-8 -22 -42.5 -61t-113.5 -58q-187 -37 -229 -37zM-401 2953q-62 0 -94.5 -38
t-32.5 -93q0 -50 32.5 -86.5t89.5 -36.5q60 0 93.5 39t33.5 92q0 50 -31.5 86.5t-90.5 36.5z" />
    <glyph glyph-name="uni0E4D" unicode="&#xe4d;" 
d="M-504 1917q-141 0 -222 90.5t-81 212.5q0 123 80.5 213t222.5 90t220.5 -89t78.5 -214t-79 -214t-220 -89zM-504 2359q-67 0 -105 -41t-38 -98q0 -60 37.5 -101.5t105.5 -41.5t103.5 41t35.5 102q0 58 -36 98.5t-103 40.5z" />
    <glyph glyph-name="uni0E4E" unicode="&#xe4e;" 
d="M-262 1999q-66 -66 -176 -66q-148 0 -217 95q-54 66 -54 163q0 80 41 140q86 123 254 123q-151 15 -151 167q3 104 86 180t205 91q186 0 262 -37l-119 -127q-18 0 -56 8l-38 8q-41 0 -66 -8q-99 -26 -110 -131q0 -59 52 -89t120 -30l-54 -131q-169 0 -233 -78
q-29 -36 -29 -86q0 -39 17 -65q23 -41 94 -41q72 0 102 37z" />
    <glyph glyph-name="uni0E4F" unicode="&#xe4f;" horiz-adv-x="2114" 
d="M1098 0q-261 0 -445 115.5t-277 304.5t-93 399t93 399t277.5 304.5t444.5 115.5q259 0 445.5 -116t280 -303.5t93.5 -399.5t-94 -399.5t-279.5 -303.5t-445.5 -116zM1098 1528q-225 0 -384 -99t-240 -262t-81 -348q0 -181 81 -344.5t239.5 -263.5t384.5 -100
q171 0 304.5 59t223 160t135 228.5t45.5 260.5q0 185 -81 347.5t-242 262t-385 99.5zM1098 352q-220 0 -343.5 139.5t-123.5 327.5q0 120 53 227.5t159.5 173.5t254.5 66q147 0 253.5 -66t160 -173t53.5 -228q0 -189 -124 -328t-343 -139z" />
    <glyph glyph-name="uni0E50" unicode="&#xe50;" horiz-adv-x="1769" 
d="M1589 598q-2 -182 -75.5 -320.5t-226.5 -216t-386 -77.5t-386 77.5t-226.5 216t-75.5 320.5q0 287 173 463t515 176q346 0 517 -175.5t171 -463.5zM901 1081q-487 0 -487 -483q7 -211 116.5 -331t370.5 -120q472 0 488 451q0 215 -116 349t-372 134z" />
    <glyph glyph-name="uni0E51" unicode="&#xe51;" horiz-adv-x="1810" 
d="M938 188l-20 -4q-23 -4 -46 -4q-94 0 -184 74q-82 63 -82 192q0 185 160 250q60 25 119 25q120 0 203 -87t83 -245q-10 -167 -126 -286t-349 -119q-248 11 -365.5 183.5t-117.5 450.5q21 264 183.5 424.5t488.5 169.5q328 0 510 -160t194 -454q0 -363 -138 -541.5
t-230 -224.5l-140 102q35 15 105.5 74.5t140.5 210t70 387.5q-36 455 -512 455q-222 -6 -346 -130.5t-138 -324.5q0 -189 66 -318.5t201 -156.5q55 -12 94 -12q54 0 92 14t57.5 31.5t26.5 23.5zM885 573q-59 0 -91 -36t-32 -86q0 -54 31.5 -90.5t91.5 -36.5q59 0 91 36.5
t32 90.5q0 50 -32 86t-91 36z" />
    <glyph glyph-name="uni0E52" unicode="&#xe52;" horiz-adv-x="1860" 
d="M811 766q6 4 25.5 14t57 18.5t101.5 8.5q105 -6 163.5 -83t58.5 -192q-3 -103 -75.5 -170t-187.5 -67q-196 3 -257.5 134.5t-61.5 348.5q7 168 83 295.5t216 130.5q81 0 127 -29t62 -57.5t24 -52.5q7 35 59.5 87t190.5 52q132 0 195 -87t63 -216v-524q0 -174 -70 -258
q-98 -119 -254 -119h-667q-158 0 -250 78q-90 72 -90 266v1024q0 152 -50 205q-70 65 -213 65l119 164q17 0 80 -17.5t113 -51.5q143 -105 143 -279v-1089q0 -91 25 -140q42 -73 151 -73h586q97 0 147 57q37 49 37 164v536q0 152 -110 152q-78 0 -109 -61t-31 -111h-143
q0 164 -143 164q-115 -15 -115 -287zM954 676q-59 0 -91 -36.5t-32 -86.5t32.5 -86.5t90.5 -36.5t90.5 36.5t32.5 86.5t-31.5 86.5t-91.5 36.5z" />
    <glyph glyph-name="uni0E53" unicode="&#xe53;" horiz-adv-x="1765" 
d="M434 418q6 17 17 38t51 45t112 31q81 0 148.5 -33.5t105 -91.5t37.5 -128q0 -128 -76 -209.5t-219 -81.5q-389 0 -389 639q6 259 105.5 418t296.5 159q180 0 238 -83t61 -138q0 50 59.5 134.5t230.5 86.5q155 0 243.5 -107.5t88.5 -277.5v-819h-192v819q0 94 -35.5 164.5
t-112.5 73.5q-103 0 -151.5 -88t-48.5 -207v-156h-173v148q0 299 -204 299q-97 -3 -147.5 -92.5t-57.5 -223.5q-4 -32 -4 -98q0 -77 8 -155q7 -68 8 -68v2zM627 389q-62 0 -96.5 -38.5t-34.5 -92.5q0 -53 33.5 -90t93.5 -37t95.5 39t35.5 92q0 54 -32.5 90.5t-94.5 36.5z
" />
    <glyph glyph-name="uni0E54" unicode="&#xe54;" horiz-adv-x="1958" 
d="M1155 274q45 -13 145 -24.5t175 -44.5q79 -35 106 -90l-98 -123l-54 40.5t-101.5 49.5t-168.5 24q-60 -5 -189.5 -49t-177 -58.5t-124.5 -14.5q-170 0 -312 147q-151 158 -151 434q0 155 56.5 297.5t156.5 218.5q165 127 450 127q61 0 194 -6t208 -6q94 0 192 12
q192 25 254 193t62 344l176 -103q0 -120 -65 -310t-283 -263q-140 -41 -308 -41q-58 0 -401 21q-445 0 -487 -414q0 -196 73.5 -326.5t212.5 -156.5q90 0 194 29q94 25 94 28h-1q-15 0 -82 34.5t-133.5 100t-87.5 156.5q-8 28 -8 86q0 112 64 196.5t186 98.5q155 0 233 -79
t78 -192q0 -58 -21 -110q-25 -72 -93.5 -108t-94.5 -36l24 -24t41 -31t66 -27zM963 733q-62 0 -94.5 -38t-32.5 -93q0 -50 32.5 -86.5t89.5 -36.5q60 0 93.5 39t33.5 92q0 51 -32 87t-90 36z" />
    <glyph glyph-name="uni0E55" unicode="&#xe55;" horiz-adv-x="1978" 
d="M717 1397q17 100 90.5 152.5t179.5 52.5q110 0 187 -57t83 -165q0 -90 -23 -132t-38 -52h-1l27 -2q31 -2 64 -2q95 0 176 16q191 37 253.5 202t62.5 335l176 -103q0 -120 -65 -310t-283 -263q-140 -41 -308 -41q-58 0 -401 21q-445 0 -487 -414q0 -196 73.5 -326.5
t212.5 -156.5q90 0 194 29q94 25 94 28h-1q-15 0 -82 34.5t-133.5 100t-87.5 156.5q-8 28 -8 86q0 112 64 196.5t186 98.5q155 0 233 -79t78 -192q0 -58 -21 -110q-25 -72 -93.5 -108t-94.5 -36l24 -24t41 -31t66 -27q45 -13 145 -24.5t175 -44.5q79 -35 106 -90l-98 -123
l-54 40.5t-101.5 49.5t-168.5 24q-60 -5 -189.5 -49t-177 -58.5t-124.5 -14.5q-170 0 -312 147q-159 166 -159 442q0 150 56 286t157 218q156 123 364 123q-14 11 -35.5 57t-21.5 140zM999 1466q-62 0 -96.5 -36.5t-34.5 -90.5q0 -45 27 -78t80 -36q62 0 96.5 36.5
t34.5 90.5q0 45 -27 78t-80 36zM963 733q-62 0 -94.5 -38t-32.5 -93q0 -50 32.5 -86.5t89.5 -36.5q60 0 93.5 39t33.5 92q0 51 -32 87t-90 36z" />
    <glyph glyph-name="uni0E56" unicode="&#xe56;" horiz-adv-x="1810" 
d="M1208 197q112 47 171 158t59 243q0 99 -21 164q-82 299 -483 299q-154 -8 -247.5 -60t-134 -108t-40.5 -70h-201q0 73 -15 221.5t-71 307.5q-77 210 -229 286l139 140q148 -74 230 -271q61 -145 79.5 -285t18.5 -206q0 6 29.5 39.5t87.5 70.5t149 62q127 29 238 29
q158 0 300 -46.5t228 -142.5q152 -171 152 -418q0 -134 -47 -254t-134 -200q-175 -164 -503 -164q-186 0 -345 65t-229 185q-45 84 -45 172q0 109 61.5 190.5t188.5 95.5q303 0 303 -327q-17 -94 -76.5 -139.5t-83.5 -45.5h-2q0 -3 69 -18q80 -18 159 -18q140 0 245 45z
M627 557q-62 0 -94.5 -38t-32.5 -93q0 -50 32.5 -86.5t90.5 -36.5q60 0 93.5 39t33.5 92q0 51 -32 87t-91 36z" />
    <glyph glyph-name="uni0E57" unicode="&#xe57;" horiz-adv-x="2032" 
d="M1462 803q4 -49 4 -135q0 -232 -55 -354.5t-92 -157.5q15 6 73.5 31.5t120.5 110.5t93 251q23 138 25 281q1 142 3 285q2 142 25 282q21 129 69 209t95 114.5t57 40.5l119 -123q-8 -5 -47.5 -33.5t-76.5 -105.5t-48 -217q-9 -122 -14 -314q-5 -193 -14 -299t-42 -219.5
t-102 -211.5q-160 -228 -471 -238q-32 0 -65 4l-29 4q0 1 43.5 85t82.5 204t54 285q4 32 4 106q0 358 -144 369q-89 0 -134.5 -97t-45.5 -198v-107h-172v107q0 287 -151 291q-97 0 -147.5 -90.5t-57.5 -225.5q-4 -32 -4 -98q0 -77 8 -155q7 -68 8 -68v2q6 17 17 38t51 45
t112 31q81 0 148.5 -33.5t105 -91.5t37.5 -128q0 -128 -76 -209.5t-219 -81.5q-389 0 -389 639q6 259 105.5 418t296.5 159q140 0 189.5 -80t55.5 -133q0 46 58 129.5t213 83.5q148 0 227.5 -109.5t95.5 -291.5zM627 389q-62 0 -96.5 -38.5t-34.5 -92.5q0 -53 33.5 -90
t93.5 -37t95.5 39t35.5 92q0 54 -32.5 90.5t-94.5 36.5z" />
    <glyph glyph-name="uni0E58" unicode="&#xe58;" horiz-adv-x="1925" 
d="M1479 324q0 -1 -33 -10q-37 -11 -78 -11q-63 0 -131 29q-147 67 -147 241q0 100 64.5 178t180.5 89q182 0 265 -109t83 -285q0 -181 -85.5 -316t-262.5 -138q-117 0 -204.5 75.5t-188.5 196.5t-139 121q-58 -6 -58 -86q0 -35 21 -111q17 -55 42.5 -95t39.5 -56
q-52 -45 -160 -45q-156 0 -262 90q-201 166 -201 496q0 252 115 417q154 213 557 213q50 0 156 -5t159 -7q290 0 383 181t93 368l180 -107q0 -61 -27 -184.5t-132 -256t-312 -161.5q-90 -8 -140 -8q-72 0 -199.5 10.5t-197.5 10.5q-239 0 -344 -136q-90 -114 -90 -331
q0 -151 49.5 -268.5t134.5 -133.5q-6 21 -15 67.5t-9 100.5q0 167 114 209q37 12 74 12q75 0 138 -51t150.5 -150.5t153.5 -149.5t148 -50q57 11 82.5 43.5t28.5 67t4 45.5zM1372 696q-60 0 -93.5 -36.5t-33.5 -90.5q0 -50 34.5 -88.5t92.5 -38.5q60 0 93.5 38t33.5 89
q0 54 -32.5 90.5t-94.5 36.5z" />
    <glyph glyph-name="uni0E59" unicode="&#xe59;" horiz-adv-x="1995" 
d="M1380 143q-65 89 -101.5 164t-86 199.5t-82.5 189.5q-86 174 -176.5 265.5t-241.5 91.5q-147 -17 -214.5 -158.5t-67.5 -329.5q0 -227 65 -311q94 -119 205 -119q52 0 90.5 22t52.5 36q-55 0 -139.5 27t-126.5 112q-25 58 -25 119q0 108 71.5 187t199.5 79
q136 0 203 -99.5t67 -265.5q-19 -156 -120.5 -256.5t-276.5 -103.5q-212 0 -343.5 164.5t-131.5 490.5q12 253 148 409t368 156q319 -4 442 -290q0 23 13.5 88t54.5 128t112 70q72 0 108 -25t82 -73.5t77 -48.5q101 5 139 332q16 120 16 241q0 67 -8 131l184 -127
q0 -246 -36 -393q-45 -176 -123.5 -282.5t-167.5 -106.5q-32 0 -59.5 21t-62.5 63t-58.5 63t-53.5 21q-69 -26 -69 -197q0 -73 12 -135q69 -305 221 -446q75 -70 197 -70l-103 -176q-39 0 -112.5 26.5t-141.5 116.5zM803 578q-57 0 -88 -35t-31 -84q0 -51 32 -87t91 -36
q56 0 87.5 34.5t31.5 84.5t-31.5 86.5t-91.5 36.5z" />
    <glyph glyph-name="uni0E5A" unicode="&#xe5a;" horiz-adv-x="1765" 
d="M799 1286q86 81 122.5 191t36.5 149q91 0 144 -29q74 -44 74 -167q0 -25 -2.5 -58.5t-2.5 -52.5v-979q0 -199 -114 -287q-59 -42 -110 -56.5t-75 -16.5l-114 147q93 0 164 61q57 47 57 148v901q-17 -38 -94 -103t-246 -94q-67 -12 -135 -12q-153 0 -273 60.5t-153 173.5
q-17 51 -17 102q0 107 65 184t181 94q159 0 241.5 -70.5t82.5 -195.5q0 -64 -15.5 -102.5t-35.5 -57t-27 -24.5q143 0 246 94zM344 1503q-60 0 -93.5 -36.5t-33.5 -90.5q0 -50 34.5 -88.5t92.5 -38.5q60 0 93.5 38t33.5 89q0 54 -32.5 90.5t-94.5 36.5zM1642 1614v-1274
q0 -199 -114 -287q-59 -42 -110 -56.5t-75 -16.5l-114 147q93 0 164 61q57 47 57 148v1270z" />
    <glyph glyph-name="uni0E5B" unicode="&#xe5b;" horiz-adv-x="3281" 
d="M860 16q-157 0 -304.5 63t-250 181.5t-129.5 271.5q-20 123 -20 218q0 297 149 495.5t440 249.5q50 8 78 8q133 0 256 -50.5t178 -84.5l-12 -180q-3 0 -67.5 40.5t-152.5 71.5t-202 31q-57 0 -86 -4q-118 -15 -210 -104t-141.5 -221.5t-49.5 -276.5q0 -226 126.5 -383.5
t373.5 -157.5q169 0 285.5 90.5t176.5 196.5t111.5 231t69.5 125q12 0 110 -150.5t135 -152.5q20 0 49 41.5t72 114t72 111.5t49 40q30 0 67 -61.5t85 -159.5t57 -98q10 0 78 101t108.5 155.5t63.5 54.5q32 0 113 -134t129 -198.5t114 -64.5q13 0 37 8q118 44 176 132
t79 179q19 83 19 90v1h148q-11 -76 -42.5 -206t-80.5 -184q-157 -167 -307 -167q-106 0 -190.5 71.5t-142.5 163.5q-56 88 -56 92q-42 -63 -118.5 -163.5t-123.5 -118.5q-35 0 -72.5 43.5t-76 110t-76.5 132.5q-49 -69 -132 -173.5t-110 -104.5q-32 12 -69.5 56.5t-60 80
t-58.5 96.5q-7 0 -50 -94t-113.5 -193t-195.5 -176.5t-305 -85.5z" />
    <glyph glyph-name="glyph221" 
d="M-451 -1479v201l-24 -4q-26 -5 -57 -8q-62 0 -123 20q-70 23 -117 88.5t-47 145.5q0 40 20 102q57 164 258 164q48 0 90 -12q110 -29 151.5 -110t41.5 -165v-422h-193zM-545 -909q-59 0 -89 -36t-30 -87q0 -49 30 -84t89 -35q56 0 87.5 35.5t31.5 83.5q0 49 -31 86
t-88 37z" />
    <glyph glyph-name="glyph222" 
d="M-469 -1270v451h192v-619h-579v119q0 -11 -84 -11q-61 0 -121 19q-74 25 -119 92.5t-45 141.5q0 93 58.5 179.5t219.5 86.5q151 0 217 -83t66 -204v-172h195zM-951 -950q-118 0 -118 -123q0 -119 118 -119q49 0 84 31t35 88q0 48 -29.5 85.5t-89.5 37.5z" />
    <glyph glyph-name="glyph223" 
d="M-360 -1177q-60 0 -108 40.5t-48 111.5q0 63 42 110q40 46 114 46q73 0 112 -46t39 -110q0 -61 -39.5 -106.5t-111.5 -45.5z" />
    <glyph glyph-name="exclamdown" unicode="&#xa1;" horiz-adv-x="909" 
d="M598 -430h-287v496l65 844h156l66 -844v-496zM614 1204q0 -67 -42 -113t-118 -46t-118 46t-42 113q0 66 43 112q43 48 117 48q73 0 117 -48q43 -46 43 -112z" />
    <glyph glyph-name="cent" unicode="&#xa2;" horiz-adv-x="1427" 
d="M1296 463q-40 -235 -196 -367q-155 -131 -367 -131q-71 0 -128 18l-148 -496l-140 41l144 499q-327 167 -327 632q0 362 175 531q175 171 415 171q56 0 127 -9l140 485l138 -40l-140 -486q229 -91 282 -370l-219 -35q-32 138 -119 215l-278 -960q42 -11 77 -11
q288 0 339 338zM799 1179l-62 2q-370 0 -370 -511q0 -332 153 -447z" />
    <glyph glyph-name="sterling" unicode="&#xa3;" horiz-adv-x="1427" 
d="M1356 48q-188 -79 -304 -79q-63 0 -107 10l-164 44l-165 48q-34 5 -63 7.5t-54 2.5q-199 0 -378 -116l-86 217q288 166 288 490q0 69 -22 156h-245v186h192q-64 205 -64 330q0 255 170 389q169 135 399 135q481 0 555 -474l-223 -35q-49 325 -336 325q-155 0 -240 -99
q-85 -98 -85 -208q0 -132 71 -363h396v-186h-355q23 -54 23 -110q0 -243 -223 -478q102 27 180 27q108 0 235 -31q211 -52 292 -52q91 0 240 69z" />
    <glyph glyph-name="currency" unicode="&#xa4;" horiz-adv-x="1427" 
d="M1325 444l-146 -150l-175 176q-131 -92 -296 -92q-164 0 -297 92l-175 -176l-144 150l175 170q-88 134 -88 296q0 158 88 294l-175 171l144 149l175 -174q133 90 297 90q165 0 296 -90l175 174l146 -149l-175 -171q90 -137 90 -294q0 -160 -90 -296zM382 910
q0 -120 84 -223q85 -103 241 -103q117 0 220 85q104 86 104 241q0 67 -25.5 126t-69 103.5t-103 70t-126.5 25.5q-118 0 -222 -86q-103 -85 -103 -239z" />
    <glyph glyph-name="yen" unicode="&#xa5;" horiz-adv-x="1427" 
d="M1340 407h-516v-407h-227v407h-520v175h520v178h-520v187h428l-509 890h252l363 -647q26 -48 49 -95.5t45 -96.5q17 38 42.5 88.5t60.5 115.5l344 635h269l-509 -890h428v-187h-516v-178h516v-175z" />
    <glyph glyph-name="brokenbar" unicode="&#xa6;" horiz-adv-x="666" 
d="M432 451v-991h-196v991h196zM432 1868v-989h-196v989h196z" />
    <glyph glyph-name="section" unicode="&#xa7;" horiz-adv-x="1427" 
d="M1309 582q0 -237 -284 -359q200 -150 200 -352q0 -174 -138 -292q-137 -119 -359 -119q-475 0 -549 452l226 32q59 -293 321 -293q128 0 200 66t72 151q0 58 -56 132q-56 75 -416 294q-241 146 -332 258q-92 113 -92 254q0 270 282 356q-161 149 -161 311q0 161 125 278
q126 117 332 117q464 0 524 -434l-234 -25q-45 275 -271 275q-125 0 -191 -68t-66 -132q0 -59 51 -129q54 -70 379 -266q322 -198 379 -303q58 -103 58 -204zM912 305q184 97 184 235q0 150 -347 362q-81 49 -144.5 92t-111.5 81q-188 -105 -188 -244q0 -148 317 -339
q94 -55 166.5 -102t123.5 -85z" />
    <glyph glyph-name="dieresis" unicode="&#xa8;" horiz-adv-x="1020" 
d="M876 1495h-237v257h237v-257zM379 1495h-236v257h236v-257z" />
    <glyph glyph-name="copyright" unicode="&#xa9;" horiz-adv-x="1891" 
d="M1895 922q0 -397 -279 -671q-277 -274 -666 -274q-386 0 -667 272q-279 273 -279 673q0 396 271 670q271 276 675 276q380 0 663 -266q282 -266 282 -680zM1738 922q0 341 -240 566t-548 225q-324 0 -557 -230q-232 -229 -232 -561q0 -327 228 -558q230 -230 561 -230
q323 0 555 226q233 227 233 562zM1407 724q-92 -344 -457 -344q-192 0 -344 128q-151 129 -151 412q0 257 140 395q139 138 367 138q332 0 426 -295l-148 -37q-83 192 -284 192q-142 0 -236 -103q-94 -101 -94 -294q0 -388 317 -388q245 0 311 242z" />
    <glyph glyph-name="ordfeminine" unicode="&#xaa;" horiz-adv-x="950" 
d="M900 958h-186q-27 54 -27 111q-152 -134 -320 -134q-307 0 -307 275q0 177 180 242l125 26l184 27l121 25q0 192 -198 192q-186 0 -207 -157l-173 42q46 261 382 261q377 0 377 -303v-392q0 -75 11.5 -130t37.5 -85zM668 1384q-143 -32 -282 -54q-140 -23 -140 -120
q0 -125 163 -125q259 0 259 299z" />
    <glyph glyph-name="guillemotleft" unicode="&#xab;" horiz-adv-x="1427" 
d="M912 662l330 -572h-190l-393 572l393 571h190zM426 662l325 -572h-183l-401 572l401 571h185z" />
    <glyph glyph-name="logicalnot" unicode="&#xac;" horiz-adv-x="1500" 
d="M1356 532h-214v549h-1000v209h1214v-758z" />
    <glyph glyph-name="minus" unicode="&#xad;" horiz-adv-x="854" 
d="M81 551v227h693v-227h-693z" />
    <glyph glyph-name="registered" unicode="&#xae;" horiz-adv-x="1891" 
d="M950 1868q380 0 663 -266q282 -266 282 -680q0 -397 -279 -671q-277 -274 -666 -274q-386 0 -667 272q-279 273 -279 673q0 396 271 670q271 276 675 276zM950 1713q-324 0 -557 -230q-232 -229 -232 -561q0 -327 228 -558q230 -230 561 -230q323 0 555 226
q233 227 233 562q0 341 -240 566t-548 225zM536 399v1018h349q434 0 434 -275q0 -111 -80 -194q-79 -82 -210 -94q93 -28 236 -255l125 -200h-202l-90 162q-98 177 -155 223q-56 47 -148 47h-96v-432h-163zM699 972h200q247 0 247 155q0 152 -261 152h-186v-307z" />
    <glyph glyph-name="macron" unicode="&#xaf;" horiz-adv-x="1417" 
d="M-38 1962v162h1493v-162h-1493z" />
    <glyph glyph-name="degree" unicode="&#xb0;" horiz-adv-x="1027" 
d="M161 1521q0 144 101 245q100 102 245 102q146 0 247 -102q102 -101 102 -245q0 -142 -103 -245q-102 -103 -246 -103q-139 0 -243 101q-103 100 -103 247zM298 1521q0 -44 16 -82.5t44.5 -67.5t67 -45.5t83.5 -16.5q74 0 142 58q69 58 69 154q0 86 -63 149
q-61 64 -148 64q-76 0 -143 -57q-68 -57 -68 -156z" />
    <glyph glyph-name="plusminus" unicode="&#xb1;" horiz-adv-x="1409" 
d="M597 326v505h-499v210h499v499h213v-499h501v-210h-501v-505h-213zM1311 0h-1213v211h1213v-211z" />
    <glyph glyph-name="twosuperior" unicode="&#xb2;" horiz-adv-x="854" 
d="M31 918q13 157 317 380q195 144 229 187t34 89q0 139 -173 139q-154 0 -190 -144l-190 21q67 270 384 270q364 0 364 -255q0 -79 -45 -161q-45 -81 -285 -252q-99 -72 -148 -123h484v-151h-781z" />
    <glyph glyph-name="threesuperior" unicode="&#xb3;" horiz-adv-x="854" 
d="M42 1164l183 19q42 -140 192 -140q197 0 197 167q0 138 -199 138l-41 -4h-28l28 136q194 0 194 129q0 111 -148 111q-132 0 -178 -126l-179 28q85 238 357 238q346 0 346 -234q0 -148 -173 -201q217 -54 217 -240q0 -117 -99 -202q-100 -86 -283 -86q-334 0 -386 267z
" />
    <glyph glyph-name="acute" unicode="&#xb4;" horiz-adv-x="1020" 
d="M240 1495l-57 107l540 319l95 -176z" />
    <glyph glyph-name="mu" unicode="&#xb5;" horiz-adv-x="1478" 
d="M1275 1331v-1331h-202v157q-111 -188 -332 -188q-194 0 -317 165v-645h-224v1842h224v-565q0 -339 64 -466t244 -127q172 0 247 121t75 468v569h221z" />
    <glyph glyph-name="paragraph" unicode="&#xb6;" horiz-adv-x="1379" 
d="M507 -511v1310q-215 0 -360 141t-145 368q0 211 135 370q136 159 456 159h795v-217h-180v-2131h-213v2131h-281v-2131h-207z" />
    <glyph glyph-name="periodcentered" unicode="&#xb7;" horiz-adv-x="712" 
d="M232 776v257h258v-257h-258z" />
    <glyph glyph-name="periodcentered" unicode="&#x2219;" horiz-adv-x="712" 
d="M232 776v257h258v-257h-258z" />
    <glyph glyph-name="cedilla" unicode="&#xb8;" horiz-adv-x="854" 
d="M271 -194l65 223h167l-40 -135q213 -23 213 -184q0 -82 -83 -160t-278 -78q-99 0 -181 15l14 146l117 -4q202 0 202 95q0 82 -196 82z" />
    <glyph glyph-name="onesuperior" unicode="&#xb9;" horiz-adv-x="854" 
d="M415 918v695q-125 -99 -281 -142v155q190 66 327 234h136v-942h-182z" />
    <glyph glyph-name="ordmasculine" unicode="&#xba;" horiz-adv-x="937" 
d="M467 1868q209 0 310 -140q102 -140 102 -330q0 -191 -103 -331q-102 -140 -308 -140q-181 0 -296 124q-116 125 -116 341q0 226 115 350q115 126 296 126zM467 1701q-225 0 -225 -303q0 -306 225 -306q226 0 226 312q0 297 -226 297z" />
    <glyph glyph-name="guillemotright" unicode="&#xbb;" horiz-adv-x="1427" 
d="M991 662l-327 571h187l399 -571l-399 -572h-185zM507 662l-332 571h190l393 -571l-393 -572h-190z" />
    <glyph glyph-name="onequarter" unicode="&#xbc;" horiz-adv-x="2141" 
d="M1791 -38v192h-480v155l509 593h152v-612h130v-136h-130v-192h-181zM315 -71l1382 1939h196l-1380 -1939h-198zM415 918v695q-125 -99 -281 -142v155q190 66 327 234h136v-942h-182zM1791 290v328l-288 -328h288z" />
    <glyph glyph-name="onehalf" unicode="&#xbd;" horiz-adv-x="2141" 
d="M286 -71l1379 1939h197l-1380 -1939h-196zM1315 -38q0 147 317 380q261 186 261 274q0 137 -173 137q-142 0 -190 -141l-190 18q69 272 384 272q367 0 367 -255q0 -103 -65 -185q-32 -40 -98 -97.5t-167 -132.5q-45 -31 -82 -60.5t-68 -58.5h484v-151h-780zM415 918v695
q-125 -99 -281 -142v155q190 66 327 234h136v-942h-182z" />
    <glyph glyph-name="threequarters" unicode="&#xbe;" horiz-adv-x="2141" 
d="M1791 -38v192h-480v155l507 593h154v-612h130v-136h-130v-192h-181zM315 -71l1380 1939h198l-1380 -1939h-198zM42 1164l183 19q42 -140 192 -140q197 0 197 167q0 138 -195 138l-73 -4l28 136q194 0 194 129q0 111 -148 111q-132 0 -178 -126l-179 28q85 238 357 238
q346 0 346 -234q0 -148 -173 -201q217 -54 217 -240q0 -117 -99 -202q-100 -86 -283 -86q-334 0 -386 267zM1791 290v328l-288 -328h288z" />
    <glyph glyph-name="questiondown" unicode="&#xbf;" horiz-adv-x="1569" 
d="M765 1366q36 0 65.5 -13t50.5 -34.5t32.5 -50.5t11.5 -62q0 -30 -10.5 -58t-30.5 -49.5t-49 -34.5t-66 -13q-39 0 -69 13t-50 35.5t-30.5 51t-10.5 60.5q0 30 10.5 58t31 49.5t49.5 34.5t65 13zM1278 241q30 -57 49 -98.5t29.5 -74t14.5 -58t4 -49.5q0 -73 -23 -136
t-64 -115t-97 -93t-122 -69.5t-139 -43t-148 -14.5q-72 0 -144 12.5t-138 37t-123 61t-99 84t-66 106.5t-24 129q0 214 278 439q45 41 77.5 73.5t55 62t37 57.5t22 59.5t10.5 68.5t3 84v168h197v-217q0 -75 -14 -134t-42.5 -110t-73 -96.5t-104.5 -93.5q-49 -40 -90 -78.5
t-71 -81t-46.5 -91.5t-17.5 -110q-1 -65 23 -116t70.5 -86t113.5 -53.5t153 -18.5q82 0 153.5 16t124.5 49t84 83.5t31 118.5q0 42 -11.5 81t-26 69.5t-27 49t-15.5 20.5l195 107z" />
    <glyph glyph-name="Agrave" unicode="&#xc0;" horiz-adv-x="1503" 
d="M1253 0l-184 537h-680l-168 -537h-192l598 1839h262l602 -1839h-238zM737 1593l-286 -880h569zM377 2220l95 176l540 -319l-57 -107z" />
    <glyph glyph-name="Aacute" unicode="&#xc1;" horiz-adv-x="1503" 
d="M1253 0l-184 537h-680l-168 -537h-192l598 1839h262l602 -1839h-238zM737 1593l-286 -880h569zM538 1970l-57 107l540 319l95 -176z" />
    <glyph glyph-name="Acircumflex" unicode="&#xc2;" horiz-adv-x="1503" 
d="M1253 0l-184 537h-680l-168 -537h-192l598 1839h262l602 -1839h-238zM737 1593l-286 -880h569zM746 2234l-222 -263h-229l350 386h202l361 -386h-226z" />
    <glyph glyph-name="Atilde" unicode="&#xc3;" horiz-adv-x="1503" 
d="M1253 0l-184 537h-680l-168 -537h-192l598 1839h262l602 -1839h-238zM737 1593l-286 -880h569zM328 1970q0 284 258 284q80 0 211 -67q73 -36 119 -36q82 0 96 107h163q0 -284 -251 -284q-83 0 -207 69q-85 46 -123 46q-101 0 -101 -119h-165z" />
    <glyph glyph-name="Adieresis" unicode="&#xc4;" horiz-adv-x="1503" 
d="M1253 0l-184 537h-680l-168 -537h-192l598 1839h262l602 -1839h-238zM737 1593l-286 -880h569zM1118 1970h-237v257h237v-257zM621 1970h-236v257h236v-257z" />
    <glyph glyph-name="Aring" unicode="&#xc5;" horiz-adv-x="1503" 
d="M1253 0l-184 537h-680l-168 -537h-192l598 1839h262l602 -1839h-238zM737 1593l-286 -880h569zM526 2041q0 96 67 160q68 65 157 65q81 0 154 -61q73 -60 73 -168q0 -98 -68 -164t-157 -66q-81 0 -154 59q-72 60 -72 175zM620 2041q0 -140 134 -140q49 0 90 40
q42 40 42 96q0 137 -132 137q-134 0 -134 -133z" />
    <glyph glyph-name="AE" unicode="&#xc6;" horiz-adv-x="2567" 
d="M2483 0h-1188v531h-803l-254 -531h-192l897 1839h1516v-197h-934v-585h741v-185h-741v-671h958v-201zM583 708h712v934h-253z" />
    <glyph glyph-name="Ccedilla" unicode="&#xc7;" horiz-adv-x="1667" 
d="M1540 573q-65 -277 -232.5 -437.5t-447.5 -160.5q-252 0 -420.5 140.5t-248.5 362t-80 460.5q0 247 83.5 459.5t257 341.5t429.5 129q179 0 315.5 -74.5t222.5 -207.5t121 -304l-217 -41q-113 434 -451 434q-271 0 -389 -229t-118 -524q0 -270 86 -463
q60 -129 166.5 -210t242.5 -81q360 0 475 455zM699 -194l65 223h167l-40 -135q213 -23 213 -184q0 -82 -83 -160t-278 -78q-99 0 -181 15l14 146l117 -4q202 0 202 95q0 82 -196 82z" />
    <glyph glyph-name="Egrave" unicode="&#xc8;" horiz-adv-x="1503" 
d="M1417 0h-1188v1839h1164v-197h-934v-585h741v-185h-741v-671h958v-201zM434 2220l95 176l540 -319l-57 -107z" />
    <glyph glyph-name="Eacute" unicode="&#xc9;" horiz-adv-x="1503" 
d="M1417 0h-1188v1839h1164v-197h-934v-585h741v-185h-741v-671h958v-201zM559 1970l-57 107l540 319l95 -176z" />
    <glyph glyph-name="Ecircumflex" unicode="&#xca;" horiz-adv-x="1503" 
d="M1417 0h-1188v1839h1164v-197h-934v-585h741v-185h-741v-671h958v-201zM802 2234l-222 -263h-229l350 386h202l361 -386h-226z" />
    <glyph glyph-name="Edieresis" unicode="&#xcb;" horiz-adv-x="1503" 
d="M1417 0h-1188v1839h1164v-197h-934v-585h741v-185h-741v-671h958v-201zM1165 1970h-237v257h237v-257zM668 1970h-236v257h236v-257z" />
    <glyph glyph-name="Igrave" unicode="&#xcc;" horiz-adv-x="700" 
d="M229 0v1839h230v-1839h-230zM-48 2220l95 176l540 -319l-57 -107z" />
    <glyph glyph-name="Iacute" unicode="&#xcd;" horiz-adv-x="700" 
d="M229 0v1839h230v-1839h-230zM132 1970l-57 107l540 319l95 -176z" />
    <glyph glyph-name="Icircumflex" unicode="&#xce;" horiz-adv-x="700" 
d="M229 0v1839h230v-1839h-230zM346 2234l-222 -263h-229l350 386h202l361 -386h-226z" />
    <glyph glyph-name="Idieresis" unicode="&#xcf;" horiz-adv-x="700" 
d="M229 0v1839h230v-1839h-230zM718 1970h-237v257h237v-257zM221 1970h-236v257h236v-257z" />
    <glyph glyph-name="Eth" unicode="&#xd0;" horiz-adv-x="1774" 
d="M1667 926q0 -367 -192 -631q-208 -295 -590 -295h-656v857h-205v143h205v839h582q145 0 249 -22q109 -21 205 -77.5t181 -158.5q221 -262 221 -655zM1430 926q0 321 -164 536q-88 109 -198 146q-111 39 -273 39h-336v-647h455v-143h-455v-660h336q175 0 298 50
q123 52 205 183q132 202 132 496z" />
    <glyph glyph-name="Ntilde" unicode="&#xd1;" horiz-adv-x="1774" 
d="M1352 0l-938 1606v-1606h-193v1839h291l868 -1499v1499h197v-1839h-225zM463 1970q0 284 258 284q80 0 211 -67q73 -36 119 -36q82 0 96 107h163q0 -284 -251 -284q-83 0 -207 69q-85 46 -123 46q-101 0 -101 -119h-165z" />
    <glyph glyph-name="Ograve" unicode="&#xd2;" horiz-adv-x="1774" 
d="M119 909q0 241 81.5 461.5t252 359t419.5 138.5q247 0 418.5 -131.5t255.5 -344t84 -450.5q0 -239 -83 -461.5t-253.5 -364t-416.5 -141.5q-250 0 -422 132t-254 345.5t-82 456.5zM1389 930q0 307 -107 500q-146 249 -401 249q-191 0 -308.5 -117.5t-167 -295
t-49.5 -365.5q0 -171 53.5 -341t171 -283t296.5 -113q184 0 299.5 118.5t164 294t48.5 353.5zM569 2220l95 176l540 -319l-57 -107z" />
    <glyph glyph-name="Oacute" unicode="&#xd3;" horiz-adv-x="1774" 
d="M119 909q0 241 81.5 461.5t252 359t419.5 138.5q247 0 418.5 -131.5t255.5 -344t84 -450.5q0 -239 -83 -461.5t-253.5 -364t-416.5 -141.5q-250 0 -422 132t-254 345.5t-82 456.5zM1389 930q0 307 -107 500q-146 249 -401 249q-191 0 -308.5 -117.5t-167 -295
t-49.5 -365.5q0 -171 53.5 -341t171 -283t296.5 -113q184 0 299.5 118.5t164 294t48.5 353.5zM626 1970l-57 107l540 319l95 -176z" />
    <glyph glyph-name="Ocircumflex" unicode="&#xd4;" horiz-adv-x="1774" 
d="M119 909q0 241 81.5 461.5t252 359t419.5 138.5q247 0 418.5 -131.5t255.5 -344t84 -450.5q0 -239 -83 -461.5t-253.5 -364t-416.5 -141.5q-250 0 -422 132t-254 345.5t-82 456.5zM1389 930q0 307 -107 500q-146 249 -401 249q-191 0 -308.5 -117.5t-167 -295
t-49.5 -365.5q0 -171 53.5 -341t171 -283t296.5 -113q184 0 299.5 118.5t164 294t48.5 353.5zM881 2234l-222 -263h-229l350 386h202l361 -386h-226z" />
    <glyph glyph-name="Otilde" unicode="&#xd5;" horiz-adv-x="1774" 
d="M119 909q0 241 81.5 461.5t252 359t419.5 138.5q247 0 418.5 -131.5t255.5 -344t84 -450.5q0 -239 -83 -461.5t-253.5 -364t-416.5 -141.5q-250 0 -422 132t-254 345.5t-82 456.5zM1389 930q0 307 -107 500q-146 249 -401 249q-191 0 -308.5 -117.5t-167 -295
t-49.5 -365.5q0 -171 53.5 -341t171 -283t296.5 -113q184 0 299.5 118.5t164 294t48.5 353.5zM463 1970q0 284 258 284q80 0 211 -67q73 -36 119 -36q82 0 96 107h163q0 -284 -251 -284q-83 0 -207 69q-85 46 -123 46q-101 0 -101 -119h-165z" />
    <glyph glyph-name="Odieresis" unicode="&#xd6;" horiz-adv-x="1774" 
d="M119 909q0 241 81.5 461.5t252 359t419.5 138.5q247 0 418.5 -131.5t255.5 -344t84 -450.5q0 -239 -83 -461.5t-253.5 -364t-416.5 -141.5q-250 0 -422 132t-254 345.5t-82 456.5zM1389 930q0 307 -107 500q-146 249 -401 249q-191 0 -308.5 -117.5t-167 -295
t-49.5 -365.5q0 -171 53.5 -341t171 -283t296.5 -113q184 0 299.5 118.5t164 294t48.5 353.5zM1253 1970h-237v257h237v-257zM756 1970h-236v257h236v-257z" />
    <glyph glyph-name="multiply" unicode="&#xd7;" horiz-adv-x="1500" 
d="M1294 515l-152 -152l-393 393l-396 -395l-151 152l395 395l-393 392l151 153l394 -393l393 392l150 -152l-392 -392z" />
    <glyph glyph-name="Oslash" unicode="&#xd8;" horiz-adv-x="1769" 
d="M1726 1839l-251 -314q19 -31 35.5 -64.5t30.5 -68.5q84 -212 84 -450q0 -237 -83 -462q-82 -221 -254 -364q-170 -141 -416 -141q-250 0 -422 132q-17 13 -33 26.5t-31 27.5l-129 -161h-176l213 268q-59 83 -98 184q-82 213 -82 457q0 240 81 461q83 221 252 359
q170 139 420 139q247 0 418 -132q28 -22 54 -45t49 -49l157 197h181zM876 1679q-191 0 -309 -118t-167 -295q-49 -175 -49 -365q0 -170 53 -341q8 -27 18.5 -52.5t22.5 -50.5l806 1013q-143 209 -375 209zM1384 930q0 234 -63 402l-798 -999q13 -15 25.5 -29t26.5 -27
q119 -113 297 -113q184 0 299 118q116 119 164 294q49 174 49 354z" />
    <glyph glyph-name="Ugrave" unicode="&#xd9;" horiz-adv-x="1716" 
d="M1487 1839v-1163q0 -164 -25.5 -282t-105.5 -214q-167 -205 -500 -205q-334 0 -496 172q-88 106 -115.5 230.5t-27.5 298.5v1163h229v-1163q0 -251 74 -357q94 -139 352 -139q232 0 332 127q61 73 75.5 156.5t14.5 212.5v1163h193zM466 2220l95 176l540 -319l-57 -107z
" />
    <glyph glyph-name="Uacute" unicode="&#xda;" horiz-adv-x="1716" 
d="M1487 1839v-1163q0 -164 -25.5 -282t-105.5 -214q-167 -205 -500 -205q-334 0 -496 172q-88 106 -115.5 230.5t-27.5 298.5v1163h229v-1163q0 -251 74 -357q94 -139 352 -139q232 0 332 127q61 73 75.5 156.5t14.5 212.5v1163h193zM660 1970l-57 107l540 319l95 -176z
" />
    <glyph glyph-name="Ucircumflex" unicode="&#xdb;" horiz-adv-x="1716" 
d="M1487 1839v-1163q0 -164 -25.5 -282t-105.5 -214q-167 -205 -500 -205q-334 0 -496 172q-88 106 -115.5 230.5t-27.5 298.5v1163h229v-1163q0 -251 74 -357q94 -139 352 -139q232 0 332 127q61 73 75.5 156.5t14.5 212.5v1163h193zM852 2234l-222 -263h-229l350 386h202
l361 -386h-226z" />
    <glyph glyph-name="Udieresis" unicode="&#xdc;" horiz-adv-x="1716" 
d="M1487 1839v-1163q0 -164 -25.5 -282t-105.5 -214q-167 -205 -500 -205q-334 0 -496 172q-88 106 -115.5 230.5t-27.5 298.5v1163h229v-1163q0 -251 74 -357q94 -139 352 -139q232 0 332 127q61 73 75.5 156.5t14.5 212.5v1163h193zM1224 1970h-237v257h237v-257z
M727 1970h-236v257h236v-257z" />
    <glyph glyph-name="Yacute" unicode="&#xdd;" horiz-adv-x="1503" 
d="M872 774v-774h-229v774l-614 1065h270l487 -848l496 848h209zM606 1970l-57 107l540 319l95 -176z" />
    <glyph glyph-name="Thorn" unicode="&#xde;" horiz-adv-x="1713" 
d="M1599 931q0 -557 -687 -557h-470v-374h-244v1837h244v-374h449q356 0 532 -122t176 -410zM1350 924q0 167 -99 244q-99 78 -339 78h-470v-657h474q434 0 434 335z" />
    <glyph glyph-name="germandbls" unicode="&#xdf;" horiz-adv-x="1569" 
d="M1488 392q0 -174 -129 -298q-128 -125 -328 -125q-312 0 -455 302l194 90q103 -207 257 -207q84 0 157 58q74 59 74 160q0 108 -181 231q-211 145 -259 216q-48 70 -48 145q0 92 98 259q104 172 104 263q0 68 -64 132q-63 66 -186 66q-130 0 -218 -83q-87 -83 -87 -359
v-1242h-225v1252q0 616 536 616q214 0 338 -109q126 -108 126 -250q0 -120 -103 -301l-73 -140q-14 -26 -14 -70q0 -86 179 -199q172 -114 240 -198q67 -82 67 -209z" />
    <glyph glyph-name="agrave" unicode="&#xe0;" horiz-adv-x="1450" 
d="M1098 684h-172q-549 0 -549 -307q0 -117 85 -179.5t206 -62.5q126 0 223.5 64t152 171t54.5 228v86zM1098 844v57q0 180 -80 258t-264 78q-325 0 -373 -246l-197 37q26 192 197 280.5t389 88.5q305 0 422 -131q73 -80 92 -185t19 -262v-532q0 -184 32 -287h-209l-28 254
q-136 -279 -475 -279q-204 0 -340 109.5t-136 304.5q0 119 70 223t184 154q160 78 525 78h172zM356 1745l95 176l540 -319l-57 -107z" />
    <glyph glyph-name="aacute" unicode="&#xe1;" horiz-adv-x="1450" 
d="M1098 684h-172q-549 0 -549 -307q0 -117 85 -179.5t206 -62.5q126 0 223.5 64t152 171t54.5 228v86zM1098 844v57q0 180 -80 258t-264 78q-325 0 -373 -246l-197 37q26 192 197 280.5t389 88.5q305 0 422 -131q73 -80 92 -185t19 -262v-532q0 -184 32 -287h-209l-28 254
q-136 -279 -475 -279q-204 0 -340 109.5t-136 304.5q0 119 70 223t184 154q160 78 525 78h172zM532 1495l-57 107l540 319l95 -176z" />
    <glyph glyph-name="acircumflex" unicode="&#xe2;" horiz-adv-x="1450" 
d="M1098 684h-172q-549 0 -549 -307q0 -117 85 -179.5t206 -62.5q126 0 223.5 64t152 171t54.5 228v86zM1098 844v57q0 180 -80 258t-264 78q-325 0 -373 -246l-197 37q26 192 197 280.5t389 88.5q305 0 422 -131q73 -80 92 -185t19 -262v-532q0 -184 32 -287h-209l-28 254
q-136 -279 -475 -279q-204 0 -340 109.5t-136 304.5q0 119 70 223t184 154q160 78 525 78h172zM765 1759l-222 -263h-229l350 386h202l361 -386h-226z" />
    <glyph glyph-name="atilde" unicode="&#xe3;" horiz-adv-x="1450" 
d="M1098 684h-172q-549 0 -549 -307q0 -117 85 -179.5t206 -62.5q126 0 223.5 64t152 171t54.5 228v86zM1098 844v57q0 180 -80 258t-264 78q-325 0 -373 -246l-197 37q26 192 197 280.5t389 88.5q305 0 422 -131q73 -80 92 -185t19 -262v-532q0 -184 32 -287h-209l-28 254
q-136 -279 -475 -279q-204 0 -340 109.5t-136 304.5q0 119 70 223t184 154q160 78 525 78h172zM376 1495q0 284 258 284q80 0 211 -67q73 -36 119 -36q82 0 96 107h163q0 -284 -251 -284q-83 0 -207 69q-85 46 -123 46q-101 0 -101 -119h-165z" />
    <glyph glyph-name="adieresis" unicode="&#xe4;" horiz-adv-x="1450" 
d="M1098 684h-172q-549 0 -549 -307q0 -117 85 -179.5t206 -62.5q126 0 223.5 64t152 171t54.5 228v86zM1098 844v57q0 180 -80 258t-264 78q-325 0 -373 -246l-197 37q26 192 197 280.5t389 88.5q305 0 422 -131q73 -80 92 -185t19 -262v-532q0 -184 32 -287h-209l-28 254
q-136 -279 -475 -279q-204 0 -340 109.5t-136 304.5q0 119 70 223t184 154q160 78 525 78h172zM1149 1495h-237v257h237v-257zM652 1495h-236v257h236v-257z" />
    <glyph glyph-name="aring" unicode="&#xe5;" horiz-adv-x="1450" 
d="M1098 684h-172q-549 0 -549 -307q0 -117 85 -179.5t206 -62.5q126 0 223.5 64t152 171t54.5 228v86zM1098 844v57q0 180 -80 258t-264 78q-325 0 -373 -246l-197 37q26 192 197 280.5t389 88.5q305 0 422 -131q73 -80 92 -185t19 -262v-532q0 -184 32 -287h-209l-28 254
q-136 -279 -475 -279q-204 0 -340 109.5t-136 304.5q0 119 70 223t184 154q160 78 525 78h172zM562 1696q0 96 67 160q68 65 157 65q81 0 154 -61q73 -60 73 -168q0 -98 -68 -164t-157 -66q-81 0 -154 59q-72 60 -72 175zM656 1696q0 -140 134 -140q49 0 90 40q42 40 42 96
q0 137 -132 137q-134 0 -134 -133z" />
    <glyph glyph-name="ae" unicode="&#xe6;" horiz-adv-x="2400" 
d="M2256 377q-60 -186 -220 -294q-161 -108 -358 -108q-297 0 -462 202q-19 23 -34 49q-239 -251 -559 -251q-204 0 -340 109t-136 305q0 120 70 223q72 105 184 154q160 78 525 78h172v57q0 180 -80 258t-264 78q-325 0 -373 -246l-197 37q25 191 197 280t389 89
q305 0 422 -131q29 -32 42 -65q77 86 182 138q117 58 266 58q151 0 264 -55.5t185 -154.5t108.5 -230.5t36.5 -292.5h-987q0 -197 57 -308q46 -96 144 -153q98 -56 204 -56q132 0 227 70.5t138 196.5zM1098 684h-172q-549 0 -549 -307q0 -117 85 -180q86 -62 206 -62
q94 -2 173.5 36t137 103t89 149.5t30.5 174.5v86zM2047 823q0 179 -96 296q-94 118 -269 118q-163 0 -271 -124q-108 -123 -114 -290h750z" />
    <glyph glyph-name="ccedilla" unicode="&#xe7;" horiz-adv-x="1286" 
d="M1196 451q-23 -137 -92.5 -246t-180.5 -169.5t-255 -60.5q-285 0 -431.5 205.5t-146.5 499.5q0 293 150 505t432 212q216 0 353 -129t171 -342l-192 -37q-16 143 -102 237.5t-226 94.5q-190 0 -275.5 -159t-85.5 -366q0 -210 79.5 -377t269.5 -167q273 0 340 335z
M509 -194l65 223h167l-40 -135q213 -23 213 -184q0 -82 -83 -160t-278 -78q-99 0 -181 15l14 146l117 -4q202 0 202 95q0 82 -196 82z" />
    <glyph glyph-name="egrave" unicode="&#xe8;" horiz-adv-x="1448" 
d="M1303 377q-60 -186 -220 -294t-358 -108q-297 0 -462 202.5t-165 502.5q0 145 42.5 273.5t124 228.5t199 157.5t265.5 57.5q150 0 264 -56t185.5 -154t108 -230.5t36.5 -292.5h-987q0 -197 57 -308q47 -96 144 -152.5t204 -56.5q131 0 226.5 71t138.5 196zM1094 823
q0 179 -95.5 296.5t-269.5 117.5q-163 0 -271 -123.5t-114 -290.5h750zM368 1745l95 176l540 -319l-57 -107z" />
    <glyph glyph-name="eacute" unicode="&#xe9;" horiz-adv-x="1448" 
d="M1303 377q-60 -186 -220 -294t-358 -108q-297 0 -462 202.5t-165 502.5q0 145 42.5 273.5t124 228.5t199 157.5t265.5 57.5q150 0 264 -56t185.5 -154t108 -230.5t36.5 -292.5h-987q0 -197 57 -308q47 -96 144 -152.5t204 -56.5q131 0 226.5 71t138.5 196zM1094 823
q0 179 -95.5 296.5t-269.5 117.5q-163 0 -271 -123.5t-114 -290.5h750zM522 1495l-57 107l540 319l95 -176z" />
    <glyph glyph-name="ecircumflex" unicode="&#xea;" horiz-adv-x="1448" 
d="M1303 377q-60 -186 -220 -294t-358 -108q-297 0 -462 202.5t-165 502.5q0 145 42.5 273.5t124 228.5t199 157.5t265.5 57.5q150 0 264 -56t185.5 -154t108 -230.5t36.5 -292.5h-987q0 -197 57 -308q47 -96 144 -152.5t204 -56.5q131 0 226.5 71t138.5 196zM1094 823
q0 179 -95.5 296.5t-269.5 117.5q-163 0 -271 -123.5t-114 -290.5h750zM751 1759l-222 -263h-229l350 386h202l361 -386h-226z" />
    <glyph glyph-name="edieresis" unicode="&#xeb;" horiz-adv-x="1448" 
d="M1303 377q-60 -186 -220 -294t-358 -108q-297 0 -462 202.5t-165 502.5q0 145 42.5 273.5t124 228.5t199 157.5t265.5 57.5q150 0 264 -56t185.5 -154t108 -230.5t36.5 -292.5h-987q0 -197 57 -308q47 -96 144 -152.5t204 -56.5q131 0 226.5 71t138.5 196zM1094 823
q0 179 -95.5 296.5t-269.5 117.5q-163 0 -271 -123.5t-114 -290.5h750zM1090 1495h-237v257h237v-257zM593 1495h-236v257h236v-257z" />
    <glyph glyph-name="igrave" unicode="&#xec;" horiz-adv-x="643" 
d="M426 0h-209v1364h209v-1364zM5 1745l95 176l540 -319l-57 -107z" />
    <glyph glyph-name="iacute" unicode="&#xed;" horiz-adv-x="643" 
d="M426 0h-209v1364h209v-1364zM62 1495l-57 107l540 319l95 -176z" />
    <glyph glyph-name="icircumflex" unicode="&#xee;" horiz-adv-x="643" 
d="M426 0h-209v1364h209v-1364zM317 1759l-222 -263h-229l350 386h202l361 -386h-226z" />
    <glyph glyph-name="idieresis" unicode="&#xef;" horiz-adv-x="643" 
d="M426 0h-209v1364h209v-1364zM689 1495h-237v257h237v-257zM192 1495h-236v257h236v-257z" />
    <glyph glyph-name="eth" unicode="&#xf0;" horiz-adv-x="1427" 
d="M1325 653q0 -352 -191 -519q-191 -165 -427 -165q-307 0 -461 192q-154 191 -154 486q0 326 161 505q162 179 406 179q129 0 265 -73q-37 74 -81 140t-98 126l-344 -159l-55 129l299 136q-123 114 -259 207h273q96 -73 155 -128l269 128l56 -128l-215 -104
q401 -464 401 -952zM1091 662q0 239 -115 367q-114 129 -277 129q-161 0 -269 -128q-107 -128 -107 -389q0 -265 118 -376t264 -111q142 0 264 117t122 391z" />
    <glyph glyph-name="ntilde" unicode="&#xf1;" horiz-adv-x="1450" 
d="M385 1110h4q60 131 172.5 209t253.5 78q251 0 385 -213q66 -115 66 -430v-754h-209v844q0 184 -37 250q-34 56 -100.5 89.5t-137.5 33.5q-169 0 -278 -136q-107 -126 -107 -364v-717h-213v1364h201v-254zM301 1495q0 284 258 284q80 0 211 -67q73 -36 119 -36
q82 0 96 107h163q0 -284 -251 -284q-83 0 -207 69q-85 46 -123 46q-101 0 -101 -119h-165z" />
    <glyph glyph-name="ograve" unicode="&#xf2;" horiz-adv-x="1450" 
d="M106 696q0 190 73 350.5t214.5 255.5t339.5 95q193 0 327 -99t200.5 -261t66.5 -349q0 -303 -166 -508t-461 -205q-195 0 -329 101t-199.5 264.5t-65.5 355.5zM1032 344q66 133 66 352q0 229 -82 369q-117 164 -299 164q-100 0 -181.5 -52.5t-125.5 -140.5
q-70 -132 -70 -340q0 -242 78 -377q43 -79 125 -125.5t174 -46.5q211 0 315 197zM317 1745l95 176l540 -319l-57 -107z" />
    <glyph glyph-name="oacute" unicode="&#xf3;" horiz-adv-x="1450" 
d="M106 696q0 190 73 350.5t214.5 255.5t339.5 95q193 0 327 -99t200.5 -261t66.5 -349q0 -303 -166 -508t-461 -205q-195 0 -329 101t-199.5 264.5t-65.5 355.5zM1032 344q66 133 66 352q0 229 -82 369q-117 164 -299 164q-100 0 -181.5 -52.5t-125.5 -140.5
q-70 -132 -70 -340q0 -242 78 -377q43 -79 125 -125.5t174 -46.5q211 0 315 197zM540 1495l-57 107l540 319l95 -176z" />
    <glyph glyph-name="ocircumflex" unicode="&#xf4;" horiz-adv-x="1450" 
d="M106 696q0 190 73 350.5t214.5 255.5t339.5 95q193 0 327 -99t200.5 -261t66.5 -349q0 -303 -166 -508t-461 -205q-195 0 -329 101t-199.5 264.5t-65.5 355.5zM1032 344q66 133 66 352q0 229 -82 369q-117 164 -299 164q-100 0 -181.5 -52.5t-125.5 -140.5
q-70 -132 -70 -340q0 -242 78 -377q43 -79 125 -125.5t174 -46.5q211 0 315 197zM773 1759l-222 -263h-229l350 386h202l361 -386h-226z" />
    <glyph glyph-name="otilde" unicode="&#xf5;" horiz-adv-x="1450" 
d="M106 696q0 190 73 350.5t214.5 255.5t339.5 95q193 0 327 -99t200.5 -261t66.5 -349q0 -303 -166 -508t-461 -205q-195 0 -329 101t-199.5 264.5t-65.5 355.5zM1032 344q66 133 66 352q0 229 -82 369q-117 164 -299 164q-100 0 -181.5 -52.5t-125.5 -140.5
q-70 -132 -70 -340q0 -242 78 -377q43 -79 125 -125.5t174 -46.5q211 0 315 197zM333 1495q0 284 258 284q80 0 211 -67q73 -36 119 -36q82 0 96 107h163q0 -284 -251 -284q-83 0 -207 69q-85 46 -123 46q-101 0 -101 -119h-165z" />
    <glyph glyph-name="odieresis" unicode="&#xf6;" horiz-adv-x="1450" 
d="M106 696q0 190 73 350.5t214.5 255.5t339.5 95q193 0 327 -99t200.5 -261t66.5 -349q0 -303 -166 -508t-461 -205q-195 0 -329 101t-199.5 264.5t-65.5 355.5zM1032 344q66 133 66 352q0 229 -82 369q-117 164 -299 164q-100 0 -181.5 -52.5t-125.5 -140.5
q-70 -132 -70 -340q0 -242 78 -377q43 -79 125 -125.5t174 -46.5q211 0 315 197zM1091 1495h-237v257h237v-257zM594 1495h-236v257h236v-257z" />
    <glyph glyph-name="divide" unicode="&#xf7;" horiz-adv-x="1409" 
d="M1311 801h-1213v211h1213v-211zM576 399v258h255v-258h-255zM576 1156v257h255v-257h-255z" />
    <glyph glyph-name="oslash" unicode="&#xf8;" horiz-adv-x="1450" 
d="M1346 1366l-156 -201q20 -29 38 -61t32 -67q67 -161 67 -349q0 -303 -166 -508t-461 -205q-195 0 -329 101l-17 13l-69 -89h-176l147 190q-50 66 -85 150q-65 165 -65 356t73 350q74 162 214 256q143 95 340 95q193 0 327 -99q8 -7 16 -13t16 -13l73 94h181zM717 1229
q-50 0 -96 -13.5t-85.5 -39t-71.5 -61t-54 -79.5q-70 -131 -70 -340q0 -199 53 -328l580 749q-106 112 -256 112zM1032 344q66 133 66 352q0 172 -46 292l-578 -744q30 -29 69 -51q82 -46 174 -46q211 0 315 197z" />
    <glyph glyph-name="ugrave" unicode="&#xf9;" horiz-adv-x="1450" 
d="M1065 0v274h-4q-54 -134 -167 -216.5t-251 -82.5q-226 0 -348 152q-111 131 -111 405v832h213v-832q0 -173 41 -245q76 -131 221 -131q163 0 283 139q107 127 107 344v725h208v-1364h-192zM342 1745l95 176l540 -319l-57 -107z" />
    <glyph glyph-name="uacute" unicode="&#xfa;" horiz-adv-x="1450" 
d="M1065 0v274h-4q-54 -134 -167 -216.5t-251 -82.5q-226 0 -348 152q-111 131 -111 405v832h213v-832q0 -173 41 -245q76 -131 221 -131q163 0 283 139q107 127 107 344v725h208v-1364h-192zM536 1495l-57 107l540 319l95 -176z" />
    <glyph glyph-name="ucircumflex" unicode="&#xfb;" horiz-adv-x="1450" 
d="M1065 0v274h-4q-54 -134 -167 -216.5t-251 -82.5q-226 0 -348 152q-111 131 -111 405v832h213v-832q0 -173 41 -245q76 -131 221 -131q163 0 283 139q107 127 107 344v725h208v-1364h-192zM719 1759l-222 -263h-229l350 386h202l361 -386h-226z" />
    <glyph glyph-name="udieresis" unicode="&#xfc;" horiz-adv-x="1450" 
d="M1065 0v274h-4q-54 -134 -167 -216.5t-251 -82.5q-226 0 -348 152q-111 131 -111 405v832h213v-832q0 -173 41 -245q76 -131 221 -131q163 0 283 139q107 127 107 344v725h208v-1364h-192zM1091 1495h-237v257h237v-257zM594 1495h-236v257h236v-257z" />
    <glyph glyph-name="yacute" unicode="&#xfd;" horiz-adv-x="1130" 
d="M606 -127q-63 -174 -139 -254q-58 -61 -119.5 -83.5t-154.5 -22.5q-67 0 -160 28v164q98 -16 143 -16q139 0 191.5 77.5t115.5 258.5l-475 1339h217l369 -1028l369 1028h180zM420 1495l-57 107l540 319l95 -176z" />
    <glyph glyph-name="thorn" unicode="&#xfe;" horiz-adv-x="1427" 
d="M1325 676q0 -318 -163 -512q-162 -195 -417 -195q-201 0 -349 169v-649h-227v2348h227v-647q148 171 364 171q261 0 413 -189q152 -190 152 -496zM1094 676q0 253 -105 381q-104 128 -250 128q-142 0 -254 -135q-111 -134 -111 -391q0 -279 111 -391q112 -112 245 -112
q132 0 248 116t116 404z" />
    <glyph glyph-name="ydieresis" unicode="&#xff;" horiz-adv-x="1130" 
d="M606 -127q-63 -174 -139 -254q-58 -61 -119.5 -83.5t-154.5 -22.5q-67 0 -160 28v164q98 -16 143 -16q139 0 191.5 77.5t115.5 258.5l-475 1339h217l369 -1028l369 1028h180zM931 1495h-237v257h237v-257zM434 1495h-236v257h236v-257z" />
    <glyph glyph-name="OE" unicode="&#x152;" horiz-adv-x="2677" 
d="M2581 0h-1188v214q-22 -25 -46.5 -49.5t-53.5 -48.5q-170 -141 -416 -141q-250 0 -422 132q-171 131 -254 345q-82 213 -82 457q0 240 81 461q83 221 252 359q170 139 420 139q247 0 418 -132q60 -46 103 -98v201h1164v-197h-934v-585h741v-185h-741v-671h958v-201z
M1389 930q0 306 -107 500q-146 249 -401 249q-191 0 -309 -118t-167 -295q-49 -175 -49 -365q0 -170 53 -341q54 -171 171 -283q119 -113 297 -113q184 0 299 118q116 119 164 294q49 174 49 354z" />
    <glyph glyph-name="oe" unicode="&#x153;" horiz-adv-x="2432" 
d="M2306 377q-60 -186 -220 -294q-161 -108 -358 -108q-297 0 -462 202q-16 19 -29.5 39t-26.5 40q-10 -20 -22.5 -39t-26.5 -37q-166 -205 -461 -205q-195 0 -329 101t-200 264q-65 165 -65 356t73 350q74 162 214 256q143 95 340 95q193 0 327 -99q100 -73 147 -203
q27 46 60 87q82 100 199 157.5t266 57.5q151 0 264 -55.5t185 -154.5t108.5 -230.5t36.5 -292.5h-987q0 -197 57 -308q46 -96 144 -153q98 -56 204 -56q132 0 227 70.5t138 196.5zM1032 344q66 133 66 352q0 230 -82 369q-117 164 -299 164q-50 0 -96 -13.5t-85.5 -39
t-71.5 -61t-54 -79.5q-70 -131 -70 -340q0 -242 78 -377q44 -80 125 -126q82 -46 174 -46q211 0 315 197zM2097 823q0 179 -96 296q-94 118 -269 118q-163 0 -271 -124q-108 -123 -114 -290h750z" />
    <glyph glyph-name="Scaron" unicode="&#x160;" horiz-adv-x="1667" 
d="M319 541q38 -124 116 -206t188.5 -122.5t240.5 -40.5q214 0 328 86q115 89 115 242q0 224 -316 295l-307 77q-222 52 -332 148q-147 129 -147 340q0 250 182 379t444 129q235 0 407.5 -116t244.5 -335l-209 -57q-26 147 -160.5 237.5t-290.5 90.5q-148 0 -270.5 -77.5
t-122.5 -217.5q0 -139 80.5 -193.5t251.5 -101.5l278 -62q242 -65 336 -147q172 -141 172 -365q0 -260 -209 -418q-173 -131 -479 -131q-572 0 -749 525zM1064 2357h226l-361 -386h-202l-350 386h229l222 -263z" />
    <glyph glyph-name="scaron" unicode="&#x161;" horiz-adv-x="1397" 
d="M311 401q21 -126 145 -190t265 -64q129 0 230.5 55.5t101.5 174.5q0 96 -76 138.5t-191 62.5l-225 45q-397 68 -397 372q0 199 150.5 300.5t357.5 101.5q128 0 239 -34t190 -110t111 -196l-192 -41q-37 106 -132 161.5t-220 55.5q-108 0 -197.5 -50.5t-89.5 -150.5
t62.5 -139.5t183.5 -61.5l196 -36q199 -33 283 -90q168 -117 168 -308q0 -214 -169.5 -318t-395.5 -104q-220 0 -385.5 95.5t-217.5 289.5zM929 1882h226l-361 -386h-202l-350 386h229l222 -263z" />
    <glyph glyph-name="Ydieresis" unicode="&#x178;" horiz-adv-x="1503" 
d="M872 774v-774h-229v774l-614 1065h270l487 -848l496 848h209zM1118 1970h-237v257h237v-257zM621 1970h-236v257h236v-257z" />
    <glyph glyph-name="florin" unicode="&#x192;" horiz-adv-x="1427" 
d="M58 -507l44 194q142 -29 190 -29q126 0 161 192l221 1306h-252l31 175h252l28 167q40 234 131 303q90 69 227 69q101 0 268 -48l-44 -192q-121 31 -192 31q-62 0 -100 -29q-36 -29 -65 -173l-23 -128h255l-30 -175h-256l-240 -1369q-57 -327 -326 -327q-129 0 -280 33z
" />
    <glyph glyph-name="circumflex" unicode="&#x2c6;" horiz-adv-x="1020" 
d="M504 1759l-222 -263h-229l350 386h202l361 -386h-226z" />
    <glyph glyph-name="tilde" unicode="&#x2dc;" horiz-adv-x="1020" 
d="M86 1495q0 284 258 284q80 0 211 -67q73 -36 119 -36q82 0 96 107h163q0 -284 -251 -284q-83 0 -207 69q-85 46 -123 46q-101 0 -101 -119h-165z" />
    <glyph glyph-name="quotesinglbase" unicode="&#x201a;" horiz-adv-x="774" 
d="M598 55q0 -91 -27.5 -175t-78 -152t-122.5 -115.5t-161 -65.5v110q28 6 62.5 28.5t65.5 56t52 76t21 89.5q-37 -8 -54 -8q-32 0 -65.5 11.5t-62 36t-46.5 61.5t-18 88q0 101 56 152.5t161 51.5q52 0 92.5 -17.5t68.5 -49.5t42 -77t14 -101z" />
    <glyph glyph-name="uni201E" unicode="&#x201e;" horiz-adv-x="1438" 
d="M668 60q0 -90 -27 -174t-77.5 -152.5t-122.5 -116t-162 -65.5v110q27 6 61.5 27.5t65.5 55t52 76.5t21 91q-34 -8 -53 -8q-32 0 -66.5 12t-62.5 36.5t-46 61.5t-18 87q0 102 57.5 153t160.5 51q52 0 92 -17.5t68 -49.5t42.5 -77t14.5 -101zM1298 43q0 -96 -27.5 -179.5
t-77 -148.5t-120 -109.5t-155.5 -62.5v111q27 6 61.5 27.5t65.5 55t52 76.5t21 91q-34 -8 -53 -8q-32 0 -66 12t-62.5 36.5t-46.5 61t-18 86.5q0 102 56.5 153.5t156.5 51.5q49 0 88 -15.5t67 -47t43 -79.5t15 -112z" />
    <glyph glyph-name="uni2020" unicode="&#x2020;" horiz-adv-x="1427" 
d="M591 -434v1519h-499v201h499v509h227v-509h503v-201h-503v-1519h-227z" />
    <glyph glyph-name="uni2021" unicode="&#x2021;" horiz-adv-x="1427" 
d="M595 -434v465h-503v201h503v908h-503v202h503v470h227v-470h505v-202h-505v-908h505v-201h-505v-465h-227z" />
    <glyph glyph-name="uni2030" unicode="&#x2030;" horiz-adv-x="2567" 
d="M766 1382q0 -495 -359 -495q-361 0 -361 490q0 476 359 476q361 0 361 -471zM1676 426q0 -493 -359 -493q-361 0 -361 487q0 477 357 477q363 0 363 -471zM2521 426q0 -493 -359 -493q-361 0 -361 487q0 477 359 477q361 0 361 -471zM1319 1868l-753 -1935h-165l753 1935
h165zM2335 413q0 328 -173 328q-175 0 -175 -330q0 -323 181 -323q167 0 167 325zM580 1369q0 328 -173 328q-175 0 -175 -330q0 -323 181 -323q167 0 167 325zM1490 413q0 328 -173 328q-175 0 -175 -330q0 -323 181 -323q167 0 167 325z" />
    <glyph glyph-name="uni2039" unicode="&#x2039;" horiz-adv-x="854" 
d="M365 660l332 -570h-186l-396 570l396 573h186z" />
    <glyph glyph-name="uni203A" unicode="&#x203a;" horiz-adv-x="854" 
d="M492 664l-333 569h187l382 -561l-382 -582h-187z" />
    <glyph glyph-name="uni2122" unicode="&#x2122;" horiz-adv-x="2567" 
d="M1231 816v1021h249l260 -816l249 816h246v-1021h-156v856l-263 -856h-155l-273 870v-870h-157zM612 816v870h-330v151h835v-151h-334v-870h-171z" />
    <glyph glyph-name="ring" unicode="&#x2da;" horiz-adv-x="1020" 
d="M284 1696q0 96 67 160q68 65 157 65q81 0 154 -61q73 -60 73 -168q0 -98 -68 -164t-157 -66q-81 0 -154 59q-72 60 -72 175zM378 1696q0 -140 134 -140q49 0 90 40q42 40 42 96q0 137 -132 137q-134 0 -134 -133z" />
    <glyph glyph-name="ring" unicode="&#x25e6;" horiz-adv-x="1020" 
d="M284 1696q0 96 67 160q68 65 157 65q81 0 154 -61q73 -60 73 -168q0 -98 -68 -164t-157 -66q-81 0 -154 59q-72 60 -72 175zM378 1696q0 -140 134 -140q49 0 90 40q42 40 42 96q0 137 -132 137q-134 0 -134 -133z" />
    <glyph glyph-name="dotlessi" unicode="&#x131;" horiz-adv-x="643" 
d="M426 0h-209v1364h209v-1364z" />
    <glyph glyph-name="caron" unicode="&#x2c7;" horiz-adv-x="1020" 
d="M740 1882h226l-361 -386h-202l-350 386h229l222 -263z" />
    <glyph glyph-name="Euro" unicode="&#x20ac;" horiz-adv-x="1428" 
d="M1382 69q-48 -24 -85.5 -41t-70.5 -28.5t-64 -18.5t-66.5 -10.5t-78.5 -4.5t-99 -1q-154 0 -290 46.5t-245 136.5t-186.5 221.5t-113.5 300.5h-166l56 154h92q0 21 -2 47.5t-2 71.5q0 3 0.5 15.5t1 29t1 34t1.5 30.5h-148l56 154h117q17 103 57 195.5t98 171t132.5 141.5
t161.5 107.5t184.5 68.5t200.5 24q92 0 154.5 -4.5t111.5 -16t92.5 -31t99.5 -48.5v-220h-21q-48 37 -94 66t-96.5 49t-107.5 31t-126 11q-106 0 -209 -32.5t-191.5 -99.5t-157.5 -169.5t-106 -243.5h603l-54 -154h-578q-3 -26 -3.5 -49t-0.5 -56q0 -42 3 -70t9 -53h485
l-55 -154h-404q38 -142 108 -243.5t159 -167t189.5 -98t198.5 -36.5q96 4 158.5 14.5t108 29t82 48t79.5 71.5h21v-219z" />
    <glyph glyph-name="delete" horiz-adv-x="2048" 
 />
    <glyph glyph-name="Zcaron" unicode="&#x17d;" horiz-adv-x="1450" 
d="M1348 0h-1303v201l1004 1446h-959v192h1225v-151l-1012 -1487h1045v-201zM955 2357h226l-361 -386h-202l-350 386h229l222 -263z" />
    <glyph glyph-name="zcaron" unicode="&#x17e;" horiz-adv-x="1130" 
d="M1077 1249l-749 -1085h749v-164h-1003v164l721 1032h-668v168h950v-115zM795 1882h226l-361 -386h-202l-350 386h229l222 -263z" />
    <glyph glyph-name="uni200B" unicode="&#x200b;" 
 />
    <glyph glyph-name="uni25CC" unicode="&#x25cc;" horiz-adv-x="2040" 
d="M1850 1256q0 -88 -90 -88q-84 0 -84 88q0 86 88 86q86 0 86 -86zM1116 1750q0 -92 -86 -92t-86 92q0 84 86 84t86 -84zM556 390q0 -86 -86 -86t-86 86q0 90 86 90t86 -90zM816 1684q0 -84 -88 -84q-86 0 -86 84q0 90 86 90q88 0 88 -90zM1850 652q0 -86 -90 -86
q-84 0 -84 86q0 88 84 88q90 0 90 -88zM1116 162q0 -90 -86 -90t-86 90q0 86 86 86t86 -86zM326 954q0 -86 -86 -86q-90 0 -90 86t90 86q86 0 86 -86zM384 1256q0 -88 -82 -88q-88 0 -88 88q0 86 86 86q84 0 84 -86zM816 226q0 -88 -88 -88q-86 0 -86 80q0 90 86 90
q88 0 88 -82zM1912 954q0 -86 -82 -86q-90 0 -90 86t90 86q82 0 82 -86zM384 652q0 -86 -84 -86q-86 0 -86 86q0 88 86 88q84 0 84 -88zM1676 390q0 -86 -82 -86q-86 0 -86 86q0 90 86 90q82 0 82 -90zM1418 1684q0 -84 -80 -84q-90 0 -90 84q0 90 90 90q80 0 80 -90z
M1676 1512q0 -80 -82 -80q-90 0 -90 80q0 88 90 88q82 0 82 -88zM556 1512q0 -80 -86 -80t-86 78q0 90 86 90t86 -88zM1418 218q0 -80 -80 -80q-86 0 -86 80q0 90 86 90q80 0 80 -90z" />
    <glyph glyph-name="zero.alt1" horiz-adv-x="1802" 
d="M1537 824q0 -109 -13 -212.5t-42.5 -196t-77.5 -170t-118.5 -133.5t-165.5 -87.5t-218 -31.5q-637 0 -637 824q0 108 13 211t43 194.5t78 168t119 132t166 86.5t218 31q124 0 219.5 -30.5t166.5 -85.5t118.5 -131t76.5 -166.5t41.5 -193t12.5 -209.5zM1311 824
q0 136 -18 255t-64.5 207.5t-125.5 139.5t-201 51q-123 0 -202 -50.5t-124.5 -138.5t-63.5 -207t-18 -257q0 -140 18 -262t64.5 -212t125 -141.5t200.5 -51.5q409 0 409 667z" />
    <glyph glyph-name="one.alt1" horiz-adv-x="1802" 
d="M1094 0h-193v1426l-357 -292v219l361 280h189v-1633z" />
    <glyph glyph-name="two.alt1" horiz-adv-x="1802" 
d="M1469 172v-172h-1137v219q0 64 5.5 116t21.5 96t45 83t77 77q36 28 64.5 48.5t54.5 37.5t52.5 31.5t59.5 31.5t75.5 37.5t99.5 48.5q104 50 178.5 90.5t122 82t70 89t22.5 112.5q0 58 -17.5 109t-60.5 89t-114.5 60t-179.5 22q-103 0 -176.5 -22.5t-121 -65.5t-70 -106.5
t-22.5 -144.5q0 -20 2 -48.5t5 -46.5l-193 1q-2 37 -3 55t-1 32q0 190 117 346q57 78 170 119t286 41q139 0 245.5 -26t179 -78t110 -130t37.5 -181q0 -131 -46 -218.5t-122 -145.5q-19 -15 -41 -29.5t-49.5 -31t-62.5 -35t-81 -41.5q-89 -44 -150.5 -73.5t-105 -51
t-72.5 -37t-51.5 -30t-43 -31.5t-46.5 -41q-77 -71 -77 -201v-87h944z" />
    <glyph glyph-name="three.alt1" horiz-adv-x="1802" 
d="M1497 489q0 -122 -32.5 -215t-105.5 -156.5t-191.5 -96t-289.5 -32.5q-573 0 -573 521h189q0 -368 384 -368q111 0 192 20.5t134 65t78.5 115t25.5 171.5q0 75 -36 129.5t-94.5 89.5t-133.5 52t-152 17h-193v160h186q176 0 272 66.5t96 199.5q0 266 -335 266
q-117 0 -193 -24.5t-120.5 -64.5t-62.5 -90t-18 -101q0 -23 2.5 -39.5t4.5 -22.5h-190q0 54 8 111.5t29.5 111.5t60 102.5t99 84.5t146 57t201.5 21q138 0 244 -22.5t177 -69.5t107.5 -121t36.5 -177q0 -324 -332 -372q40 -3 84 -14t86 -32t80 -52t66.5 -73t45.5 -96.5
t17 -121.5z" />
    <glyph glyph-name="four.alt1" horiz-adv-x="1802" 
d="M1593 616v-167h-299v-449h-193v449h-893v167l842 1017h244v-1017h299zM1101 616v828l-667 -828h667z" />
    <glyph glyph-name="five.alt1" horiz-adv-x="1802" 
d="M1381 1469h-798l-40 -441q37 34 77.5 58t87 39.5t100.5 22.5t117 7q117 0 217 -31.5t173.5 -99t115.5 -173t42 -253.5q0 -143 -31 -255t-100 -190t-179.5 -119t-269.5 -41q-109 0 -192 18t-144.5 49t-104 73.5t-69 91.5t-39.5 102t-16 106h197q0 -146 91 -220t277 -74
q387 0 387 459q0 203 -99.5 305.5t-295.5 102.5q-144 0 -231.5 -54.5t-135.5 -160.5h-190l72 842h981v-164z" />
    <glyph glyph-name="six.alt1" horiz-adv-x="1802" 
d="M1479 1232h-197q-2 39 -17.5 85t-55 85.5t-107.5 65.5t-176 26h-4q-118 -1 -198.5 -49t-122.5 -139q-84 -183 -84 -412q11 26 40.5 63.5t84.5 72t139.5 58.5t206.5 24q124 0 219.5 -38.5t161 -112.5t99 -182t33.5 -247q0 -146 -46.5 -249t-126 -168t-184.5 -95.5
t-222 -30.5q-135 0 -233.5 32.5t-167.5 90t-112 137t-67 174.5t-32.5 201.5t-8.5 217.5q5 72 11 140.5t18.5 133.5t34 127t57.5 121q79 133 201.5 204.5t294.5 71.5q158 0 263.5 -35.5t170 -93.5t93.5 -131t34 -148zM1297 546q0 203 -92 311.5t-273 108.5q-375 0 -375 -420
q0 -407 375 -407q365 0 365 407z" />
    <glyph glyph-name="seven.alt1" horiz-adv-x="1802" 
d="M1444 1466q-30 -30 -74.5 -85t-98.5 -138t-114 -195.5t-121 -256.5q-48 -113 -80 -209t-53 -188.5t-32.5 -187.5t-17.5 -206h-236q0 39 8.5 114t31 176.5t62 225.5t101 262.5t148 286.5t203.5 297q85 107 87 107h-900v164h1086v-167z" />
    <glyph glyph-name="eight.alt1" horiz-adv-x="1802" 
d="M1478 1228q0 -201 -110 -275q-106 -72 -172 -75q28 -2 60 -16q36 -15 70.5 -39.5t65.5 -54.5t52 -58q71 -89 71 -240q0 -131 -49 -222.5t-132.5 -149t-195 -83.5t-236.5 -26q-127 0 -239 26.5t-196 84.5t-132.5 149.5t-48.5 220.5q0 148 71 243q22 28 53 57.5t65.5 53.5
t69.5 39q30 13 58 15q-25 1 -51 11q-31 11 -61 29.5t-57 42.5t-47 50q-61 79 -61 217q0 100 41 177.5t116.5 130.5t181.5 80.5t237 27.5q136 0 243 -26t181 -78t113 -130t39 -182zM1292 470q0 335 -390 335q-199 0 -296.5 -84.5t-97.5 -250.5q0 -76 24.5 -137t73.5 -103.5
t123 -66t173 -24.5h10q83 0 153 20.5t120.5 61.5t78.5 103t28 146zM1266 1228q-6 129 -100.5 197.5t-263.5 68.5q-85 0 -152.5 -17.5t-114.5 -51.5t-72 -83.5t-25 -113.5q0 -266 364 -266q69 0 134 14t115.5 45.5t81.5 82t33 124.5z" />
    <glyph glyph-name="nine.alt1" horiz-adv-x="1802" 
d="M1501 791q-3 -163 -37 -308t-106.5 -254t-188.5 -172.5t-284 -63.5q-343 0 -451 141q-107 143 -107 267h197q17 -84 50 -135.5t79.5 -79.5t104.5 -37.5t124 -9.5q78 0 139 23.5t107 63.5t77.5 93.5t51 112.5t28.5 120.5t9 118.5q0 51 -8 69q-21 -55 -125 -137
q-104 -81 -345 -81q-127 0 -223 39.5t-161 114.5t-98 182.5t-33 242.5q0 146 47 249t127 168.5t185 95.5t222 30q128 0 223.5 -29.5t164.5 -84t113.5 -131.5t70.5 -172t36.5 -205t10.5 -231zM1249 1087q0 407 -374 407q-369 0 -369 -407q0 -201 94.5 -310.5t274.5 -109.5
q183 0 278.5 108t95.5 312z" />
    <glyph glyph-name="uni0E47.sm" 
d="M-343 3299q-36 -32 -74.5 -52t-81 -31.5t-89 -15.5t-98.5 -4h-131q-82 0 -142 -5t-99.5 -27t-59 -69t-19.5 -131q0 -19 2 -41.5t6 -48.5l179 162q4 -7 21.5 -29.5t46.5 -49t68 -51.5t85 -38q-23 38 -23 92q0 47 16 82.5t43 60t63 36.5t74 12q41 0 77 -14t63.5 -40.5
t43.5 -63.5t16 -82q0 -51 -18.5 -92t-53 -69.5t-83 -44t-109.5 -15.5q-43 0 -89.5 7.5t-91 24t-86 43.5t-73.5 66l-140 -131h-183v198q0 97 20 163t56 107.5t86 63.5t108.5 31.5t124.5 10.5t136 1q65 0 115.5 7.5t87.5 19t63 25.5t43 27zM-462 2957q0 38 -25 66t-69 28
q-46 0 -70 -27t-24 -67q0 -39 24.5 -66.5t69.5 -27.5q41 0 67.5 28t26.5 66z" />
    <glyph glyph-name="uni0E48.small" 
d="M-220 3312v-488h-193v488h193z" />
    <glyph glyph-name="uni0E49.small" 
d="M195 3252q0 -95 -27.5 -182t-84.5 -155.5t-144 -113t-207 -53.5q-66 -5 -112.5 -6t-75.5 -2q-72 0 -124 3t-73 5v95q60 0 103.5 21.5t64.5 64.5q-118 0 -180 49t-62 151q0 44 15 83.5t43.5 69t69.5 47t93 17.5q60 0 102.5 -18t70 -49t40.5 -71t13 -83q0 -42 -13 -86.5
t-30.5 -82t-35.5 -63.5q-17 -26 -27 -30q116 0 200 25t138.5 74t80.5 122t27 168h135zM-506 3236q-48 0 -73 -28t-25 -70q0 -103 98 -103q99 0 99 103q0 42 -25.5 70t-73.5 28z" />
    <glyph glyph-name="uni0E4A.small" 
d="M49 3432q-9 -5 -19 -17.5t-18 -40.5t-14 -76.5t-7 -126.5q-1 -51 -2 -87.5t-5 -65.5t-12.5 -54.5t-24.5 -55.5q-82 -151 -352 -151q1 1 9 18q8 18 18.5 43t20.5 51t13 43q16 57 16 148q0 129 -61 139q-23 0 -43 -7.5t-36 -18.5t-27 -23t-17 -21q-8 10 -22.5 23.5
t-34 25.5t-42.5 20.5t-48 8.5q-40 0 -71.5 -29t-39.5 -86q10 4 42 10.5t101 6.5q30 -5 56.5 -21.5t46 -41t30.5 -55t11 -62.5q0 -41 -13.5 -75.5t-38.5 -59.5t-60 -39.5t-77 -14.5q-48 0 -89.5 15t-72.5 48.5t-49 86.5t-18 129q0 66 15 119.5t44 91.5t71.5 59t98.5 21
q32 0 58 -7t46 -17.5t34 -22t22 -19.5q4 7 14.5 18t27.5 21.5t41 18.5t56 8q46 0 78 -21t52 -54.5t29 -75t9 -83.5q0 -28 -4 -61t-9 -61.5t-9 -47.5q-4 -15 -5 -18q76 38 89 94q19 77 23.5 138.5t4.5 139.5q0 80 14 120.5t23 51.5h127zM-680 3019q-43 0 -66.5 -26.5
t-23.5 -63.5q0 -90 90 -90q42 0 66 26.5t24 63.5q0 36 -24 63t-66 27z" />
    <glyph glyph-name="uni0E4B.small" 
d="M65 3127v-148h-280v-205h-192v205h-284v148h284v205h192v-205h280z" />
    <glyph glyph-name="uni0E4C.small" 
d="M134 3176q-45 -59 -103.5 -90.5t-114.5 -46.5t-100.5 -19t-61.5 -8q9 -6 22.5 -19.5t26 -36.5t21 -57.5t8.5 -82.5q-9 -112 -79.5 -175t-208.5 -63q-59 0 -107 19t-82 52t-53 77.5t-19 94.5q0 79 25 134t72.5 91t115.5 56.5t154 30.5q70 8 120.5 18t86 22t59 26t40 30.5
t29.5 34.5t28 39zM-438 2963q-63 0 -95 -38t-32 -93q0 -25 8.5 -47.5t24 -39t38 -26.5t51.5 -10q30 0 53.5 10.5t40 28.5t25 41.5t8.5 50.5q0 25 -8 47.5t-23.5 39t-38 26.5t-52.5 10z" />
    <glyph glyph-name="uni0E4D.small" 
d="M0 2984q0 -62 -20.5 -117t-58.5 -96.5t-94 -65.5t-126 -24q-71 0 -127 25t-95 66.5t-60 96.5t-21 115t20.5 115t59.5 97t95.5 66.5t127.5 24.5t126.5 -24t94 -65.5t58.5 -96.5t20 -117zM-160 2984q0 29 -9 54.5t-27 44t-44 29.5t-59 11t-59.5 -11t-45 -30t-28.5 -44.5
t-10 -53.5q0 -30 9.5 -56t28 -45.5t45 -30.5t60.5 -11t60 11t43.5 30t26.5 45.5t9 56.5z" />
    <glyph glyph-name="uni0E4E.small" 
d="M-73 3279q-10 3 -22 5t-23 3.5t-20.5 2t-15.5 0.5q-22 0 -41.5 -6t-34.5 -17t-23.5 -27.5t-8.5 -37.5t10.5 -37t27 -26.5t38.5 -15t44 -4.5l-38 -92q-42 0 -76 -6t-57.5 -19t-36.5 -33.5t-13 -48.5q0 -35 18 -54.5t60 -19.5q50 0 71 26l49 -86q-46 -46 -123 -46
q-44 0 -79 13t-59.5 36.5t-38 56t-13.5 71.5q0 46 17 79.5t45.5 55.5t65.5 33t79 11q-106 11 -106 117q0 36 19 69t51 57t73.5 38.5t86.5 14.5q50 0 89.5 -6t66.5 -20z" />
  </font>
</defs>
</svg>
